<svg xmlns="http://www.w3.org/2000/svg" viewBox="0 0 256 256">
  <style>
    .draw-line {
      stroke-dasharray: 2000;
      stroke-dashoffset: 0;
    }
    svg:hover .draw-line {
      animation: phosphor-draw-in 1.5s ease-in-out infinite;
    }
    @keyframes phosphor-draw-in {
      0%   { stroke-dashoffset: 2000; }
      100% { stroke-dashoffset: 0; }
    }
  </style><rect width="256" height="256" fill="none"/><path d="M60,75.46,104,88V48a8,8,0,0,1,10.53-7.59L120,42.24l24,57.2,64.56,18A32,32,0,0,1,232,148.32V184L55.37,134.54A32,32,0,0,1,32,103.73V48a8,8,0,0,1,10.53-7.59L48,42.24Z" opacity="0.2"/><line x1="104" y1="216" x2="248" y2="216" fill="none" stroke="currentColor" stroke-linecap="round" stroke-linejoin="round" stroke-width="16" class="draw-line" pathLength="1" style="animation-delay: 0s"/><path d="M60,75.46,104,88V48a8,8,0,0,1,10.53-7.59L120,42.24l24,57.2,64.56,18A32,32,0,0,1,232,148.32V184L55.37,134.54A32,32,0,0,1,32,103.73V48a8,8,0,0,1,10.53-7.59L48,42.24Z" fill="none" stroke="currentColor" stroke-linecap="round" stroke-linejoin="round" stroke-width="16" class="draw-line" pathLength="1" style="animation-delay: 0.3s"/></svg>