<svg xmlns="http://www.w3.org/2000/svg" viewBox="0 0 256 256">
  <style>
    .draw-line {
      stroke-dasharray: 2000;
      stroke-dashoffset: 0;
    }
    svg:hover .draw-line {
      animation: phosphor-draw-in 1.5s ease-in-out infinite alternate;
    }
    @keyframes phosphor-draw-in {
      0%   { stroke-dashoffset: 2000; }
      100% { stroke-dashoffset: 0; }
    }
  </style><rect width="256" height="256" fill="none"/><path d="M88,116.51,58.65,88a8,8,0,0,1,2.2-13.3L68,72l57.53,21.17,54.84-32.75a32,32,0,0,1,41,7.32L240,91.64l-147.41,88a32,32,0,0,1-38-4.32L18.53,140a8,8,0,0,1,2.32-13.19L24,125.27,55.79,136Z" opacity="0.2"/><line x1="24" y1="216" x2="168" y2="216" fill="none" stroke="currentColor" stroke-linecap="round" stroke-linejoin="round" stroke-width="16" class="draw-line" pathLength="1" style="animation-delay: 0s"/><path d="M88,116.51,58.65,88a8,8,0,0,1,2.2-13.3L68,72l57.53,21.17,54.84-32.75a32,32,0,0,1,41,7.32L240,91.64l-147.41,88a32,32,0,0,1-38-4.32L18.53,140a8,8,0,0,1,2.32-13.19L24,125.27,55.79,136Z" fill="none" stroke="currentColor" stroke-linecap="round" stroke-linejoin="round" stroke-width="16" class="draw-line" pathLength="1" style="animation-delay: 0.3s"/></svg>