<svg xmlns="http://www.w3.org/2000/svg" viewBox="0 0 256 256">
  <style>
    .draw-line {
      stroke-dasharray: 2000;
      stroke-dashoffset: 0;
    }
    svg:hover .draw-line {
      animation: phosphor-draw-in 3s ease-in-out infinite alternate;
    }
    @keyframes phosphor-draw-in {
      0%   { stroke-dashoffset: 2000; }
      50%  { stroke-dashoffset: 0; }
      100% { stroke-dashoffset: 0; }
    }
  </style><rect width="256" height="256" fill="none"/><path d="M88,224l24-24V176l24-24,48,72,24-24-32-88,33-31A24,24,0,0,0,175,47L144,80,56,48,32,72l72,48L80,144H56L32,168l40,16Z" opacity="0.2"/><path d="M88,224l24-24V176l24-24,48,72,24-24-32-88,33-31A24,24,0,0,0,175,47L144,80,56,48,32,72l72,48L80,144H56L32,168l40,16Z" fill="none" stroke="currentColor" stroke-linecap="round" stroke-linejoin="round" stroke-width="16" class="draw-line" pathLength="1" style="animation-delay: 0s"/></svg>