<svg xmlns="http://www.w3.org/2000/svg" viewBox="0 0 256 256">
  <style>
    .draw-line {
      stroke-dasharray: 1;
      stroke-dashoffset: 0;
    }
    svg:hover .draw-line {
      animation: phosphor-draw-in 1.5s ease-in-out forwards;
    }
    @keyframes phosphor-draw-in {
      from { stroke-dashoffset: 1; }
      to { stroke-dashoffset: 0; }
    }
  </style><rect width="256" height="256" fill="none"/><circle cx="128" cy="120" r="24" opacity="0.2"/><path d="M131.56,224h-7.12a16.2,16.2,0,0,1-15.76-12.12l-12.19-48A16.06,16.06,0,0,1,112.25,144h31.5a16.06,16.06,0,0,1,15.76,19.88l-12.19,48A16.2,16.2,0,0,1,131.56,224Z" opacity="0.2"/><circle cx="128" cy="120" r="24" fill="none" stroke="currentColor" stroke-linecap="round" stroke-linejoin="round" stroke-width="16" class="draw-line" pathLength="1" style="animation-delay: 0s"/><path d="M131.56,224h-7.12a16.2,16.2,0,0,1-15.76-12.12l-12.19-48A16.06,16.06,0,0,1,112.25,144h31.5a16.06,16.06,0,0,1,15.76,19.88l-12.19,48A16.2,16.2,0,0,1,131.56,224Z" fill="none" stroke="currentColor" stroke-linecap="round" stroke-linejoin="round" stroke-width="16" class="draw-line" pathLength="1" style="animation-delay: 0.3s"/><path d="M66.33,145.18a64,64,0,1,1,123.34,0" fill="none" stroke="currentColor" stroke-linecap="round" stroke-linejoin="round" stroke-width="16" class="draw-line" pathLength="1" style="animation-delay: 0.6s"/><path d="M74.63,207.81a96,96,0,1,1,106.74,0" fill="none" stroke="currentColor" stroke-linecap="round" stroke-linejoin="round" stroke-width="16" class="draw-line" pathLength="1" style="animation-delay: 0.9s"/></svg>