<svg xmlns="http://www.w3.org/2000/svg" viewBox="0 0 256 256">
  <style>
    .draw-line {
      stroke-dasharray: 1;
      stroke-dashoffset: 0;
    }
    svg:hover .draw-line {
      animation: phosphor-draw-in 1.5s ease-in-out forwards;
    }
    @keyframes phosphor-draw-in {
      from { stroke-dashoffset: 1; }
      to { stroke-dashoffset: 0; }
    }
  </style><rect width="256" height="256" fill="none"/><path d="M128,232a32,32,0,0,1,32-32h72V56H160a32,32,0,0,0-32,32Z" opacity="0.2"/><path d="M128,88a32,32,0,0,1,32-32h72V200H160a32,32,0,0,0-32,32" fill="none" stroke="currentColor" stroke-linecap="round" stroke-linejoin="round" stroke-width="16" class="draw-line" pathLength="1" style="animation-delay: 0s"/><path d="M24,200H96a32,32,0,0,1,32,32V88A32,32,0,0,0,96,56H24Z" fill="none" stroke="currentColor" stroke-linecap="round" stroke-linejoin="round" stroke-width="16" class="draw-line" pathLength="1" style="animation-delay: 0.3s"/><line x1="160" y1="96" x2="200" y2="96" fill="none" stroke="currentColor" stroke-linecap="round" stroke-linejoin="round" stroke-width="16" class="draw-line" pathLength="1" style="animation-delay: 0.6s"/><line x1="160" y1="128" x2="200" y2="128" fill="none" stroke="currentColor" stroke-linecap="round" stroke-linejoin="round" stroke-width="16" class="draw-line" pathLength="1" style="animation-delay: 0.9s"/><line x1="160" y1="160" x2="200" y2="160" fill="none" stroke="currentColor" stroke-linecap="round" stroke-linejoin="round" stroke-width="16" class="draw-line" pathLength="1" style="animation-delay: 1.2s"/></svg>