<svg xmlns="http://www.w3.org/2000/svg" viewBox="0 0 256 256">
  <style>
    .draw-line {
      stroke-dasharray: 2000;
      stroke-dashoffset: 0;
    }
    svg:hover .draw-line {
      animation: phosphor-draw-in 3s ease-in-out infinite alternate;
    }
    @keyframes phosphor-draw-in {
      0%   { stroke-dashoffset: 2000; }
      50%  { stroke-dashoffset: 0; }
      100% { stroke-dashoffset: 0; }
    }
  </style><rect width="256" height="256" fill="none"/><path d="M105.07,192l16,28a8,8,0,0,0,13.9,0l16-28H216a8,8,0,0,0,8-8V56a8,8,0,0,0-8-8H40a8,8,0,0,0-8,8V184a8,8,0,0,0,8,8Z" opacity="0.2"/><line x1="48" y1="40" x2="208" y2="216" fill="none" stroke="currentColor" stroke-linecap="round" stroke-linejoin="round" stroke-width="16" class="draw-line" pathLength="1" style="animation-delay: 0s"/><path d="M55.27,48H40a8,8,0,0,0-8,8V184a8,8,0,0,0,8,8h65.07l16,28a8,8,0,0,0,13.9,0l16-28h35.25" fill="none" stroke="currentColor" stroke-linecap="round" stroke-linejoin="round" stroke-width="16" class="draw-line" pathLength="1" style="animation-delay: 0.3s"/><path d="M224,186V56a8,8,0,0,0-8-8H98.52" fill="none" stroke="currentColor" stroke-linecap="round" stroke-linejoin="round" stroke-width="16" class="draw-line" pathLength="1" style="animation-delay: 0.6s"/></svg>