<svg xmlns="http://www.w3.org/2000/svg" viewBox="0 0 256 256">
  <style>
    .draw-line {
      stroke-dasharray: 1;
      stroke-dashoffset: 1;
      animation: phosphor-draw-in 1.5s ease-in-out forwards;
    }
    @keyframes phosphor-draw-in {
      to { stroke-dashoffset: 0; }
    }
  </style><rect width="256" height="256" fill="none"/><path d="M80,144v40a8,8,0,0,0,8,8h96.42L224,224V96a8,8,0,0,0-8-8H176v48a8,8,0,0,1-8,8Z" opacity="0.2"/><path d="M71.58,144,32,176V48a8,8,0,0,1,8-8H168a8,8,0,0,1,8,8v88a8,8,0,0,1-8,8Z" fill="none" stroke="currentColor" stroke-linecap="round" stroke-linejoin="round" stroke-width="16" class="draw-line" pathLength="1" style="animation-delay: 0s"/><path d="M80,144v40a8,8,0,0,0,8,8h96.42L224,224V96a8,8,0,0,0-8-8H176" fill="none" stroke="currentColor" stroke-linecap="round" stroke-linejoin="round" stroke-width="16" class="draw-line" pathLength="1" style="animation-delay: 0.3s"/></svg>