<svg xmlns="http://www.w3.org/2000/svg" viewBox="0 0 256 256">
  <style>
    .draw-line {
      stroke-dasharray: 1;
      stroke-dashoffset: 0;
    }
    svg:hover .draw-line {
      animation: phosphor-draw-in 1.5s ease-in-out forwards;
    }
    @keyframes phosphor-draw-in {
      from { stroke-dashoffset: 1; }
      to { stroke-dashoffset: 0; }
    }
  </style><rect width="256" height="256" fill="none"/><path d="M132,216H48a8,8,0,0,1-8-8V124a92,92,0,0,1,92-92h0a92,92,0,0,1,92,92h0A92,92,0,0,1,132,216Z" opacity="0.2"/><path d="M132,216H48a8,8,0,0,1-8-8V124a92,92,0,0,1,92-92h0a92,92,0,0,1,92,92h0A92,92,0,0,1,132,216Z" fill="none" stroke="currentColor" stroke-linecap="round" stroke-linejoin="round" stroke-width="16" class="draw-line" pathLength="1" style="animation-delay: 0s"/><circle cx="132" cy="128" r="12"/><circle cx="88" cy="128" r="12"/><circle cx="176" cy="128" r="12"/></svg>