<svg xmlns="http://www.w3.org/2000/svg" viewBox="0 0 256 256">
  <style>
    .draw-line {
      stroke-dasharray: 1;
      stroke-dashoffset: 0;
    }
    svg:hover .draw-line {
      animation: phosphor-draw-in 1.5s ease-in-out infinite;
    }
    @keyframes phosphor-draw-in {
      0%   { stroke-dashoffset: 1; }
      100% { stroke-dashoffset: 0; }
    }
  </style><rect width="256" height="256" fill="none"/><path d="M160,40a39.83,39.83,0,0,1,8,24v8H88V64a39.83,39.83,0,0,1,8-24H56a8,8,0,0,0-8,8V216a8,8,0,0,0,8,8H200a8,8,0,0,0,8-8V48a8,8,0,0,0-8-8Z" opacity="0.2"/><path d="M160,40h40a8,8,0,0,1,8,8V216a8,8,0,0,1-8,8H56a8,8,0,0,1-8-8V48a8,8,0,0,1,8-8H96" fill="none" stroke="currentColor" stroke-linecap="round" stroke-linejoin="round" stroke-width="16" class="draw-line" pathLength="1" style="animation-delay: 0s"/><path d="M88,72V64a40,40,0,0,1,80,0v8Z" fill="none" stroke="currentColor" stroke-linecap="round" stroke-linejoin="round" stroke-width="16" class="draw-line" pathLength="1" style="animation-delay: 0.3s"/></svg>