<svg xmlns="http://www.w3.org/2000/svg" viewBox="0 0 256 256">
  <style>
    .draw-line {
      stroke-dasharray: 2000;
      stroke-dashoffset: 0;
    }
    svg:hover .draw-line {
      animation: phosphor-draw-in 3s ease-in-out infinite alternate;
    }
    @keyframes phosphor-draw-in {
      0%   { stroke-dashoffset: 2000; }
      50%  { stroke-dashoffset: 0; }
      100% { stroke-dashoffset: 0; }
    }
  </style><rect width="256" height="256" fill="none"/><path d="M224,128a48,48,0,0,1-48-48,48,48,0,0,1-48-48,96,96,0,1,0,96,96Z" opacity="0.2"/><circle cx="156" cy="172" r="12"/><circle cx="92" cy="164" r="12"/><circle cx="84" cy="108" r="12"/><circle cx="132" cy="124" r="12"/><path d="M224,128a48,48,0,0,1-48-48,48,48,0,0,1-48-48,96,96,0,1,0,96,96Z" fill="none" stroke="currentColor" stroke-linecap="round" stroke-linejoin="round" stroke-width="16" class="draw-line" pathLength="1" style="animation-delay: 0s"/></svg>