<svg xmlns="http://www.w3.org/2000/svg" viewBox="0 0 256 256">
  <style>
    .draw-line {
      stroke-dasharray: 2000;
      stroke-dashoffset: 0;
    }
    svg:hover .draw-line {
      animation: phosphor-draw-in 1.5s ease-in-out infinite;
    }
    @keyframes phosphor-draw-in {
      0%   { stroke-dashoffset: 2000; }
      100% { stroke-dashoffset: 0; }
    }
  </style><rect width="256" height="256" fill="none"/><circle cx="76" cy="180" r="28" opacity="0.2"/><circle cx="180" cy="180" r="28" opacity="0.2"/><path d="M40,120,89.89,51.29a8,8,0,0,1,12.7-.29l12.94,15a16,16,0,0,0,24.94,0l12.94-15a8,8,0,0,1,12.7.29L216,120Z" opacity="0.2"/><line x1="8" y1="120" x2="248" y2="120" fill="none" stroke="currentColor" stroke-linecap="round" stroke-linejoin="round" stroke-width="16" class="draw-line" pathLength="1" style="animation-delay: 0s"/><circle cx="76" cy="180" r="28" fill="none" stroke="currentColor" stroke-linecap="round" stroke-linejoin="round" stroke-width="16" class="draw-line" pathLength="1" style="animation-delay: 0.3s"/><circle cx="180" cy="180" r="28" fill="none" stroke="currentColor" stroke-linecap="round" stroke-linejoin="round" stroke-width="16" class="draw-line" pathLength="1" style="animation-delay: 0.6s"/><line x1="103.72" y1="184" x2="152.28" y2="184" fill="none" stroke="currentColor" stroke-linecap="round" stroke-linejoin="round" stroke-width="16" class="draw-line" pathLength="1" style="animation-delay: 0.9s"/><path d="M40,120,89.89,51.29a8,8,0,0,1,12.7-.29l12.94,15a16,16,0,0,0,24.94,0l12.94-15a8,8,0,0,1,12.7.29L216,120" fill="none" stroke="currentColor" stroke-linecap="round" stroke-linejoin="round" stroke-width="16" class="draw-line" pathLength="1" style="animation-delay: 1.2s"/></svg>