<svg xmlns="http://www.w3.org/2000/svg" viewBox="0 0 256 256">
  <style>
    .draw-line {
      stroke-dasharray: 2000;
      stroke-dashoffset: 0;
    }
    svg:hover .draw-line {
      animation: phosphor-draw-in 3s ease-in-out infinite alternate;
    }
    @keyframes phosphor-draw-in {
      0%   { stroke-dashoffset: 2000; }
      50%  { stroke-dashoffset: 0; }
      100% { stroke-dashoffset: 0; }
    }
  </style><rect width="256" height="256" fill="none"/><path d="M64,208v-3.5a72,72,0,0,1,39.8-64.4l48.4-24.2A72,72,0,0,0,192,51.5V48H64v3.5a72,72,0,0,0,39.8,64.4l48.4,24.2A72,72,0,0,1,192,204.5V208Z" opacity="0.2"/><line x1="96" y1="48" x2="192" y2="48" fill="none" stroke="currentColor" stroke-linecap="round" stroke-linejoin="round" stroke-width="16" class="draw-line" pathLength="1" style="animation-delay: 0s"/><path d="M64,24V51.5a72,72,0,0,0,39.8,64.4l48.4,24.2A72,72,0,0,1,192,204.5V232" fill="none" stroke="currentColor" stroke-linecap="round" stroke-linejoin="round" stroke-width="16" class="draw-line" pathLength="1" style="animation-delay: 0.3s"/><line x1="64" y1="208" x2="160" y2="208" fill="none" stroke="currentColor" stroke-linecap="round" stroke-linejoin="round" stroke-width="16" class="draw-line" pathLength="1" style="animation-delay: 0.6s"/><line x1="107.89" y1="80" x2="186.12" y2="80" fill="none" stroke="currentColor" stroke-linecap="round" stroke-linejoin="round" stroke-width="16" class="draw-line" pathLength="1" style="animation-delay: 0.9s"/><line x1="69.88" y1="176" x2="148.11" y2="176" fill="none" stroke="currentColor" stroke-linecap="round" stroke-linejoin="round" stroke-width="16" class="draw-line" pathLength="1" style="animation-delay: 1.2s"/><path d="M93.38,146.47A72,72,0,0,0,64,204.5V232" fill="none" stroke="currentColor" stroke-linecap="round" stroke-linejoin="round" stroke-width="16" class="draw-line" pathLength="1" style="animation-delay: 1.5s"/><path d="M192,24V51.5a72,72,0,0,1-29.38,58" fill="none" stroke="currentColor" stroke-linecap="round" stroke-linejoin="round" stroke-width="16" class="draw-line" pathLength="1" style="animation-delay: 1.8s"/></svg>