<svg xmlns="http://www.w3.org/2000/svg" viewBox="0 0 256 256">
  <style>
    .draw-line {
      stroke-dasharray: 2000;
      stroke-dashoffset: 0;
    }
    svg:hover .draw-line {
      animation: phosphor-draw-in 1.5s ease-in-out infinite;
    }
    @keyframes phosphor-draw-in {
      0%   { stroke-dashoffset: 2000; }
      100% { stroke-dashoffset: 0; }
    }
  </style><rect width="256" height="256" fill="none"/><path d="M88,160a72,72,0,0,1,72-72,73.37,73.37,0,0,1,7.6.4,72,72,0,1,0-79.2,79.2A73.37,73.37,0,0,1,88,160Z" opacity="0.2"/><path d="M167.6,88.4A73.37,73.37,0,0,1,168,96a72,72,0,0,1-72,72,73.37,73.37,0,0,1-7.6-.4,72,72,0,1,0,79.2-79.2Z" opacity="0.2"/><circle cx="96" cy="96" r="72" fill="none" stroke="currentColor" stroke-linecap="round" stroke-linejoin="round" stroke-width="16" class="draw-line" pathLength="1" style="animation-delay: 0s"/><circle cx="160" cy="160" r="72" fill="none" stroke="currentColor" stroke-linecap="round" stroke-linejoin="round" stroke-width="16" class="draw-line" pathLength="1" style="animation-delay: 0.3s"/></svg>