<svg xmlns="http://www.w3.org/2000/svg" viewBox="0 0 256 256">
  <style>
    .draw-line {
      stroke-dasharray: 1;
      stroke-dashoffset: 0;
    }
    svg:hover .draw-line {
      animation: phosphor-draw-in 1.5s ease-in-out forwards;
    }
    @keyframes phosphor-draw-in {
      from { stroke-dashoffset: 1; }
      to { stroke-dashoffset: 0; }
    }
  </style><rect width="256" height="256" fill="none"/><path d="M208,48a24,24,0,0,0-24,24H72a24,24,0,0,0-48,0v80a64,64,0,0,0,64,64h80a64,64,0,0,0,64-64V72A24,24,0,0,0,208,48Zm-8,104a32,32,0,0,1-32,32H88a32,32,0,0,1-32-32v-8a32,32,0,0,1,32-32h80a32,32,0,0,1,32,32Z" opacity="0.2"/><rect x="56" y="112" width="144" height="72" rx="32" fill="none" stroke="currentColor" stroke-linecap="round" stroke-linejoin="round" stroke-width="16" class="draw-line" pathLength="1" style="animation-delay: 0s"/><path d="M24,72a24,24,0,0,1,48,0H184a24,24,0,0,1,48,0v80a64,64,0,0,1-64,64H88a64,64,0,0,1-64-64Z" fill="none" stroke="currentColor" stroke-linecap="round" stroke-linejoin="round" stroke-width="16" class="draw-line" pathLength="1" style="animation-delay: 0.3s"/><circle cx="92" cy="148" r="12"/><circle cx="164" cy="148" r="12"/></svg>