<svg xmlns="http://www.w3.org/2000/svg" viewBox="0 0 256 256">
  <style>
    .draw-line {
      stroke-dasharray: 2000;
      stroke-dashoffset: 0;
    }
    svg:hover .draw-line {
      animation: phosphor-draw-in 3s ease-in-out infinite alternate;
    }
    @keyframes phosphor-draw-in {
      0%   { stroke-dashoffset: 2000; }
      50%  { stroke-dashoffset: 0; }
      100% { stroke-dashoffset: 0; }
    }
  </style><rect width="256" height="256" fill="none"/><path d="M224,56H32a8,8,0,0,0-8,8V192a8,8,0,0,0,8,8H96l26.34-26.34a8,8,0,0,1,11.32,0L160,200h64a8,8,0,0,0,8-8V64A8,8,0,0,0,224,56ZM80,152a24,24,0,1,1,24-24A24,24,0,0,1,80,152Zm96,0a24,24,0,1,1,24-24A24,24,0,0,1,176,152Z" opacity="0.2"/><path d="M24,192V64a8,8,0,0,1,8-8H224a8,8,0,0,1,8,8V192a8,8,0,0,1-8,8H160l-26.34-26.34a8,8,0,0,0-11.32,0L96,200H32A8,8,0,0,1,24,192Z" fill="none" stroke="currentColor" stroke-linecap="round" stroke-linejoin="round" stroke-width="16" class="draw-line" pathLength="1" style="animation-delay: 0s"/><circle cx="80" cy="128" r="24" fill="none" stroke="currentColor" stroke-linecap="round" stroke-linejoin="round" stroke-width="16" class="draw-line" pathLength="1" style="animation-delay: 0.3s"/><circle cx="176" cy="128" r="24" fill="none" stroke="currentColor" stroke-linecap="round" stroke-linejoin="round" stroke-width="16" class="draw-line" pathLength="1" style="animation-delay: 0.6s"/></svg>