<svg xmlns="http://www.w3.org/2000/svg" viewBox="0 0 256 256">
  <style>
    .draw-line {
      stroke-dasharray: 2000;
      stroke-dashoffset: 0;
    }
    svg:hover .draw-line {
      animation: phosphor-draw-in 1.5s ease-in-out infinite alternate;
    }
    @keyframes phosphor-draw-in {
      0%   { stroke-dashoffset: 2000; }
      100% { stroke-dashoffset: 0; }
    }
  </style><rect width="256" height="256" fill="none"/><path d="M188,56a20,20,0,0,0-20,20V44a20,20,0,0,0-40,0V60a20,20,0,0,0-40,0v92L69.32,122a20,20,0,0,0-34.64,20c32.57,68.72,49.14,90,93.32,90a80,80,0,0,0,80-80V76A20,20,0,0,0,188,56Z" opacity="0.2"/><path d="M168,76a20,20,0,0,1,40,0v76a80,80,0,0,1-80,80c-44.18,0-60.75-21.28-93.32-90a20,20,0,0,1,34.64-20L88,152V60a20,20,0,0,1,40,0" fill="none" stroke="currentColor" stroke-linecap="round" stroke-linejoin="round" stroke-width="16" class="draw-line" pathLength="1" style="animation-delay: 0s"/><path d="M128,120V44a20,20,0,0,1,40,0v76" fill="none" stroke="currentColor" stroke-linecap="round" stroke-linejoin="round" stroke-width="16" class="draw-line" pathLength="1" style="animation-delay: 0.3s"/></svg>