<svg xmlns="http://www.w3.org/2000/svg" viewBox="0 0 256 256">
  <style>
    .draw-line {
      stroke-dasharray: 1;
      stroke-dashoffset: 0;
    }
    svg:hover .draw-line {
      animation: phosphor-draw-in 1.5s ease-in-out infinite;
    }
    @keyframes phosphor-draw-in {
      0%   { stroke-dashoffset: 1; }
      100% { stroke-dashoffset: 0; }
    }
  </style><rect width="256" height="256" fill="none"/><path d="M208,40H48a8,8,0,0,0-8,8V208a8,8,0,0,0,8,8h8.69L166.34,106.34a8,8,0,0,1,11.32,0L216,144.69V48A8,8,0,0,0,208,40ZM96,112a16,16,0,1,1,16-16A16,16,0,0,1,96,112Z" opacity="0.2"/><rect x="40" y="40" width="176" height="176" rx="8" fill="none" stroke="currentColor" stroke-linecap="round" stroke-linejoin="round" stroke-width="16" class="draw-line" pathLength="1" style="animation-delay: 0s"/><circle cx="96" cy="96" r="16" fill="none" stroke="currentColor" stroke-linecap="round" stroke-linejoin="round" stroke-width="16" class="draw-line" pathLength="1" style="animation-delay: 0.3s"/><path d="M56.69,216,166.34,106.34a8,8,0,0,1,11.32,0L216,144.69" fill="none" stroke="currentColor" stroke-linecap="round" stroke-linejoin="round" stroke-width="16" class="draw-line" pathLength="1" style="animation-delay: 0.6s"/></svg>