<svg xmlns="http://www.w3.org/2000/svg" viewBox="0 0 256 256">
  <style>
    .draw-line {
      stroke-dasharray: 2000;
      stroke-dashoffset: 0;
    }
    svg:hover .draw-line {
      animation: phosphor-draw-in 1.5s ease-in-out infinite alternate;
    }
    @keyframes phosphor-draw-in {
      0%   { stroke-dashoffset: 2000; }
      100% { stroke-dashoffset: 0; }
    }
  </style><rect width="256" height="256" fill="none"/><path d="M208,192H64a48,48,0,0,1-48-48V120A48,48,0,0,1,64,72H208a24,24,0,0,1,24,24l8,64A32,32,0,0,1,208,192Z" opacity="0.2"/><path d="M108.67,168A40,40,0,0,1,72,192H64a48,48,0,0,1-48-48V120A48,48,0,0,1,64,72h9.43a48,48,0,0,1,43.5,27.7l30.14,64.6a48,48,0,0,0,43.5,27.7H208a32,32,0,0,0,32-32h0a32,32,0,0,0-32-32H188a28,28,0,0,1-28-28h0a28,28,0,0,1,28-28h20a24,24,0,0,1,24,24h0" fill="none" stroke="currentColor" stroke-linecap="round" stroke-linejoin="round" stroke-width="16" class="draw-line" pathLength="1" style="animation-delay: 0s"/></svg>