<svg xmlns="http://www.w3.org/2000/svg" viewBox="0 0 256 256">
  <style>
    .draw-line {
      stroke-dasharray: 2000;
      stroke-dashoffset: 0;
    }
    svg:hover .draw-line {
      animation: phosphor-draw-in 3s ease-in-out infinite alternate;
    }
    @keyframes phosphor-draw-in {
      0%   { stroke-dashoffset: 2000; }
      50%  { stroke-dashoffset: 0; }
      100% { stroke-dashoffset: 0; }
    }
  </style><rect width="256" height="256" fill="none"/><path d="M176,211.16a96,96,0,1,0-96,0h0V176a8,8,0,0,1,8-8h8V144a8,8,0,0,1,8-8h4.16l12-57.63c1.77-8.49,13.89-8.49,15.66,0l12,57.63H152a8,8,0,0,1,8,8v24h8a8,8,0,0,1,8,8v35.16Z" opacity="0.2"/><circle cx="128" cy="128" r="96" fill="none" stroke="currentColor" stroke-linecap="round" stroke-linejoin="round" stroke-width="16" class="draw-line"/><path d="M176,211.16V176a8,8,0,0,0-8-8H88a8,8,0,0,0-8,8v35.16" fill="none" stroke="currentColor" stroke-linecap="round" stroke-linejoin="round" stroke-width="16" class="draw-line"/><path d="M96,168V144a8,8,0,0,1,8-8h48a8,8,0,0,1,8,8v24" fill="none" stroke="currentColor" stroke-linecap="round" stroke-linejoin="round" stroke-width="16" class="draw-line"/><path d="M147.84,136l-12-57.63c-1.77-8.49-13.89-8.49-15.66,0l-12,57.63" fill="none" stroke="currentColor" stroke-linecap="round" stroke-linejoin="round" stroke-width="16" class="draw-line"/></svg>