<svg xmlns="http://www.w3.org/2000/svg" viewBox="0 0 256 256">
  <style>
    .draw-line {
      stroke-dasharray: 2000;
      stroke-dashoffset: 0;
    }
    svg:hover .draw-line {
      animation: phosphor-draw-in 1.5s ease-in-out infinite alternate;
    }
    @keyframes phosphor-draw-in {
      0%   { stroke-dashoffset: 0; }
      100% { stroke-dashoffset: 2000; }
    }
  </style><rect width="256" height="256" fill="none"/><circle cx="128" cy="128" r="32" opacity="0.2"/><path d="M240,64H200a48.85,48.85,0,0,0,40,40Z" opacity="0.2"/><path d="M240,192V152a48.85,48.85,0,0,0-40,40Z" opacity="0.2"/><path d="M16,192V152a48.85,48.85,0,0,1,40,40Z" opacity="0.2"/><path d="M16,64v40A48.85,48.85,0,0,0,56,64Z" opacity="0.2"/><circle cx="128" cy="128" r="32" fill="none" stroke="currentColor" stroke-linecap="round" stroke-linejoin="round" stroke-width="16" class="draw-line" pathLength="1" style="animation-delay: 0s"/><rect x="16" y="64" width="224" height="128" fill="none" stroke="currentColor" stroke-linecap="round" stroke-linejoin="round" stroke-width="16" class="draw-line" pathLength="1" style="animation-delay: 0.3s"/><path d="M240,104a48.85,48.85,0,0,1-40-40" fill="none" stroke="currentColor" stroke-linecap="round" stroke-linejoin="round" stroke-width="16" class="draw-line" pathLength="1" style="animation-delay: 0.6s"/><path d="M200,192a48.85,48.85,0,0,1,40-40" fill="none" stroke="currentColor" stroke-linecap="round" stroke-linejoin="round" stroke-width="16" class="draw-line" pathLength="1" style="animation-delay: 0.9s"/><path d="M16,152a48.85,48.85,0,0,1,40,40" fill="none" stroke="currentColor" stroke-linecap="round" stroke-linejoin="round" stroke-width="16" class="draw-line" pathLength="1" style="animation-delay: 1.2s"/><path d="M56,64a48.85,48.85,0,0,1-40,40" fill="none" stroke="currentColor" stroke-linecap="round" stroke-linejoin="round" stroke-width="16" class="draw-line" pathLength="1" style="animation-delay: 1.5s"/></svg>