<svg xmlns="http://www.w3.org/2000/svg" viewBox="0 0 256 256">
  <style>
    .draw-line {
      stroke-dasharray: 2000;
      stroke-dashoffset: 0;
    }
    svg:hover .draw-line {
      animation: phosphor-draw-in 1.5s ease-in-out infinite alternate;
    }
    @keyframes phosphor-draw-in {
      0%   { stroke-dashoffset: 2000; }
      100% { stroke-dashoffset: 0; }
    }
  </style><rect width="256" height="256" fill="none"/><path d="M48,128c0-64,80-72,80-104,0,32,80,40,80,104Z" opacity="0.2"/><path d="M208,152a16,16,0,0,1,16-16h0a16,16,0,0,1,16,16v56H208" fill="none" stroke="currentColor" stroke-linecap="round" stroke-linejoin="round" stroke-width="16" class="draw-line" pathLength="1" style="animation-delay: 0s"/><path d="M48,208H16V152a16,16,0,0,1,16-16h0a16,16,0,0,1,16,16" fill="none" stroke="currentColor" stroke-linecap="round" stroke-linejoin="round" stroke-width="16" class="draw-line" pathLength="1" style="animation-delay: 0.3s"/><line x1="208" y1="128" x2="48" y2="128" fill="none" stroke="currentColor" stroke-linecap="round" stroke-linejoin="round" stroke-width="16" class="draw-line" pathLength="1" style="animation-delay: 0.6s"/><path d="M48,208V128c0-64,80-72,80-104,0,32,80,40,80,104v80H176V176a16,16,0,0,0-16-16h0a16,16,0,0,0-16,16v32H112V176a16,16,0,0,0-16-16h0a16,16,0,0,0-16,16v32Z" fill="none" stroke="currentColor" stroke-linecap="round" stroke-linejoin="round" stroke-width="16" class="draw-line" pathLength="1" style="animation-delay: 0.9s"/></svg>