<svg xmlns="http://www.w3.org/2000/svg" viewBox="0 0 256 256">
  <style>
    .draw-line {
      stroke-dasharray: 2000;
      stroke-dashoffset: 0;
    }
    svg:hover .draw-line {
      animation: phosphor-draw-in 1.5s ease-in-out infinite;
    }
    @keyframes phosphor-draw-in {
      0%   { stroke-dashoffset: 2000; }
      100% { stroke-dashoffset: 0; }
    }
  </style><rect width="256" height="256" fill="none"/><path d="M128,129.09,32.7,76.93a8,8,0,0,0-.7,3.25v95.64a8,8,0,0,0,4.16,7l88,48.18a8,8,0,0,0,3.84,1Z" opacity="0.2"/><polyline points="32.7 76.92 128 129.08 223.3 76.92" fill="none" stroke="currentColor" stroke-linecap="round" stroke-linejoin="round" stroke-width="16" class="draw-line" pathLength="1" style="animation-delay: 0s"/><line x1="128" y1="129.09" x2="128" y2="231.97" fill="none" stroke="currentColor" stroke-linecap="round" stroke-linejoin="round" stroke-width="16" class="draw-line" pathLength="1" style="animation-delay: 0.3s"/><path d="M219.84,182.84l-88,48.18a8,8,0,0,1-7.68,0l-88-48.18a8,8,0,0,1-4.16-7V80.18a8,8,0,0,1,4.16-7l88-48.18a8,8,0,0,1,7.68,0l88,48.18a8,8,0,0,1,4.16,7v95.64A8,8,0,0,1,219.84,182.84Z" fill="none" stroke="currentColor" stroke-linecap="round" stroke-linejoin="round" stroke-width="16" class="draw-line" pathLength="1" style="animation-delay: 0.6s"/><polyline points="81.56 48.31 176 100 176 152" fill="none" stroke="currentColor" stroke-linecap="round" stroke-linejoin="round" stroke-width="16" class="draw-line" pathLength="1" style="animation-delay: 0.9s"/></svg>