<svg xmlns="http://www.w3.org/2000/svg" viewBox="0 0 256 256">
  <style>
    .draw-line {
      stroke-dasharray: 2000;
      stroke-dashoffset: 0;
    }
    svg:hover .draw-line {
      animation: phosphor-draw-in 3s ease-in-out infinite alternate;
    }
    @keyframes phosphor-draw-in {
      0%   { stroke-dashoffset: 2000; }
      50%  { stroke-dashoffset: 0; }
      100% { stroke-dashoffset: 0; }
    }
  </style><rect width="256" height="256" fill="none"/><path d="M24,208a8,8,0,0,1-7.3-11.28l64.8-144A8,8,0,0,1,88.81,48H232a8,8,0,0,1,7.3,11.28l-64.8,144a8,8,0,0,1-7.3,4.72Z" opacity="0.2"/><path d="M24,208a8,8,0,0,1-7.3-11.28l64.8-144A8,8,0,0,1,88.81,48H232a8,8,0,0,1,7.3,11.28l-64.8,144a8,8,0,0,1-7.3,4.72Z" fill="none" stroke="currentColor" stroke-linecap="round" stroke-linejoin="round" stroke-width="16" class="draw-line"/></svg>