<svg xmlns="http://www.w3.org/2000/svg" viewBox="0 0 256 256">
  <style>
    .draw-line {
      stroke-dasharray: 2000;
      stroke-dashoffset: 0;
    }
    svg:hover .draw-line {
      animation: phosphor-draw-in 1.5s ease-in-out infinite alternate;
    }
    @keyframes phosphor-draw-in {
      0%   { stroke-dashoffset: 0; }
      100% { stroke-dashoffset: 2000; }
    }
  </style><rect width="256" height="256" fill="none"/><path d="M215.17,127.43,184,72H72L40.83,127.43a8,8,0,0,0,.73,8.29L128,248l86.43-112.28A8,8,0,0,0,215.17,127.43ZM128,152a20,20,0,1,1,20-20A20,20,0,0,1,128,152Z" opacity="0.2"/><circle cx="128" cy="132" r="20" fill="none" stroke="currentColor" stroke-linecap="round" stroke-linejoin="round" stroke-width="16" class="draw-line" pathLength="1" style="animation-delay: 0s"/><line x1="128" y1="152" x2="128" y2="248" fill="none" stroke="currentColor" stroke-linecap="round" stroke-linejoin="round" stroke-width="16" class="draw-line" pathLength="1" style="animation-delay: 0.3s"/><path d="M72,72,40.83,127.43a8,8,0,0,0,.73,8.29L128,248l86.43-112.28a8,8,0,0,0,.73-8.29L184,72Z" fill="none" stroke="currentColor" stroke-linecap="round" stroke-linejoin="round" stroke-width="16" class="draw-line" pathLength="1" style="animation-delay: 0.6s"/><path d="M184,72V32a8,8,0,0,0-8-8H80a8,8,0,0,0-8,8V72" fill="none" stroke="currentColor" stroke-linecap="round" stroke-linejoin="round" stroke-width="16" class="draw-line" pathLength="1" style="animation-delay: 0.9s"/></svg>