<svg xmlns="http://www.w3.org/2000/svg" viewBox="0 0 256 256">
  <style>
    .draw-line {
      stroke-dasharray: 2000;
      stroke-dashoffset: 0;
    }
    svg:hover .draw-line {
      animation: phosphor-draw-in 1.5s ease-in-out infinite alternate;
    }
    @keyframes phosphor-draw-in {
      0%   { stroke-dashoffset: 0; }
      100% { stroke-dashoffset: 2000; }
    }
  </style><rect width="256" height="256" fill="none"/><path d="M128,32a96,96,0,1,0,96,96A96,96,0,0,0,128,32Zm0,152a56,56,0,1,1,56-56A56,56,0,0,1,128,184Z" opacity="0.2"/><circle cx="128" cy="128" r="96" fill="none" stroke="currentColor" stroke-linecap="round" stroke-linejoin="round" stroke-width="16" class="draw-line" pathLength="1" style="animation-delay: 0s"/><circle cx="128" cy="128" r="56" fill="none" stroke="currentColor" stroke-linecap="round" stroke-linejoin="round" stroke-width="16" class="draw-line" pathLength="1" style="animation-delay: 0.3s"/><line x1="128" y1="72" x2="128" y2="32" fill="none" stroke="currentColor" stroke-linecap="round" stroke-linejoin="round" stroke-width="16" class="draw-line" pathLength="1" style="animation-delay: 0.6s"/><line x1="88.4" y1="88.4" x2="60.12" y2="60.12" fill="none" stroke="currentColor" stroke-linecap="round" stroke-linejoin="round" stroke-width="16" class="draw-line" pathLength="1" style="animation-delay: 0.9s"/><line x1="72" y1="128" x2="32" y2="128" fill="none" stroke="currentColor" stroke-linecap="round" stroke-linejoin="round" stroke-width="16" class="draw-line" pathLength="1" style="animation-delay: 1.2s"/><line x1="88.4" y1="167.6" x2="60.12" y2="195.88" fill="none" stroke="currentColor" stroke-linecap="round" stroke-linejoin="round" stroke-width="16" class="draw-line" pathLength="1" style="animation-delay: 1.5s"/><line x1="128" y1="184" x2="128" y2="224" fill="none" stroke="currentColor" stroke-linecap="round" stroke-linejoin="round" stroke-width="16" class="draw-line" pathLength="1" style="animation-delay: 1.8s"/><line x1="167.6" y1="167.6" x2="195.88" y2="195.88" fill="none" stroke="currentColor" stroke-linecap="round" stroke-linejoin="round" stroke-width="16" class="draw-line" pathLength="1" style="animation-delay: 2.1s"/><line x1="184" y1="128" x2="224" y2="128" fill="none" stroke="currentColor" stroke-linecap="round" stroke-linejoin="round" stroke-width="16" class="draw-line" pathLength="1" style="animation-delay: 2.4s"/><line x1="167.6" y1="88.4" x2="195.88" y2="60.12" fill="none" stroke="currentColor" stroke-linecap="round" stroke-linejoin="round" stroke-width="16" class="draw-line" pathLength="1" style="animation-delay: 2.7s"/></svg>