<svg xmlns="http://www.w3.org/2000/svg" viewBox="0 0 256 256">
  <style>
    .draw-line {
      stroke-dasharray: 1;
      stroke-dashoffset: 0;
    }
    svg:hover .draw-line {
      animation: phosphor-draw-in 1.5s ease-in-out forwards;
    }
    @keyframes phosphor-draw-in {
      from { stroke-dashoffset: 1; }
      to { stroke-dashoffset: 0; }
    }
  </style><rect width="256" height="256" fill="none"/><path d="M64,216a8,8,0,0,1-8-8V165.31a28,28,0,1,1,0-50.62V72a8,8,0,0,1,8-8h46.69a28,28,0,1,1,50.61,0H208a8,8,0,0,1,8,8v42.69a28,28,0,1,0,0,50.62V208a8,8,0,0,1-8,8Z" opacity="0.2"/><path d="M64,216a8,8,0,0,1-8-8V165.31a28,28,0,1,1,0-50.62V72a8,8,0,0,1,8-8h46.69a28,28,0,1,1,50.61,0H208a8,8,0,0,1,8,8v42.69a28,28,0,1,0,0,50.62V208a8,8,0,0,1-8,8Z" fill="none" stroke="currentColor" stroke-linecap="round" stroke-linejoin="round" stroke-width="16" class="draw-line" pathLength="1" style="animation-delay: 0s"/></svg>