<svg xmlns="http://www.w3.org/2000/svg" viewBox="0 0 256 256">
  <style>
    .draw-line {
      stroke-dasharray: 1;
      stroke-dashoffset: 1;
      animation: phosphor-draw-in 1.5s ease-in-out forwards;
    }
    @keyframes phosphor-draw-in {
      to { stroke-dashoffset: 0; }
    }
  </style><rect width="256" height="256" fill="none"/><path d="M56,47.88V208.12a8,8,0,0,0,12.19,6.65L196.3,134.65a7.83,7.83,0,0,0,0-13.3L68.19,41.23A8,8,0,0,0,56,47.88Z" opacity="0.2"/><line x1="200" y1="40" x2="200" y2="216" fill="none" stroke="currentColor" stroke-linecap="round" stroke-linejoin="round" stroke-width="16" class="draw-line" pathLength="1" style="animation-delay: 0s"/><path d="M56,47.88V208.12a8,8,0,0,0,12.19,6.65L196.3,134.65a7.83,7.83,0,0,0,0-13.3L68.19,41.23A8,8,0,0,0,56,47.88Z" fill="none" stroke="currentColor" stroke-linecap="round" stroke-linejoin="round" stroke-width="16" class="draw-line" pathLength="1" style="animation-delay: 0.3s"/></svg>