<svg xmlns="http://www.w3.org/2000/svg" viewBox="0 0 256 256">
  <style>
    .draw-line {
      stroke-dasharray: 2000;
      stroke-dashoffset: 0;
    }
    svg:hover .draw-line {
      animation: phosphor-draw-in 1.5s ease-in-out infinite alternate;
    }
    @keyframes phosphor-draw-in {
      0%   { stroke-dashoffset: 0; }
      100% { stroke-dashoffset: 2000; }
    }
  </style><rect width="256" height="256" fill="none"/><path d="M32.15,133.42c-.1-1.8-.15-3.6-.15-5.42A95.61,95.61,0,0,1,53.23,67.78l11.94,40.31Z" opacity="0.2"/><path d="M103.87,220.94a96.12,96.12,0,0,1-56.95-41.52H89.17Z" opacity="0.2"/><path d="M152.13,220.94a96.12,96.12,0,0,0,57-41.52H166.83Z" opacity="0.2"/><path d="M223.85,133.42c.1-1.8.15-3.6.15-5.42a95.61,95.61,0,0,0-21.23-60.22l-11.94,40.31Z" opacity="0.2"/><path d="M91.75,39.08a96.34,96.34,0,0,1,72.5,0L128,64Z" opacity="0.2"/><polygon points="128 88 88 115.5 103.28 160 152.72 160 168 115.5 128 88" opacity="0.2"/><circle cx="128" cy="128" r="96" fill="none" stroke="currentColor" stroke-linecap="round" stroke-linejoin="round" stroke-width="16" class="draw-line" pathLength="1" style="animation-delay: 0s"/><polygon points="128 88 88 115.5 103.28 160 152.72 160 168 115.5 128 88" fill="none" stroke="currentColor" stroke-linecap="round" stroke-linejoin="round" stroke-width="16" class="draw-line" pathLength="1" style="animation-delay: 0.3s"/><line x1="128" y1="64" x2="128" y2="88" fill="none" stroke="currentColor" stroke-linecap="round" stroke-linejoin="round" stroke-width="16" class="draw-line" pathLength="1" style="animation-delay: 0.6s"/><line x1="65.17" y1="108.09" x2="88" y2="115.5" fill="none" stroke="currentColor" stroke-linecap="round" stroke-linejoin="round" stroke-width="16" class="draw-line" pathLength="1" style="animation-delay: 0.9s"/><line x1="89.17" y1="179.42" x2="103.28" y2="160" fill="none" stroke="currentColor" stroke-linecap="round" stroke-linejoin="round" stroke-width="16" class="draw-line" pathLength="1" style="animation-delay: 1.2s"/><line x1="166.83" y1="179.42" x2="152.72" y2="160" fill="none" stroke="currentColor" stroke-linecap="round" stroke-linejoin="round" stroke-width="16" class="draw-line" pathLength="1" style="animation-delay: 1.5s"/><line x1="190.83" y1="108.09" x2="168" y2="115.5" fill="none" stroke="currentColor" stroke-linecap="round" stroke-linejoin="round" stroke-width="16" class="draw-line" pathLength="1" style="animation-delay: 1.8s"/><polyline points="164.25 39.08 128 64 91.75 39.08" fill="none" stroke="currentColor" stroke-linecap="round" stroke-linejoin="round" stroke-width="16" class="draw-line" pathLength="1" style="animation-delay: 2.1s"/><polyline points="223.85 133.42 190.82 108.08 202.77 67.78" fill="none" stroke="currentColor" stroke-linecap="round" stroke-linejoin="round" stroke-width="16" class="draw-line" pathLength="1" style="animation-delay: 2.4s"/><polyline points="53.23 67.78 65.17 108.08 32.15 133.42" fill="none" stroke="currentColor" stroke-linecap="round" stroke-linejoin="round" stroke-width="16" class="draw-line" pathLength="1" style="animation-delay: 2.7s"/><polyline points="152.13 220.94 166.83 179.42 209.08 179.42" fill="none" stroke="currentColor" stroke-linecap="round" stroke-linejoin="round" stroke-width="16" class="draw-line" pathLength="1" style="animation-delay: 3s"/><polyline points="46.92 179.42 89.17 179.42 103.87 220.94" fill="none" stroke="currentColor" stroke-linecap="round" stroke-linejoin="round" stroke-width="16" class="draw-line" pathLength="1" style="animation-delay: 3.3s"/></svg>