<svg xmlns="http://www.w3.org/2000/svg" viewBox="0 0 256 256">
  <style>
    .draw-line {
      stroke-dasharray: 2000;
      stroke-dashoffset: 0;
    }
    svg:hover .draw-line {
      animation: phosphor-draw-in 3s ease-in-out infinite alternate;
    }
    @keyframes phosphor-draw-in {
      0%   { stroke-dashoffset: 2000; }
      50%  { stroke-dashoffset: 0; }
      100% { stroke-dashoffset: 0; }
    }
  </style><rect width="256" height="256" fill="none"/><path d="M128,24S32,72,32,136a48,48,0,0,0,79.55,36.18L96,224h64l-15.55-51.82A48,48,0,0,0,224,136C224,72,128,24,128,24Z" opacity="0.2"/><path d="M128,24S32,72,32,136a48,48,0,0,0,79.55,36.18L96,224h64l-15.55-51.82A48,48,0,0,0,224,136C224,72,128,24,128,24Z" fill="none" stroke="currentColor" stroke-linecap="round" stroke-linejoin="round" stroke-width="16" class="draw-line" pathLength="1" style="animation-delay: 0s"/></svg>