<svg xmlns="http://www.w3.org/2000/svg" viewBox="0 0 256 256">
  <style>
    .draw-line {
      stroke-dasharray: 2000;
      stroke-dashoffset: 0;
    }
    svg:hover .draw-line {
      animation: phosphor-draw-in 3s ease-in-out infinite alternate;
    }
    @keyframes phosphor-draw-in {
      0%   { stroke-dashoffset: 2000; }
      50%  { stroke-dashoffset: 0; }
      100% { stroke-dashoffset: 0; }
    }
  </style><rect width="256" height="256" fill="none"/><path d="M128,189.09l54.72,33.65a8.4,8.4,0,0,0,12.52-9.17l-14.88-62.79,48.7-42A8.46,8.46,0,0,0,224.27,94L160.36,88.8,135.74,29.2a8.36,8.36,0,0,0-15.48,0L95.64,88.8,31.73,94a8.46,8.46,0,0,0-4.79,14.83l48.7,42L60.76,213.57a8.4,8.4,0,0,0,12.52,9.17Z" opacity="0.2"/><path d="M128,189.09l54.72,33.65a8.4,8.4,0,0,0,12.52-9.17l-14.88-62.79,48.7-42A8.46,8.46,0,0,0,224.27,94L160.36,88.8,135.74,29.2a8.36,8.36,0,0,0-15.48,0L95.64,88.8,31.73,94a8.46,8.46,0,0,0-4.79,14.83l48.7,42L60.76,213.57a8.4,8.4,0,0,0,12.52,9.17Z" fill="none" stroke="currentColor" stroke-linecap="round" stroke-linejoin="round" stroke-width="16" class="draw-line" pathLength="1" style="animation-delay: 0s"/></svg>