<svg xmlns="http://www.w3.org/2000/svg" viewBox="0 0 256 256">
  <style>
    .draw-line {
      stroke-dasharray: 1;
      stroke-dashoffset: 0;
    }
    svg:hover .draw-line {
      animation: phosphor-draw-in 1.5s ease-in-out forwards;
    }
    @keyframes phosphor-draw-in {
      from { stroke-dashoffset: 1; }
      to { stroke-dashoffset: 0; }
    }
  </style><rect width="256" height="256" fill="none"/><path d="M194.37,196.44,240,128,194.37,59.56A8,8,0,0,0,187.72,56H40a8,8,0,0,0-8,8V192a8,8,0,0,0,8,8H187.72A8,8,0,0,0,194.37,196.44Z" opacity="0.2"/><path d="M194.37,196.44,240,128,194.37,59.56A8,8,0,0,0,187.72,56H40a8,8,0,0,0-8,8V192a8,8,0,0,0,8,8H187.72A8,8,0,0,0,194.37,196.44Z" fill="none" stroke="currentColor" stroke-linecap="round" stroke-linejoin="round" stroke-width="16" class="draw-line" pathLength="1" style="animation-delay: 0s"/></svg>