<svg xmlns="http://www.w3.org/2000/svg" viewBox="0 0 256 256">
  <style>
    .draw-line {
      stroke-dasharray: 2000;
      stroke-dashoffset: 0;
    }
    svg:hover .draw-line {
      animation: phosphor-draw-in 1.5s ease-in-out infinite;
    }
    @keyframes phosphor-draw-in {
      0%   { stroke-dashoffset: 2000; }
      100% { stroke-dashoffset: 0; }
    }
  </style><rect width="256" height="256" fill="none"/><path d="M80,134.87,223.41,32.09a1,1,0,0,0-.78,0L20,111.38A6.23,6.23,0,0,0,21,123.3l59,11.57" opacity="0.2"/><path d="M124.37,173.78,93.76,205.54A8,8,0,0,1,80,200V134.87Z" opacity="0.2"/><path d="M80,134.87,170.26,214a8,8,0,0,0,13.09-4.21L224,33.22a1,1,0,0,0-1.34-1.15L20,111.38A6.23,6.23,0,0,0,21,123.3Z" fill="none" stroke="currentColor" stroke-linecap="round" stroke-linejoin="round" stroke-width="16" class="draw-line" pathLength="1" style="animation-delay: 0s"/><line x1="80" y1="134.87" x2="223.41" y2="32.09" fill="none" stroke="currentColor" stroke-linecap="round" stroke-linejoin="round" stroke-width="16" class="draw-line" pathLength="1" style="animation-delay: 0.3s"/><path d="M124.37,173.78,93.76,205.54A8,8,0,0,1,80,200V134.87" fill="none" stroke="currentColor" stroke-linecap="round" stroke-linejoin="round" stroke-width="16" class="draw-line" pathLength="1" style="animation-delay: 0.6s"/></svg>