<svg xmlns="http://www.w3.org/2000/svg" viewBox="0 0 256 256">
  <style>
    .draw-line {
      stroke-dasharray: 1;
      stroke-dashoffset: 0;
    }
    svg:hover .draw-line {
      animation: phosphor-draw-in 1.5s ease-in-out forwards;
    }
    @keyframes phosphor-draw-in {
      from { stroke-dashoffset: 1; }
      to { stroke-dashoffset: 0; }
    }
  </style><rect width="256" height="256" fill="none"/><path d="M168,102a95.55,95.55,0,0,0,56,18V80a56,56,0,0,1-56-56H128V156a28,28,0,1,1-40-25.31V88c-31.83,5.67-56,34.54-56,68a68,68,0,0,0,136,0Z" opacity="0.2"/><path d="M168,102a95.55,95.55,0,0,0,56,18V80a56,56,0,0,1-56-56H128V156a28,28,0,1,1-40-25.31V88c-31.83,5.67-56,34.54-56,68a68,68,0,0,0,136,0Z" fill="none" stroke="currentColor" stroke-linecap="round" stroke-linejoin="round" stroke-width="16" class="draw-line" pathLength="1" style="animation-delay: 0s"/></svg>