<svg xmlns="http://www.w3.org/2000/svg" viewBox="0 0 256 256">
  <style>
    .draw-line {
      stroke-dasharray: 2000;
      stroke-dashoffset: 0;
    }
    svg:hover .draw-line {
      animation: phosphor-draw-in 1.5s ease-in-out infinite alternate;
    }
    @keyframes phosphor-draw-in {
      0%   { stroke-dashoffset: 2000; }
      100% { stroke-dashoffset: 0; }
    }
  </style><rect width="256" height="256" fill="none"/><path d="M76.68,160a8,8,0,0,1,5.66,2.34l19.31,19.32a8,8,0,0,0,5.66,2.34h41.37a8,8,0,0,0,5.66-2.34l19.31-19.32a8,8,0,0,1,5.66-2.34H216V48a8,8,0,0,0-8-8H48a8,8,0,0,0-8,8V160Z" opacity="0.2"/><rect x="40" y="40" width="176" height="176" rx="8" fill="none" stroke="currentColor" stroke-linecap="round" stroke-linejoin="round" stroke-width="16" class="draw-line" pathLength="1" style="animation-delay: 0s"/><line x1="128" y1="72" x2="128" y2="152" fill="none" stroke="currentColor" stroke-linecap="round" stroke-linejoin="round" stroke-width="16" class="draw-line" pathLength="1" style="animation-delay: 0.3s"/><path d="M40,160H76.69a8,8,0,0,1,5.65,2.34l19.32,19.32a8,8,0,0,0,5.65,2.34h41.38a8,8,0,0,0,5.65-2.34l19.32-19.32a8,8,0,0,1,5.65-2.34H216" fill="none" stroke="currentColor" stroke-linecap="round" stroke-linejoin="round" stroke-width="16" class="draw-line" pathLength="1" style="animation-delay: 0.6s"/><polyline points="96 104 128 72 160 104" fill="none" stroke="currentColor" stroke-linecap="round" stroke-linejoin="round" stroke-width="16" class="draw-line" pathLength="1" style="animation-delay: 0.9s"/></svg>