<svg xmlns="http://www.w3.org/2000/svg" viewBox="0 0 256 256">
  <style>
    .draw-line {
      stroke-dasharray: 2000;
      stroke-dashoffset: 0;
    }
    svg:hover .draw-line {
      animation: phosphor-draw-in 3s ease-in-out infinite alternate;
    }
    @keyframes phosphor-draw-in {
      0%   { stroke-dashoffset: 2000; }
      50%  { stroke-dashoffset: 0; }
      100% { stroke-dashoffset: 0; }
    }
  </style><rect width="256" height="256" fill="none"/><path d="M128,32A96,96,0,0,0,44.89,176.07h0L32.42,213.46a8,8,0,0,0,10.12,10.12l37.39-12.47h0A96,96,0,1,0,128,32Zm24,152a80,80,0,0,1-80-80,32,32,0,0,1,32-32l16,32-12.32,18.47a48.19,48.19,0,0,0,25.85,25.85L152,136l32,16A32,32,0,0,1,152,184Z" opacity="0.2"/><path d="M72,104a32,32,0,0,1,32-32l16,32-12.32,18.47a48.19,48.19,0,0,0,25.85,25.85L152,136l32,16a32,32,0,0,1-32,32A80,80,0,0,1,72,104Z" fill="none" stroke="currentColor" stroke-linecap="round" stroke-linejoin="round" stroke-width="16" class="draw-line" pathLength="1" style="animation-delay: 0s"/><path d="M79.93,211.11a96,96,0,1,0-35-35h0L32.42,213.46a8,8,0,0,0,10.12,10.12l37.39-12.47Z" fill="none" stroke="currentColor" stroke-linecap="round" stroke-linejoin="round" stroke-width="16" class="draw-line" pathLength="1" style="animation-delay: 0.3s"/></svg>