<svg xmlns="http://www.w3.org/2000/svg" viewBox="0 0 256 256">
  <style>
    .draw-line {
      stroke-dasharray: 2000;
      stroke-dashoffset: 0;
    }
    svg:hover .draw-line {
      animation: phosphor-draw-in 1.5s ease-in-out infinite alternate;
    }
    @keyframes phosphor-draw-in {
      0%   { stroke-dashoffset: 0; }
      100% { stroke-dashoffset: 2000; }
    }
  </style><rect width="256" height="256" fill="none"/><path d="M104,126.94a64,64,0,0,1,80-90.29L144,80l5.66,26.34L176,112l43.35-40a64,64,0,0,1-90.29,80L73,217A24,24,0,0,1,39,183Z" opacity="0.2"/><path d="M104,126.94a64,64,0,0,1,80-90.29L144,80l5.66,26.34L176,112l43.35-40a64,64,0,0,1-90.29,80L73,217A24,24,0,0,1,39,183Z" fill="none" stroke="currentColor" stroke-linecap="round" stroke-linejoin="round" stroke-width="16" class="draw-line" pathLength="1" style="animation-delay: 0s"/></svg>