<svg xmlns="http://www.w3.org/2000/svg" viewBox="0 0 256 256">
  <style>
    .draw-line {
      stroke-dasharray: 2000;
      stroke-dashoffset: 0;
    }
    svg:hover .draw-line {
      animation: phosphor-draw-in 1.5s ease-in-out infinite alternate;
    }
    @keyframes phosphor-draw-in {
      0%   { stroke-dashoffset: 2000; }
      100% { stroke-dashoffset: 0; }
    }
  </style><rect width="256" height="256" fill="none"/><path d="M176,176a48,48,0,1,1,25.85-88.64A4,4,0,0,0,208,84V48a8,8,0,0,0-8-8H56a8,8,0,0,0-8,8V208a8,8,0,0,0,8,8H200a8,8,0,0,0,8-8V172a4,4,0,0,0-6.12-3.38C193.9,173.74,186.27,176.41,176,176Z" fill="none" stroke="currentColor" stroke-linecap="round" stroke-linejoin="round" stroke-width="24" class="draw-line" pathLength="1" style="animation-delay: 0s"/></svg>