<svg xmlns="http://www.w3.org/2000/svg" viewBox="0 0 256 256">
  <style>
    .draw-line {
      stroke-dasharray: 1;
      stroke-dashoffset: 0;
    }
    svg:hover .draw-line {
      animation: phosphor-draw-in 1.5s ease-in-out infinite;
    }
    @keyframes phosphor-draw-in {
      0%   { stroke-dashoffset: 1; }
      100% { stroke-dashoffset: 0; }
    }
  </style><rect width="256" height="256" fill="none"/><line x1="92" y1="100" x2="164" y2="100" fill="none" stroke="currentColor" stroke-linecap="round" stroke-linejoin="round" stroke-width="24" class="draw-line" pathLength="1" style="animation-delay: 0s"/><line x1="92" y1="140" x2="164" y2="140" fill="none" stroke="currentColor" stroke-linecap="round" stroke-linejoin="round" stroke-width="24" class="draw-line" pathLength="1" style="animation-delay: 0.3s"/><path d="M209.41,152H220a24,24,0,0,0,24-24V104a24,24,0,0,0-24-24h-8" fill="none" stroke="currentColor" stroke-linecap="round" stroke-linejoin="round" stroke-width="24" class="draw-line" pathLength="1" style="animation-delay: 0.6s"/><path d="M46.59,152H36a24,24,0,0,1-24-24V104A24,24,0,0,1,36,80h8" fill="none" stroke="currentColor" stroke-linecap="round" stroke-linejoin="round" stroke-width="24" class="draw-line" pathLength="1" style="animation-delay: 0.9s"/><path d="M48,76.8a8,8,0,0,1,5-7.43l72-28.8a8,8,0,0,1,5.94,0l72,28.8a8,8,0,0,1,5,7.43V136c0,56-80,72-80,72s-80-16-80-72Z" fill="none" stroke="currentColor" stroke-linecap="round" stroke-linejoin="round" stroke-width="24" class="draw-line" pathLength="1" style="animation-delay: 1.2s"/></svg>