<svg xmlns="http://www.w3.org/2000/svg" viewBox="0 0 256 256">
  <style>
    .draw-line {
      stroke-dasharray: 1;
      stroke-dashoffset: 0;
    }
    svg:hover .draw-line {
      animation: phosphor-draw-in 1.5s ease-in-out infinite;
    }
    @keyframes phosphor-draw-in {
      0%   { stroke-dashoffset: 1; }
      100% { stroke-dashoffset: 0; }
    }
  </style><rect width="256" height="256" fill="none"/><path d="M191.5,118.63l-40-32A12,12,0,0,0,132,96v64a12,12,0,0,0,19.5,9.37l40-32a12,12,0,0,0,0-18.74Z"/><path d="M135.5,118.63l-40-32A12,12,0,0,0,76,96v64a12,12,0,0,0,19.5,9.37l40-32a12,12,0,0,0,0-18.74Z"/><circle cx="128" cy="128" r="96" fill="none" stroke="currentColor" stroke-linecap="round" stroke-linejoin="round" stroke-width="24" class="draw-line" pathLength="1" style="animation-delay: 0s"/></svg>