<svg xmlns="http://www.w3.org/2000/svg" viewBox="0 0 256 256">
  <style>
    .draw-line {
      stroke-dasharray: 1;
      stroke-dashoffset: 0;
    }
    svg:hover .draw-line {
      animation: phosphor-draw-in 1.5s ease-in-out forwards;
    }
    @keyframes phosphor-draw-in {
      from { stroke-dashoffset: 1; }
      to { stroke-dashoffset: 0; }
    }
  </style><rect width="256" height="256" fill="none"/><path d="M159.73,92A48,48,0,0,0,80,128a143.41,143.41,0,0,1-18,69.73" fill="none" stroke="currentColor" stroke-linecap="round" stroke-linejoin="round" stroke-width="24" class="draw-line" pathLength="1" style="animation-delay: 0s"/><path d="M176,132a239.17,239.17,0,0,1-17.91,87.21" fill="none" stroke="currentColor" stroke-linecap="round" stroke-linejoin="round" stroke-width="24" class="draw-line" pathLength="1" style="animation-delay: 0.3s"/><path d="M108.68,212q-2.22,4.56-4.68,9" fill="none" stroke="currentColor" stroke-linecap="round" stroke-linejoin="round" stroke-width="24" class="draw-line" pathLength="1" style="animation-delay: 0.6s"/><path d="M128,128a192.72,192.72,0,0,1-5.07,44" fill="none" stroke="currentColor" stroke-linecap="round" stroke-linejoin="round" stroke-width="24" class="draw-line" pathLength="1" style="animation-delay: 0.9s"/><path d="M100,36.15A96.07,96.07,0,0,1,224,128a288.93,288.93,0,0,1-7.14,64" fill="none" stroke="currentColor" stroke-linecap="round" stroke-linejoin="round" stroke-width="24" class="draw-line" pathLength="1" style="animation-delay: 1.2s"/><path d="M23.28,168A95.66,95.66,0,0,0,32,128,95.71,95.71,0,0,1,60,60.23" fill="none" stroke="currentColor" stroke-linecap="round" stroke-linejoin="round" stroke-width="24" class="draw-line" pathLength="1" style="animation-delay: 1.5s"/></svg>