<svg xmlns="http://www.w3.org/2000/svg" viewBox="0 0 256 256">
  <style>
    .draw-line {
      stroke-dasharray: 2000;
      stroke-dashoffset: 0;
    }
    svg:hover .draw-line {
      animation: phosphor-draw-in 3s ease-in-out infinite alternate;
    }
    @keyframes phosphor-draw-in {
      0%   { stroke-dashoffset: 2000; }
      50%  { stroke-dashoffset: 0; }
      100% { stroke-dashoffset: 0; }
    }
  </style><rect width="256" height="256" fill="none"/><path d="M98.39,46.69,128,80H32V52a8,8,0,0,1,8-8H92.41A8,8,0,0,1,98.39,46.69Z" fill="none" stroke="currentColor" stroke-linecap="round" stroke-linejoin="round" stroke-width="24" class="draw-line"/><path d="M112.56,208H39.38A7.4,7.4,0,0,1,32,200.62V80H216a8,8,0,0,1,8,8v24" fill="none" stroke="currentColor" stroke-linecap="round" stroke-linejoin="round" stroke-width="24" class="draw-line"/><polygon points="184 198.54 213.67 216 205.6 183.41 232 161.61 197.35 158.94 184 128 170.65 158.94 136 161.61 162.4 183.41 154.33 216 184 198.54" fill="none" stroke="currentColor" stroke-linecap="round" stroke-linejoin="round" stroke-width="24" class="draw-line"/></svg>