<svg xmlns="http://www.w3.org/2000/svg" viewBox="0 0 256 256">
  <style>
    .draw-line {
      stroke-dasharray: 2000;
      stroke-dashoffset: 0;
    }
    svg:hover .draw-line {
      animation: phosphor-draw-in 3s ease-in-out infinite alternate;
    }
    @keyframes phosphor-draw-in {
      0%   { stroke-dashoffset: 2000; }
      50%  { stroke-dashoffset: 0; }
      100% { stroke-dashoffset: 0; }
    }
  </style><rect width="256" height="256" fill="none"/><path d="M116,200a8,8,0,0,0,7.81-9.74l-15.62-52.52A8,8,0,0,1,116,128H216v-4a92,92,0,0,0-93.31-92C72.65,32.71,32,73.92,32,124a91.91,91.91,0,0,0,40.14,76Z" fill="none" stroke="currentColor" stroke-linecap="round" stroke-linejoin="round" stroke-width="24" class="draw-line" pathLength="1" style="animation-delay: 0s"/><path d="M148,128l24.31,82.27A8,8,0,0,0,180,216h36a8,8,0,0,0,8-8V176a8,8,0,0,0-8-8H117.19" fill="none" stroke="currentColor" stroke-linecap="round" stroke-linejoin="round" stroke-width="24" class="draw-line" pathLength="1" style="animation-delay: 0.3s"/></svg>