<svg xmlns="http://www.w3.org/2000/svg" viewBox="0 0 256 256">
  <style>
    .draw-line {
      stroke-dasharray: 1;
      stroke-dashoffset: 0;
    }
    svg:hover .draw-line {
      animation: phosphor-draw-in 1.5s ease-in-out forwards;
    }
    @keyframes phosphor-draw-in {
      from { stroke-dashoffset: 1; }
      to { stroke-dashoffset: 0; }
    }
  </style><rect width="256" height="256" fill="none"/><path d="M128,128,67.2,82.4A8,8,0,0,1,64,76V40a8,8,0,0,1,8-8H184a8,8,0,0,1,8,8V75.64A8,8,0,0,1,188.82,82L128,128h0" fill="none" stroke="currentColor" stroke-linecap="round" stroke-linejoin="round" stroke-width="24" class="draw-line" pathLength="1" style="animation-delay: 0s"/><path d="M128,128,67.2,173.6A8,8,0,0,0,64,180v36a8,8,0,0,0,8,8H184a8,8,0,0,0,8-8V180.36a8,8,0,0,0-3.18-6.38L128,128h0" fill="none" stroke="currentColor" stroke-linecap="round" stroke-linejoin="round" stroke-width="24" class="draw-line" pathLength="1" style="animation-delay: 0.3s"/></svg>