<svg xmlns="http://www.w3.org/2000/svg" viewBox="0 0 256 256">
  <style>
    .draw-line {
      stroke-dasharray: 2000;
      stroke-dashoffset: 0;
    }
    svg:hover .draw-line {
      animation: phosphor-draw-in 1.5s ease-in-out infinite;
    }
    @keyframes phosphor-draw-in {
      0%   { stroke-dashoffset: 2000; }
      100% { stroke-dashoffset: 0; }
    }
  </style><rect width="256" height="256" fill="none"/><path d="M108.71,197.23l-5.11,5.11a46.63,46.63,0,0,1-66-.05h0a46.63,46.63,0,0,1,.06-65.89L72.4,101.66a46.62,46.62,0,0,1,65.94,0h0A46.34,46.34,0,0,1,150.78,124" fill="none" stroke="currentColor" stroke-linecap="round" stroke-linejoin="round" stroke-width="24" class="draw-line" pathLength="1" style="animation-delay: 0s"/><path d="M147.29,58.77l5.11-5.11a46.62,46.62,0,0,1,65.94,0h0a46.62,46.62,0,0,1,0,65.94L193.94,144,183.6,154.34a46.63,46.63,0,0,1-66-.05h0A46.46,46.46,0,0,1,105.22,132" fill="none" stroke="currentColor" stroke-linecap="round" stroke-linejoin="round" stroke-width="24" class="draw-line" pathLength="1" style="animation-delay: 0.3s"/></svg>