<svg xmlns="http://www.w3.org/2000/svg" viewBox="0 0 256 256">
  <style>
    .draw-line {
      stroke-dasharray: 2000;
      stroke-dashoffset: 0;
    }
    svg:hover .draw-line {
      animation: phosphor-draw-in 3s ease-in-out infinite alternate;
    }
    @keyframes phosphor-draw-in {
      0%   { stroke-dashoffset: 2000; }
      50%  { stroke-dashoffset: 0; }
      100% { stroke-dashoffset: 0; }
    }
  </style><rect width="256" height="256" fill="none"/><path d="M16,64a8,8,0,0,1,10.05-7.74C43.35,60.89,81.44,72,128,72S212.65,60.89,230,56.27A8,8,0,0,1,240,64V192a8,8,0,0,1-10.06,7.73C212.63,195.08,174.55,184,128,184S43.37,195.08,26.06,199.72A8,8,0,0,1,16,192Z" fill="none" stroke="currentColor" stroke-linecap="round" stroke-linejoin="round" stroke-width="24" class="draw-line" pathLength="1" style="animation-delay: 0s"/><circle cx="200" cy="108" r="16"/><path d="M16,164.69l54.34-54.35a8,8,0,0,1,11.32,0l75,75" fill="none" stroke="currentColor" stroke-linecap="round" stroke-linejoin="round" stroke-width="24" class="draw-line" pathLength="1" style="animation-delay: 0.3s"/><path d="M131.31,160,157,134.34a8,8,0,0,1,11.31,0l65.47,65.47" fill="none" stroke="currentColor" stroke-linecap="round" stroke-linejoin="round" stroke-width="24" class="draw-line" pathLength="1" style="animation-delay: 0.6s"/></svg>