<svg xmlns="http://www.w3.org/2000/svg" viewBox="0 0 256 256">
  <style>
    .draw-line {
      stroke-dasharray: 2000;
      stroke-dashoffset: 0;
    }
    svg:hover .draw-line {
      animation: phosphor-draw-in 3s ease-in-out infinite alternate;
    }
    @keyframes phosphor-draw-in {
      0%   { stroke-dashoffset: 2000; }
      50%  { stroke-dashoffset: 0; }
      100% { stroke-dashoffset: 0; }
    }
  </style><rect width="256" height="256" fill="none"/><path d="M80,56h24a0,0,0,0,1,0,0v72a24,24,0,0,1-24,24h0a24,24,0,0,1-24-24V80A24,24,0,0,1,80,56Z" transform="translate(184 24) rotate(90)" fill="none" stroke="currentColor" stroke-linecap="round" stroke-linejoin="round" stroke-width="24" class="draw-line"/><path d="M128,80H104A24,24,0,0,1,80,56h0a24,24,0,0,1,24-24h0a24,24,0,0,1,24,24Z" fill="none" stroke="currentColor" stroke-linecap="round" stroke-linejoin="round" stroke-width="24" class="draw-line"/><path d="M152,32h24a0,0,0,0,1,0,0v72a24,24,0,0,1-24,24h0a24,24,0,0,1-24-24V56a24,24,0,0,1,24-24Z" transform="translate(304 160) rotate(-180)" fill="none" stroke="currentColor" stroke-linecap="round" stroke-linejoin="round" stroke-width="24" class="draw-line"/><path d="M176,128V104a24,24,0,0,1,24-24h0a24,24,0,0,1,24,24h0a24,24,0,0,1-24,24Z" fill="none" stroke="currentColor" stroke-linecap="round" stroke-linejoin="round" stroke-width="24" class="draw-line"/><path d="M176,104h24a0,0,0,0,1,0,0v72a24,24,0,0,1-24,24h0a24,24,0,0,1-24-24V128a24,24,0,0,1,24-24Z" transform="translate(24 328) rotate(-90)" fill="none" stroke="currentColor" stroke-linecap="round" stroke-linejoin="round" stroke-width="24" class="draw-line"/><path d="M128,176h24a24,24,0,0,1,24,24h0a24,24,0,0,1-24,24h0a24,24,0,0,1-24-24Z" fill="none" stroke="currentColor" stroke-linecap="round" stroke-linejoin="round" stroke-width="24" class="draw-line"/><path d="M104,128h24a0,0,0,0,1,0,0v72a24,24,0,0,1-24,24h0a24,24,0,0,1-24-24V152A24,24,0,0,1,104,128Z" fill="none" stroke="currentColor" stroke-linecap="round" stroke-linejoin="round" stroke-width="24" class="draw-line"/><path d="M80,128v24a24,24,0,0,1-24,24h0a24,24,0,0,1-24-24h0a24,24,0,0,1,24-24Z" fill="none" stroke="currentColor" stroke-linecap="round" stroke-linejoin="round" stroke-width="24" class="draw-line"/></svg>