<svg xmlns="http://www.w3.org/2000/svg" viewBox="0 0 256 256">
  <style>
    .draw-line {
      stroke-dasharray: 2000;
      stroke-dashoffset: 0;
    }
    svg:hover .draw-line {
      animation: phosphor-draw-in 1.5s ease-in-out infinite alternate;
    }
    @keyframes phosphor-draw-in {
      0%   { stroke-dashoffset: 0; }
      100% { stroke-dashoffset: 2000; }
    }
  </style><rect width="256" height="256" fill="none"/><line x1="88" y1="52" x2="168" y2="52" fill="none" stroke="currentColor" stroke-linecap="round" stroke-linejoin="round" stroke-width="24" class="draw-line" pathLength="1" style="animation-delay: 0s"/><line x1="88" y1="88" x2="168" y2="88" fill="none" stroke="currentColor" stroke-linecap="round" stroke-linejoin="round" stroke-width="24" class="draw-line" pathLength="1" style="animation-delay: 0.3s"/><line x1="88" y1="124" x2="168" y2="124" fill="none" stroke="currentColor" stroke-linecap="round" stroke-linejoin="round" stroke-width="24" class="draw-line" pathLength="1" style="animation-delay: 0.6s"/><line x1="88" y1="32" x2="88" y2="137.39" fill="none" stroke="currentColor" stroke-linecap="round" stroke-linejoin="round" stroke-width="24" class="draw-line" pathLength="1" style="animation-delay: 0.9s"/><line x1="168" y1="32" x2="168" y2="139.29" fill="none" stroke="currentColor" stroke-linecap="round" stroke-linejoin="round" stroke-width="24" class="draw-line" pathLength="1" style="animation-delay: 1.2s"/><path d="M32,164c24,0,24,16,48,16s24-16,48-16,24,16,48,16,24-16,48-16" fill="none" stroke="currentColor" stroke-linecap="round" stroke-linejoin="round" stroke-width="24" class="draw-line" pathLength="1" style="animation-delay: 1.5s"/><path d="M32,208c24,0,24,16,48,16s24-16,48-16,24,16,48,16,24-16,48-16" fill="none" stroke="currentColor" stroke-linecap="round" stroke-linejoin="round" stroke-width="24" class="draw-line" pathLength="1" style="animation-delay: 1.8s"/></svg>