<svg xmlns="http://www.w3.org/2000/svg" viewBox="0 0 256 256">
  <style>
    .draw-line {
      stroke-dasharray: 2000;
      stroke-dashoffset: 0;
    }
    svg:hover .draw-line {
      animation: phosphor-draw-in 1.5s ease-in-out infinite alternate;
    }
    @keyframes phosphor-draw-in {
      0%   { stroke-dashoffset: 0; }
      100% { stroke-dashoffset: 2000; }
    }
  </style><rect width="256" height="256" fill="none"/><path d="M56.32,199.68a28,28,0,1,1,10.51-51.42,8,8,0,0,0,10-1.07l70.38-70.38a8,8,0,0,0,1.07-10,28,28,0,1,1,51.42-10.51,28,28,0,1,1-10.51,51.42,8,8,0,0,0-10,1.07l-70.38,70.38a8,8,0,0,0-1.07,10,28,28,0,1,1-51.42,10.51Z" fill="none" stroke="currentColor" stroke-linecap="round" stroke-linejoin="round" stroke-width="12" class="draw-line" pathLength="1" style="animation-delay: 0s"/></svg>