<svg xmlns="http://www.w3.org/2000/svg" viewBox="0 0 256 256">
  <style>
    .draw-line {
      stroke-dasharray: 2000;
      stroke-dashoffset: 0;
    }
    svg:hover .draw-line {
      animation: phosphor-draw-in 1.5s ease-in-out infinite alternate;
    }
    @keyframes phosphor-draw-in {
      0%   { stroke-dashoffset: 2000; }
      100% { stroke-dashoffset: 0; }
    }
  </style><rect width="256" height="256" fill="none"/><path d="M88,207.3A96,96,0,0,1,32,120H224a96,96,0,0,1-56,87.3V216a8,8,0,0,1-8,8H96a8,8,0,0,1-8-8Z" fill="none" stroke="currentColor" stroke-linecap="round" stroke-linejoin="round" stroke-width="12" class="draw-line" pathLength="1" style="animation-delay: 0s"/><path d="M168,88s-18-5.6,0-28,0-28,0-28" fill="none" stroke="currentColor" stroke-linecap="round" stroke-linejoin="round" stroke-width="12" class="draw-line" pathLength="1" style="animation-delay: 0.3s"/><path d="M128,88s-18-5.6,0-28,0-28,0-28" fill="none" stroke="currentColor" stroke-linecap="round" stroke-linejoin="round" stroke-width="12" class="draw-line" pathLength="1" style="animation-delay: 0.6s"/><path d="M88,88s-18-5.6,0-28,0-28,0-28" fill="none" stroke="currentColor" stroke-linecap="round" stroke-linejoin="round" stroke-width="12" class="draw-line" pathLength="1" style="animation-delay: 0.9s"/></svg>