<svg xmlns="http://www.w3.org/2000/svg" viewBox="0 0 256 256">
  <style>
    .draw-line {
      stroke-dasharray: 2000;
      stroke-dashoffset: 0;
    }
    svg:hover .draw-line {
      animation: phosphor-draw-in 1.5s ease-in-out infinite;
    }
    @keyframes phosphor-draw-in {
      0%   { stroke-dashoffset: 2000; }
      100% { stroke-dashoffset: 0; }
    }
  </style><rect width="256" height="256" fill="none"/><line x1="232" y1="160" x2="24" y2="160" fill="none" stroke="currentColor" stroke-linecap="round" stroke-linejoin="round" stroke-width="12" class="draw-line" pathLength="1" style="animation-delay: 0s"/><path d="M24,160,46.49,70.06A8,8,0,0,1,54.25,64h147.5a8,8,0,0,1,7.76,6.06L232,160v32a8,8,0,0,1-8,8H32a8,8,0,0,1-8-8Z" fill="none" stroke="currentColor" stroke-linecap="round" stroke-linejoin="round" stroke-width="12" class="draw-line" pathLength="1" style="animation-delay: 0.3s"/><line x1="72" y1="96" x2="88" y2="96" fill="none" stroke="currentColor" stroke-linecap="round" stroke-linejoin="round" stroke-width="12" class="draw-line" pathLength="1" style="animation-delay: 0.6s"/><line x1="120" y1="96" x2="136" y2="96" fill="none" stroke="currentColor" stroke-linecap="round" stroke-linejoin="round" stroke-width="12" class="draw-line" pathLength="1" style="animation-delay: 0.9s"/><line x1="168" y1="96" x2="184" y2="96" fill="none" stroke="currentColor" stroke-linecap="round" stroke-linejoin="round" stroke-width="12" class="draw-line" pathLength="1" style="animation-delay: 1.2s"/><line x1="72" y1="128" x2="88" y2="128" fill="none" stroke="currentColor" stroke-linecap="round" stroke-linejoin="round" stroke-width="12" class="draw-line" pathLength="1" style="animation-delay: 1.5s"/><line x1="120" y1="128" x2="136" y2="128" fill="none" stroke="currentColor" stroke-linecap="round" stroke-linejoin="round" stroke-width="12" class="draw-line" pathLength="1" style="animation-delay: 1.8s"/><line x1="168" y1="128" x2="184" y2="128" fill="none" stroke="currentColor" stroke-linecap="round" stroke-linejoin="round" stroke-width="12" class="draw-line" pathLength="1" style="animation-delay: 2.1s"/><path d="M72,64V40a8,8,0,0,1,8-8h40a8,8,0,0,1,8,8V64" fill="none" stroke="currentColor" stroke-linecap="round" stroke-linejoin="round" stroke-width="12" class="draw-line" pathLength="1" style="animation-delay: 2.4s"/></svg>