<svg xmlns="http://www.w3.org/2000/svg" viewBox="0 0 256 256">
  <style>
    .draw-line {
      stroke-dasharray: 2000;
      stroke-dashoffset: 0;
    }
    svg:hover .draw-line {
      animation: phosphor-draw-in 3s ease-in-out infinite alternate;
    }
    @keyframes phosphor-draw-in {
      0%   { stroke-dashoffset: 2000; }
      50%  { stroke-dashoffset: 0; }
      100% { stroke-dashoffset: 0; }
    }
  </style><rect width="256" height="256" fill="none"/><path d="M112,24h32a8,8,0,0,1,8,8V80h48a8,8,0,0,1,8,8v32a8,8,0,0,1-8,8H152v96a8,8,0,0,1-8,8H112a8,8,0,0,1-8-8V128H56a8,8,0,0,1-8-8V88a8,8,0,0,1,8-8h48V32A8,8,0,0,1,112,24Z" fill="none" stroke="currentColor" stroke-linecap="round" stroke-linejoin="round" stroke-width="12" class="draw-line" pathLength="1" style="animation-delay: 0s"/></svg>