<svg xmlns="http://www.w3.org/2000/svg" viewBox="0 0 256 256">
  <style>
    .draw-line {
      stroke-dasharray: 1;
      stroke-dashoffset: 0;
    }
    svg:hover .draw-line {
      animation: phosphor-draw-in 1.5s ease-in-out forwards;
    }
    @keyframes phosphor-draw-in {
      from { stroke-dashoffset: 1; }
      to { stroke-dashoffset: 0; }
    }
  </style><rect width="256" height="256" fill="none"/><polyline points="32.7 76.92 128 129.08 223.3 76.92" fill="none" stroke="currentColor" stroke-linecap="round" stroke-linejoin="round" stroke-width="12" class="draw-line" pathLength="1" style="animation-delay: 0s"/><path d="M131.84,25l88,48.18a8,8,0,0,1,4.16,7v95.64a8,8,0,0,1-4.16,7l-88,48.18a8,8,0,0,1-7.68,0l-88-48.18a8,8,0,0,1-4.16-7V80.18a8,8,0,0,1,4.16-7l88-48.18A8,8,0,0,1,131.84,25Z" fill="none" stroke="currentColor" stroke-linecap="round" stroke-linejoin="round" stroke-width="12" class="draw-line" pathLength="1" style="animation-delay: 0.3s"/><line x1="128" y1="129.09" x2="128" y2="232" fill="none" stroke="currentColor" stroke-linecap="round" stroke-linejoin="round" stroke-width="12" class="draw-line" pathLength="1" style="animation-delay: 0.6s"/></svg>