<svg xmlns="http://www.w3.org/2000/svg" viewBox="0 0 256 256">
  <style>
    .draw-line {
      stroke-dasharray: 2000;
      stroke-dashoffset: 0;
    }
    svg:hover .draw-line {
      animation: phosphor-draw-in 1.5s ease-in-out infinite;
    }
    @keyframes phosphor-draw-in {
      0%   { stroke-dashoffset: 2000; }
      100% { stroke-dashoffset: 0; }
    }
  </style><rect width="256" height="256" fill="none"/><line x1="144" y1="224" x2="112" y2="224" fill="none" stroke="currentColor" stroke-linecap="round" stroke-linejoin="round" stroke-width="12" class="draw-line" pathLength="1" style="animation-delay: 0s"/><circle cx="128" cy="100" r="10"/><path d="M94.81,192C37.52,95.32,103.87,32.53,123.09,17.68a8,8,0,0,1,9.82,0C152.13,32.53,218.48,95.32,161.19,192Z" fill="none" stroke="currentColor" stroke-linecap="round" stroke-linejoin="round" stroke-width="12" class="draw-line" pathLength="1" style="animation-delay: 0.3s"/><path d="M183.84,110.88l30.31,36.36a8,8,0,0,1,1.66,6.86l-12.36,55.63a8,8,0,0,1-12.81,4.51L161.19,192" fill="none" stroke="currentColor" stroke-linecap="round" stroke-linejoin="round" stroke-width="12" class="draw-line" pathLength="1" style="animation-delay: 0.6s"/><path d="M72.16,110.88,41.85,147.24a8,8,0,0,0-1.66,6.86l12.36,55.63a8,8,0,0,0,12.81,4.51L94.81,192" fill="none" stroke="currentColor" stroke-linecap="round" stroke-linejoin="round" stroke-width="12" class="draw-line" pathLength="1" style="animation-delay: 0.9s"/></svg>