<svg xmlns="http://www.w3.org/2000/svg" viewBox="0 0 256 256">
  <style>
    .draw-line {
      stroke-dasharray: 2000;
      stroke-dashoffset: 0;
    }
    svg:hover .draw-line {
      animation: phosphor-draw-in 3s ease-in-out infinite alternate;
    }
    @keyframes phosphor-draw-in {
      0%   { stroke-dashoffset: 2000; }
      50%  { stroke-dashoffset: 0; }
      100% { stroke-dashoffset: 0; }
    }
  </style><rect width="256" height="256" fill="none"/><path d="M72,72H200a48,48,0,0,0-48-48H80a8,8,0,0,0-8,8V80a32,32,0,0,1-32,32" fill="none" stroke="currentColor" stroke-linecap="round" stroke-linejoin="round" stroke-width="12" class="draw-line"/><path d="M160,72h0a263.14,263.14,0,0,1,40,139.47V224a8,8,0,0,1-8,8H88a8,8,0,0,1-8-8V167.38a32,32,0,0,1,12-25l16-12.78a32,32,0,0,0,12-25V72" fill="none" stroke="currentColor" stroke-linecap="round" stroke-linejoin="round" stroke-width="12" class="draw-line"/></svg>