<svg xmlns="http://www.w3.org/2000/svg" viewBox="0 0 256 256">
  <style>
    .draw-line {
      stroke-dasharray: 1;
      stroke-dashoffset: 1;
      animation: phosphor-draw-in 1.5s ease-in-out forwards;
    }
    @keyframes phosphor-draw-in {
      to { stroke-dashoffset: 0; }
    }
  </style><rect width="256" height="256" fill="none"/><path d="M232,152v40a16,16,0,0,1-16,16H80a16,16,0,0,1-16-16V152a16,16,0,0,1,16-16H216A16,16,0,0,1,232,152ZM40,32a8,8,0,0,0-8,8V216a8,8,0,0,0,16,0V40A8,8,0,0,0,40,32Zm40,88h96a16,16,0,0,0,16-16V64a16,16,0,0,0-16-16H80A16,16,0,0,0,64,64v40A16,16,0,0,0,80,120Z"/></svg>