<svg xmlns="http://www.w3.org/2000/svg" viewBox="0 0 256 256">
  <style>
    .draw-line {
      stroke-dasharray: 2000;
      stroke-dashoffset: 0;
    }
    svg:hover .draw-line {
      animation: phosphor-draw-in 1.5s ease-in-out infinite alternate;
    }
    @keyframes phosphor-draw-in {
      0%   { stroke-dashoffset: 2000; }
      100% { stroke-dashoffset: 0; }
    }
  </style><rect width="256" height="256" fill="none"/><path d="M216,128a8,8,0,0,1-8,8H176v72a16,16,0,0,1-16,16H96a16,16,0,0,1-16-16V136H48a8,8,0,0,1,0-16H80V48A16,16,0,0,1,96,32h64a16,16,0,0,1,16,16v72h32A8,8,0,0,1,216,128Z"/></svg>