<svg xmlns="http://www.w3.org/2000/svg" viewBox="0 0 256 256">
  <style>
    .draw-line {
      stroke-dasharray: 2000;
      stroke-dashoffset: 0;
    }
    svg:hover .draw-line {
      animation: phosphor-draw-in 1.5s ease-in-out infinite alternate;
    }
    @keyframes phosphor-draw-in {
      0%   { stroke-dashoffset: 0; }
      100% { stroke-dashoffset: 2000; }
    }
  </style><rect width="256" height="256" fill="none"/><path d="M128,104.47,141.07,128H114.93ZM231.93,73.06l-16,120a8,8,0,0,1-4.35,6.1l-80,40a8,8,0,0,1-7.16,0l-80-40a8,8,0,0,1-4.35-6.1l-16-120a8,8,0,0,1,4.85-8.44l96-40a7.93,7.93,0,0,1,6.16,0l96,40A8,8,0,0,1,231.93,73.06ZM175,156.12l-40-72a8,8,0,0,0-14,0l-40,72a8,8,0,1,0,14,7.76L106,144H150l11,19.88a8,8,0,1,0,14-7.76Z"/></svg>