<svg xmlns="http://www.w3.org/2000/svg" viewBox="0 0 256 256">
  <style>
    .draw-line {
      stroke-dasharray: 2000;
      stroke-dashoffset: 0;
    }
    svg:hover .draw-line {
      animation: phosphor-draw-in 1.5s ease-in-out infinite alternate;
    }
    @keyframes phosphor-draw-in {
      0%   { stroke-dashoffset: 2000; }
      100% { stroke-dashoffset: 0; }
    }
  </style><rect width="256" height="256" fill="none"/><path d="M207.39,83.06A8,8,0,0,1,200,88H160v40A104.11,104.11,0,0,1,56,232a8,8,0,0,1,0-16,88.1,88.1,0,0,0,88-88V88H104a8,8,0,0,1-5.66-13.66l48-48a8,8,0,0,1,11.32,0l48,48A8,8,0,0,1,207.39,83.06Z"/></svg>