<svg xmlns="http://www.w3.org/2000/svg" viewBox="0 0 256 256">
  <style>
    .draw-line {
      stroke-dasharray: 1;
      stroke-dashoffset: 0;
    }
    svg:hover .draw-line {
      animation: phosphor-draw-in 1.5s ease-in-out forwards;
    }
    @keyframes phosphor-draw-in {
      from { stroke-dashoffset: 1; }
      to { stroke-dashoffset: 0; }
    }
  </style><rect width="256" height="256" fill="none"/><path d="M213.66,181.66l-32,32A8,8,0,0,1,168,208V184H48a8,8,0,0,1,0-16H168V144a8,8,0,0,1,13.66-5.66l32,32A8,8,0,0,1,213.66,181.66Zm-139.32-64A8,8,0,0,0,88,112V88H208a8,8,0,0,0,0-16H88V48a8,8,0,0,0-13.66-5.66l-32,32a8,8,0,0,0,0,11.32Z"/></svg>