<svg xmlns="http://www.w3.org/2000/svg" viewBox="0 0 256 256">
  <style>
    .draw-line {
      stroke-dasharray: 2000;
      stroke-dashoffset: 0;
    }
    svg:hover .draw-line {
      animation: phosphor-draw-in 1.5s ease-in-out infinite alternate;
    }
    @keyframes phosphor-draw-in {
      0%   { stroke-dashoffset: 2000; }
      100% { stroke-dashoffset: 0; }
    }
  </style><rect width="256" height="256" fill="none"/><path d="M119.39,172.94a8,8,0,0,1-1.73,8.72l-32,32a8,8,0,0,1-11.32,0l-32-32A8,8,0,0,1,48,168H72V48a8,8,0,0,1,16,0V168h24A8,8,0,0,1,119.39,172.94Zm94.27-98.6-32-32a8,8,0,0,0-11.32,0l-32,32A8,8,0,0,0,144,88h24V208a8,8,0,0,0,16,0V88h24a8,8,0,0,0,5.66-13.66Z"/></svg>