<svg xmlns="http://www.w3.org/2000/svg" viewBox="0 0 256 256">
  <style>
    .draw-line {
      stroke-dasharray: 2000;
      stroke-dashoffset: 0;
    }
    svg:hover .draw-line {
      animation: phosphor-draw-in 3s ease-in-out infinite alternate;
    }
    @keyframes phosphor-draw-in {
      0%   { stroke-dashoffset: 2000; }
      50%  { stroke-dashoffset: 0; }
      100% { stroke-dashoffset: 0; }
    }
  </style><rect width="256" height="256" fill="none"/><path d="M167.39,196.94a8,8,0,0,1-1.73,8.72l-32,32a8,8,0,0,1-11.32,0l-32-32A8,8,0,0,1,96,192h24V64H96a8,8,0,0,1-5.66-13.66l32-32a8,8,0,0,1,11.32,0l32,32A8,8,0,0,1,160,64H136V192h24A8,8,0,0,1,167.39,196.94Z"/></svg>