<svg xmlns="http://www.w3.org/2000/svg" viewBox="0 0 256 256">
  <style>
    .draw-line {
      stroke-dasharray: 2000;
      stroke-dashoffset: 0;
    }
    svg:hover .draw-line {
      animation: phosphor-draw-in 1.5s ease-in-out infinite alternate;
    }
    @keyframes phosphor-draw-in {
      0%   { stroke-dashoffset: 2000; }
      100% { stroke-dashoffset: 0; }
    }
  </style><rect width="256" height="256" fill="none"/><path d="M213.66,53.66,179.31,88l18.35,18.34A8,8,0,0,1,192,120H144a8,8,0,0,1-8-8V64a8,8,0,0,1,13.66-5.66L168,76.69l34.34-34.35a8,8,0,0,1,11.32,11.32ZM112,136H64a8,8,0,0,0-5.66,13.66L76.69,168,42.34,202.34a8,8,0,0,0,11.32,11.32L88,179.31l18.34,18.35A8,8,0,0,0,120,192V144A8,8,0,0,0,112,136Z"/></svg>