<svg xmlns="http://www.w3.org/2000/svg" viewBox="0 0 256 256">
  <style>
    .draw-line {
      stroke-dasharray: 2000;
      stroke-dashoffset: 0;
    }
    svg:hover .draw-line {
      animation: phosphor-draw-in 1.5s ease-in-out infinite alternate;
    }
    @keyframes phosphor-draw-in {
      0%   { stroke-dashoffset: 2000; }
      100% { stroke-dashoffset: 0; }
    }
  </style><rect width="256" height="256" fill="none"/><path d="M232,144a64.07,64.07,0,0,1-64,64H80a8,8,0,0,1,0-16h88a48,48,0,0,0,0-96H88v40a8,8,0,0,1-13.66,5.66l-48-48a8,8,0,0,1,0-11.32l48-48A8,8,0,0,1,88,40V80h80A64.07,64.07,0,0,1,232,144Z"/></svg>