<svg xmlns="http://www.w3.org/2000/svg" viewBox="0 0 256 256">
  <style>
    .draw-line {
      stroke-dasharray: 2000;
      stroke-dashoffset: 0;
    }
    svg:hover .draw-line {
      animation: phosphor-draw-in 1.5s ease-in-out infinite alternate;
    }
    @keyframes phosphor-draw-in {
      0%   { stroke-dashoffset: 2000; }
      100% { stroke-dashoffset: 0; }
    }
  </style><rect width="256" height="256" fill="none"/><path d="M224,40a8,8,0,0,1-8,8H40a8,8,0,0,1,0-16H216A8,8,0,0,1,224,40ZM195.06,96.61a8,8,0,0,0-8.72,1.73L144,140.69,85.66,82.34A8,8,0,0,0,74.34,93.66L132.69,152,90.34,194.34A8,8,0,0,0,96,208h96a8,8,0,0,0,8-8V104A8,8,0,0,0,195.06,96.61Z"/></svg>