<svg xmlns="http://www.w3.org/2000/svg" viewBox="0 0 256 256">
  <style>
    .draw-line {
      stroke-dasharray: 2000;
      stroke-dashoffset: 0;
    }
    svg:hover .draw-line {
      animation: phosphor-draw-in 3s ease-in-out infinite alternate;
    }
    @keyframes phosphor-draw-in {
      0%   { stroke-dashoffset: 2000; }
      50%  { stroke-dashoffset: 0; }
      100% { stroke-dashoffset: 0; }
    }
  </style><rect width="256" height="256" fill="none"/><path d="M232,128a8,8,0,0,1-8,8H152v64a8,8,0,0,1-13.66,5.66l-72-72a8,8,0,0,1,0-11.32l72-72A8,8,0,0,1,152,56v64h72A8,8,0,0,1,232,128ZM40,32a8,8,0,0,0-8,8V216a8,8,0,0,0,16,0V40A8,8,0,0,0,40,32Z"/></svg>