<svg xmlns="http://www.w3.org/2000/svg" viewBox="0 0 256 256">
  <style>
    .draw-line {
      stroke-dasharray: 2000;
      stroke-dashoffset: 0;
    }
    svg:hover .draw-line {
      animation: phosphor-draw-in 1.5s ease-in-out infinite alternate;
    }
    @keyframes phosphor-draw-in {
      0%   { stroke-dashoffset: 0; }
      100% { stroke-dashoffset: 2000; }
    }
  </style><rect width="256" height="256" fill="none"/><path d="M189.66,122.34a8,8,0,0,1,0,11.32l-72,72A8,8,0,0,1,104,200V136H32a8,8,0,0,1,0-16h72V56a8,8,0,0,1,13.66-5.66ZM216,32a8,8,0,0,0-8,8V216a8,8,0,0,0,16,0V40A8,8,0,0,0,216,32Z"/></svg>