<svg xmlns="http://www.w3.org/2000/svg" viewBox="0 0 256 256">
  <style>
    .draw-line {
      stroke-dasharray: 1;
      stroke-dashoffset: 0;
    }
    svg:hover .draw-line {
      animation: phosphor-draw-in 1.5s ease-in-out forwards;
    }
    @keyframes phosphor-draw-in {
      from { stroke-dashoffset: 1; }
      to { stroke-dashoffset: 0; }
    }
  </style><rect width="256" height="256" fill="none"/><path d="M229.66,141.66l-96,96a8,8,0,0,1-11.32,0l-96-96A8,8,0,0,1,32,128H72V104a8,8,0,0,1,8-8h96a8,8,0,0,1,8,8v24h40a8,8,0,0,1,5.66,13.66ZM184,40a8,8,0,0,0-8-8H80a8,8,0,0,0,0,16h96A8,8,0,0,0,184,40Zm0,32a8,8,0,0,0-8-8H80a8,8,0,0,0,0,16h96A8,8,0,0,0,184,72Z"/></svg>