<svg xmlns="http://www.w3.org/2000/svg" viewBox="0 0 256 256">
  <style>
    .draw-line {
      stroke-dasharray: 2000;
      stroke-dashoffset: 0;
    }
    svg:hover .draw-line {
      animation: phosphor-draw-in 1.5s ease-in-out infinite;
    }
    @keyframes phosphor-draw-in {
      0%   { stroke-dashoffset: 2000; }
      100% { stroke-dashoffset: 0; }
    }
  </style><rect width="256" height="256" fill="none"/><path d="M231.39,123.06A8,8,0,0,1,224,128H184v56a8,8,0,0,1-8,8H80a8,8,0,0,1-8-8V128H32a8,8,0,0,1-5.66-13.66l96-96a8,8,0,0,1,11.32,0l96,96A8,8,0,0,1,231.39,123.06ZM176,208H80a8,8,0,0,0,0,16h96a8,8,0,0,0,0-16Z"/></svg>