<svg xmlns="http://www.w3.org/2000/svg" viewBox="0 0 256 256">
  <style>
    .draw-line {
      stroke-dasharray: 1;
      stroke-dashoffset: 1;
      animation: phosphor-draw-in 1.5s ease-in-out forwards;
    }
    @keyframes phosphor-draw-in {
      to { stroke-dashoffset: 0; }
    }
  </style><rect width="256" height="256" fill="none"/><path d="M136,40V216a8,8,0,0,1-16,0V40a8,8,0,0,1,16,0ZM69.66,90.34A8,8,0,0,0,56,96v24H16a8,8,0,0,0,0,16H56v24a8,8,0,0,0,13.66,5.66l32-32a8,8,0,0,0,0-11.32ZM240,120H200V96a8,8,0,0,0-13.66-5.66l-32,32a8,8,0,0,0,0,11.32l32,32A8,8,0,0,0,200,160V136h40a8,8,0,0,0,0-16Z"/></svg>