<svg xmlns="http://www.w3.org/2000/svg" viewBox="0 0 256 256">
  <style>
    .draw-line {
      stroke-dasharray: 2000;
      stroke-dashoffset: 0;
    }
    svg:hover .draw-line {
      animation: phosphor-draw-in 1.5s ease-in-out infinite;
    }
    @keyframes phosphor-draw-in {
      0%   { stroke-dashoffset: 2000; }
      100% { stroke-dashoffset: 0; }
    }
  </style><rect width="256" height="256" fill="none"/><path d="M128,24A104,104,0,1,0,232,128,104.11,104.11,0,0,0,128,24Zm63.34,91.83-50.4,16.38,31.15,42.87a8,8,0,1,1-12.94,9.4L128,141.61,96.85,184.48a8,8,0,0,1-12.94-9.4l31.15-42.87-50.4-16.38a8,8,0,0,1,4.94-15.22L120,117V64a8,8,0,0,1,16,0v53l50.4-16.38a8,8,0,0,1,4.94,15.22Z"/></svg>