<svg xmlns="http://www.w3.org/2000/svg" viewBox="0 0 256 256">
  <style>
    .draw-line {
      stroke-dasharray: 1;
      stroke-dashoffset: 0;
    }
    svg:hover .draw-line {
      animation: phosphor-draw-in 1.5s ease-in-out forwards;
    }
    @keyframes phosphor-draw-in {
      from { stroke-dashoffset: 1; }
      to { stroke-dashoffset: 0; }
    }
  </style><rect width="256" height="256" fill="none"/><path d="M216,64H176a48,48,0,0,0-96,0H40A16,16,0,0,0,24,80V200a16,16,0,0,0,16,16H216a16,16,0,0,0,16-16V80A16,16,0,0,0,216,64ZM96,104a8,8,0,0,1-16,0V88a8,8,0,0,1,16,0Zm32-72a32,32,0,0,1,32,32H96A32,32,0,0,1,128,32Zm48,72a8,8,0,0,1-16,0V88a8,8,0,0,1,16,0Z"/></svg>