<svg xmlns="http://www.w3.org/2000/svg" viewBox="0 0 256 256">
  <style>
    .draw-line {
      stroke-dasharray: 1;
      stroke-dashoffset: 0;
    }
    svg:hover .draw-line {
      animation: phosphor-draw-in 1.5s ease-in-out forwards;
    }
    @keyframes phosphor-draw-in {
      from { stroke-dashoffset: 1; }
      to { stroke-dashoffset: 0; }
    }
  </style><rect width="256" height="256" fill="none"/><path d="M248,208a8,8,0,0,1-8,8H16a8,8,0,0,1,0-16H240A8,8,0,0,1,248,208ZM16.3,98.18a8,8,0,0,1,3.51-9l104-64a8,8,0,0,1,8.38,0l104,64A8,8,0,0,1,232,104H208v64h16a8,8,0,0,1,0,16H32a8,8,0,0,1,0-16H48V104H24A8,8,0,0,1,16.3,98.18ZM144,160a8,8,0,0,0,16,0V112a8,8,0,0,0-16,0Zm-48,0a8,8,0,0,0,16,0V112a8,8,0,0,0-16,0Z"/></svg>