<svg xmlns="http://www.w3.org/2000/svg" viewBox="0 0 256 256">
  <style>
    .draw-line {
      stroke-dasharray: 2000;
      stroke-dashoffset: 0;
    }
    svg:hover .draw-line {
      animation: phosphor-draw-in 1.5s ease-in-out infinite alternate;
    }
    @keyframes phosphor-draw-in {
      0%   { stroke-dashoffset: 0; }
      100% { stroke-dashoffset: 2000; }
    }
  </style><rect width="256" height="256" fill="none"/><path d="M224,64H32A16,16,0,0,0,16,80v72a16,16,0,0,0,16,16H56v32a8,8,0,0,0,16,0V168H184v32a8,8,0,0,0,16,0V168h24a16,16,0,0,0,16-16V80A16,16,0,0,0,224,64ZM32,152V92l60,60Zm192,0H167.31l-72-72H164l60,60v12Z"/></svg>