<svg xmlns="http://www.w3.org/2000/svg" viewBox="0 0 256 256">
  <style>
    .draw-line {
      stroke-dasharray: 2000;
      stroke-dashoffset: 0;
    }
    svg:hover .draw-line {
      animation: phosphor-draw-in 1.5s ease-in-out infinite;
    }
    @keyframes phosphor-draw-in {
      0%   { stroke-dashoffset: 2000; }
      100% { stroke-dashoffset: 0; }
    }
  </style><rect width="256" height="256" fill="none"/><path d="M176,32H80A24,24,0,0,0,56,56V224a24,24,0,0,0,24,24h96a24,24,0,0,0,24-24V56A24,24,0,0,0,176,32ZM151.16,139.58l-16,32a8,8,0,0,1-14.32-7.16L131.06,144H112a8,8,0,0,1-7.16-11.58l16-32a8,8,0,1,1,14.32,7.16L124.94,128H144a8,8,0,0,1,7.16,11.58ZM88,8a8,8,0,0,1,8-8h64a8,8,0,0,1,0,16H96A8,8,0,0,1,88,8Z"/></svg>