<svg xmlns="http://www.w3.org/2000/svg" viewBox="0 0 256 256">
  <style>
    .draw-line {
      stroke-dasharray: 1;
      stroke-dashoffset: 0;
    }
    svg:hover .draw-line {
      animation: phosphor-draw-in 1.5s ease-in-out infinite;
    }
    @keyframes phosphor-draw-in {
      0%   { stroke-dashoffset: 1; }
      100% { stroke-dashoffset: 0; }
    }
  </style><rect width="256" height="256" fill="none"/><path d="M256,96v64a8,8,0,0,1-16,0V96a8,8,0,0,1,16,0ZM224,80v96a24,24,0,0,1-24,24H32A24,24,0,0,1,8,176V80A24,24,0,0,1,32,56H200A24,24,0,0,1,224,80Zm-85.19,43.79A8,8,0,0,0,132,120H112.94l10.22-20.42a8,8,0,1,0-14.32-7.16l-16,32A8,8,0,0,0,100,136h19.06l-10.22,20.42a8,8,0,0,0,14.32,7.16l16-32A8,8,0,0,0,138.81,123.79Z"/></svg>