<svg xmlns="http://www.w3.org/2000/svg" viewBox="0 0 256 256">
  <style>
    .draw-line {
      stroke-dasharray: 1;
      stroke-dashoffset: 1;
      animation: phosphor-draw-in 1.5s ease-in-out forwards;
    }
    @keyframes phosphor-draw-in {
      to { stroke-dashoffset: 0; }
    }
  </style><rect width="256" height="256" fill="none"/><path d="M200,56H32A24,24,0,0,0,8,80v96a24,24,0,0,0,24,24H200a24,24,0,0,0,24-24V80A24,24,0,0,0,200,56Zm-56,80H124v20a8,8,0,0,1-16,0V136H88a8,8,0,0,1,0-16h20V100a8,8,0,0,1,16,0v20h20a8,8,0,0,1,0,16ZM256,96v64a8,8,0,0,1-16,0V96a8,8,0,0,1,16,0Z"/></svg>