<svg xmlns="http://www.w3.org/2000/svg" viewBox="0 0 256 256">
  <style>
    .draw-line {
      stroke-dasharray: 1;
      stroke-dashoffset: 1;
      animation: phosphor-draw-in 1.5s ease-in-out forwards;
    }
    @keyframes phosphor-draw-in {
      to { stroke-dashoffset: 0; }
    }
  </style><rect width="256" height="256" fill="none"/><path d="M160,56H64A16,16,0,0,0,48,72V224a8,8,0,0,0,12.65,6.51L112,193.83l51.36,36.68A8,8,0,0,0,176,224V72A16,16,0,0,0,160,56Z"/><path d="M192,24H88a8,8,0,0,0,0,16H192V192a8,8,0,0,0,16,0V40A16,16,0,0,0,192,24Z"/></svg>