<svg xmlns="http://www.w3.org/2000/svg" viewBox="0 0 256 256">
  <style>
    .draw-line {
      stroke-dasharray: 1;
      stroke-dashoffset: 0;
    }
    svg:hover .draw-line {
      animation: phosphor-draw-in 1.5s ease-in-out infinite;
    }
    @keyframes phosphor-draw-in {
      0%   { stroke-dashoffset: 1; }
      100% { stroke-dashoffset: 0; }
    }
  </style><rect width="256" height="256" fill="none"/><path d="M192,24H96A16,16,0,0,0,80,40V56H64A16,16,0,0,0,48,72V224a8,8,0,0,0,12.65,6.51L112,193.83l51.36,36.68A8,8,0,0,0,176,224V184.69l19.35,13.82A8,8,0,0,0,208,192V40A16,16,0,0,0,192,24Zm0,152.46L176,165V72a16,16,0,0,0-16-16H96V40h96Z"/></svg>