<svg xmlns="http://www.w3.org/2000/svg" viewBox="0 0 256 256">
  <style>
    .draw-line {
      stroke-dasharray: 1;
      stroke-dashoffset: 0;
    }
    svg:hover .draw-line {
      animation: phosphor-draw-in 1.5s ease-in-out infinite;
    }
    @keyframes phosphor-draw-in {
      0%   { stroke-dashoffset: 1; }
      100% { stroke-dashoffset: 0; }
    }
  </style><rect width="256" height="256" fill="none"/><path d="M200,40H48a40,40,0,0,0-16,76.65V200a16,16,0,0,0,16,16H200a16,16,0,0,0,16-16V116.65A40,40,0,0,0,200,40Zm-56,64a8,8,0,0,0,0,16v80H48V120a8,8,0,0,0,0-16,24,24,0,0,1,0-48h96a24,24,0,0,1,0,48Z"/></svg>