<svg xmlns="http://www.w3.org/2000/svg" viewBox="0 0 256 256">
  <style>
    .draw-line {
      stroke-dasharray: 2000;
      stroke-dashoffset: 0;
    }
    svg:hover .draw-line {
      animation: phosphor-draw-in 3s ease-in-out infinite alternate;
    }
    @keyframes phosphor-draw-in {
      0%   { stroke-dashoffset: 2000; }
      50%  { stroke-dashoffset: 0; }
      100% { stroke-dashoffset: 0; }
    }
  </style><rect width="256" height="256" fill="none"/><path d="M232,224H208V32h8a8,8,0,0,0,0-16H40a8,8,0,0,0,0,16h8V224H24a8,8,0,0,0,0,16H232a8,8,0,0,0,0-16ZM88,56h24a8,8,0,0,1,0,16H88a8,8,0,0,1,0-16Zm0,40h24a8,8,0,0,1,0,16H88a8,8,0,0,1,0-16Zm-8,48a8,8,0,0,1,8-8h24a8,8,0,0,1,0,16H88A8,8,0,0,1,80,144Zm72,80H104V184h48Zm16-72H144a8,8,0,0,1,0-16h24a8,8,0,0,1,0,16Zm0-40H144a8,8,0,0,1,0-16h24a8,8,0,0,1,0,16Zm0-40H144a8,8,0,0,1,0-16h24a8,8,0,0,1,0,16Z"/></svg>