<svg xmlns="http://www.w3.org/2000/svg" viewBox="0 0 256 256">
  <style>
    .draw-line {
      stroke-dasharray: 2000;
      stroke-dashoffset: 0;
    }
    svg:hover .draw-line {
      animation: phosphor-draw-in 3s ease-in-out infinite alternate;
    }
    @keyframes phosphor-draw-in {
      0%   { stroke-dashoffset: 2000; }
      50%  { stroke-dashoffset: 0; }
      100% { stroke-dashoffset: 0; }
    }
  </style><rect width="256" height="256" fill="none"/><path d="M248,208H232V96a8,8,0,0,0,0-16H184V48a8,8,0,0,0,0-16H40a8,8,0,0,0,0,16V208H24a8,8,0,0,0,0,16H248a8,8,0,0,0,0-16ZM80,72H96a8,8,0,0,1,0,16H80a8,8,0,0,1,0-16Zm-8,48a8,8,0,0,1,8-8H96a8,8,0,0,1,0,16H80A8,8,0,0,1,72,120Zm64,88H88V160h48Zm8-80H128a8,8,0,0,1,0-16h16a8,8,0,0,1,0,16Zm0-40H128a8,8,0,0,1,0-16h16a8,8,0,0,1,0,16Zm72,120H184V96h32Z"/></svg>