<svg xmlns="http://www.w3.org/2000/svg" viewBox="0 0 256 256">
  <style>
    .draw-line {
      stroke-dasharray: 2000;
      stroke-dashoffset: 0;
    }
    svg:hover .draw-line {
      animation: phosphor-draw-in 1.5s ease-in-out infinite alternate;
    }
    @keyframes phosphor-draw-in {
      0%   { stroke-dashoffset: 0; }
      100% { stroke-dashoffset: 2000; }
    }
  </style><rect width="256" height="256" fill="none"/><path d="M16,176a8,8,0,0,1,8-8h8V152a96.12,96.12,0,0,1,88-95.66V40H104a8,8,0,0,1,0-16h48a8,8,0,0,1,0,16H136V56.34A96.12,96.12,0,0,1,224,152v16h8a8,8,0,0,1,0,16H24A8,8,0,0,1,16,176Zm216,24H24a8,8,0,0,0,0,16H232a8,8,0,0,0,0-16Z"/></svg>