<svg xmlns="http://www.w3.org/2000/svg" viewBox="0 0 256 256">
  <style>
    .draw-line {
      stroke-dasharray: 2000;
      stroke-dashoffset: 0;
    }
    svg:hover .draw-line {
      animation: phosphor-draw-in 1.5s ease-in-out infinite;
    }
    @keyframes phosphor-draw-in {
      0%   { stroke-dashoffset: 2000; }
      100% { stroke-dashoffset: 0; }
    }
  </style><rect width="256" height="256" fill="none"/><path d="M224,104v96a16,16,0,0,1-16,16H48a16,16,0,0,1-16-16V104A16,16,0,0,1,48,88H208A16,16,0,0,1,224,104ZM56,72H200a8,8,0,0,0,0-16H56a8,8,0,0,0,0,16ZM72,40H184a8,8,0,0,0,0-16H72a8,8,0,0,0,0,16Z"/></svg>