<svg xmlns="http://www.w3.org/2000/svg" viewBox="0 0 256 256">
  <style>
    .draw-line {
      stroke-dasharray: 2000;
      stroke-dashoffset: 0;
    }
    svg:hover .draw-line {
      animation: phosphor-draw-in 1.5s ease-in-out infinite alternate;
    }
    @keyframes phosphor-draw-in {
      0%   { stroke-dashoffset: 0; }
      100% { stroke-dashoffset: 2000; }
    }
  </style><rect width="256" height="256" fill="none"/><path d="M208,48H48A24,24,0,0,0,24,72V184a24,24,0,0,0,24,24H208a24,24,0,0,0,24-24V72A24,24,0,0,0,208,48Zm-56,72a24,24,0,0,1-48,0,8,8,0,0,0-8-8H40V96H216v16H160A8,8,0,0,0,152,120ZM48,64H208a8,8,0,0,1,8,8v8H40V72A8,8,0,0,1,48,64Z"/></svg>