<svg xmlns="http://www.w3.org/2000/svg" viewBox="0 0 256 256">
  <style>
    .draw-line {
      stroke-dasharray: 1;
      stroke-dashoffset: 0;
    }
    svg:hover .draw-line {
      animation: phosphor-draw-in 1.5s ease-in-out infinite;
    }
    @keyframes phosphor-draw-in {
      0%   { stroke-dashoffset: 1; }
      100% { stroke-dashoffset: 0; }
    }
  </style><rect width="256" height="256" fill="none"/><path d="M201.57,54.42a104,104,0,1,0,0,147.15A104.17,104.17,0,0,0,201.57,54.42Zm-75.91,79.24-32,32a8,8,0,1,1-11.32-11.32L108.68,128,82.32,101.64A8,8,0,1,1,93.64,90.32l32,32A8,8,0,0,1,125.66,133.66Zm56,0-32,32a8,8,0,0,1-11.32-11.32L164.71,128l-26.36-26.36a8,8,0,1,1,11.32-11.32l32,32A8,8,0,0,1,181.68,133.66Z"/></svg>