<svg xmlns="http://www.w3.org/2000/svg" viewBox="0 0 256 256">
  <style>
    .draw-line {
      stroke-dasharray: 2000;
      stroke-dashoffset: 0;
    }
    svg:hover .draw-line {
      animation: phosphor-draw-in 3s ease-in-out infinite alternate;
    }
    @keyframes phosphor-draw-in {
      0%   { stroke-dashoffset: 2000; }
      50%  { stroke-dashoffset: 0; }
      100% { stroke-dashoffset: 0; }
    }
  </style><rect width="256" height="256" fill="none"/><path d="M54.42,54.43a104,104,0,1,0,147.15,0A104.17,104.17,0,0,0,54.42,54.43Zm99.93,83.92a8,8,0,1,1,11.32,11.32l-32,32a8,8,0,0,1-11.32,0l-32-32a8,8,0,1,1,11.32-11.32L128,164.71Zm0-56a8,8,0,1,1,11.32,11.32l-32,32a8,8,0,0,1-11.32,0l-32-32a8,8,0,1,1,11.32-11.32L128,108.68Z"/></svg>