<svg xmlns="http://www.w3.org/2000/svg" viewBox="0 0 256 256">
  <style>
    .draw-line {
      stroke-dasharray: 2000;
      stroke-dashoffset: 0;
    }
    svg:hover .draw-line {
      animation: phosphor-draw-in 1.5s ease-in-out infinite alternate;
    }
    @keyframes phosphor-draw-in {
      0%   { stroke-dashoffset: 2000; }
      100% { stroke-dashoffset: 0; }
    }
  </style><rect width="256" height="256" fill="none"/><path d="M216,216H200V115.31L211.31,104A15.86,15.86,0,0,0,216,92.69V48a16,16,0,0,0-16-16H180a8,8,0,0,0-8,8V64H148V40a8,8,0,0,0-8-8H116a8,8,0,0,0-8,8V64H84V40a8,8,0,0,0-8-8H56A16,16,0,0,0,40,48V92.69A15.86,15.86,0,0,0,44.69,104L56,115.31V216H40a8,8,0,0,0,0,16H216a8,8,0,0,0,0-16ZM112,168a16,16,0,0,1,32,0v48H112Z"/></svg>