<svg xmlns="http://www.w3.org/2000/svg" viewBox="0 0 256 256">
  <style>
    .draw-line {
      stroke-dasharray: 2000;
      stroke-dashoffset: 0;
    }
    svg:hover .draw-line {
      animation: phosphor-draw-in 1.5s ease-in-out infinite;
    }
    @keyframes phosphor-draw-in {
      0%   { stroke-dashoffset: 2000; }
      100% { stroke-dashoffset: 0; }
    }
  </style><rect width="256" height="256" fill="none"/><path d="M208,136H176V104h16a16,16,0,0,0,16-16V40a16,16,0,0,0-16-16H64A16,16,0,0,0,48,40V88a16,16,0,0,0,16,16H80v32H48a16,16,0,0,0-16,16v16a16,16,0,0,0,16,16h8v40a8,8,0,0,0,16,0V184H184v40a8,8,0,0,0,16,0V184h8a16,16,0,0,0,16-16V152A16,16,0,0,0,208,136Zm-48,0H96V104h64Z"/></svg>