<svg xmlns="http://www.w3.org/2000/svg" viewBox="0 0 256 256">
  <style>
    .draw-line {
      stroke-dasharray: 2000;
      stroke-dashoffset: 0;
    }
    svg:hover .draw-line {
      animation: phosphor-draw-in 3s ease-in-out infinite alternate;
    }
    @keyframes phosphor-draw-in {
      0%   { stroke-dashoffset: 2000; }
      50%  { stroke-dashoffset: 0; }
      100% { stroke-dashoffset: 0; }
    }
  </style><rect width="256" height="256" fill="none"/><path d="M216,40H40A16,16,0,0,0,24,56V200a16,16,0,0,0,16,16H216a16,16,0,0,0,16-16V56A16,16,0,0,0,216,40ZM200,176a8,8,0,0,1,0,16H56a8,8,0,0,1-8-8V72a8,8,0,0,1,16,0v62.92l34.88-29.07a8,8,0,0,1,9.56-.51l43,28.69,43.41-36.18a8,8,0,0,1,10.24,12.3l-48,40a8,8,0,0,1-9.56.51l-43-28.69L64,155.75V176Z"/></svg>