<svg xmlns="http://www.w3.org/2000/svg" viewBox="0 0 256 256">
  <style>
    .draw-line {
      stroke-dasharray: 2000;
      stroke-dashoffset: 0;
    }
    svg:hover .draw-line {
      animation: phosphor-draw-in 1.5s ease-in-out infinite alternate;
    }
    @keyframes phosphor-draw-in {
      0%   { stroke-dashoffset: 2000; }
      100% { stroke-dashoffset: 0; }
    }
  </style><rect width="256" height="256" fill="none"/><path d="M232,208a8,8,0,0,1-8,8H32a8,8,0,0,1,0-16h8V136a8,8,0,0,1,8-8H72a8,8,0,0,1,8,8v64H96V88a8,8,0,0,1,8-8h32a8,8,0,0,1,8,8V200h16V40a8,8,0,0,1,8-8h40a8,8,0,0,1,8,8V200h8A8,8,0,0,1,232,208Z"/></svg>