<svg xmlns="http://www.w3.org/2000/svg" viewBox="0 0 256 256">
  <style>
    .draw-line {
      stroke-dasharray: 2000;
      stroke-dashoffset: 0;
    }
    svg:hover .draw-line {
      animation: phosphor-draw-in 3s ease-in-out infinite alternate;
    }
    @keyframes phosphor-draw-in {
      0%   { stroke-dashoffset: 2000; }
      50%  { stroke-dashoffset: 0; }
      100% { stroke-dashoffset: 0; }
    }
  </style><rect width="256" height="256" fill="none"/><path d="M232,112v32a8,8,0,0,1-8,8H56v16h88a8,8,0,0,1,8,8v24a8,8,0,0,1-8,8H56v8a8,8,0,0,1-16,0V40a8,8,0,0,1,16,0v8H176a8,8,0,0,1,8,8V80a8,8,0,0,1-8,8H56v16H224A8,8,0,0,1,232,112Z"/></svg>