<svg xmlns="http://www.w3.org/2000/svg" viewBox="0 0 256 256">
  <style>
    .draw-line {
      stroke-dasharray: 1;
      stroke-dashoffset: 0;
    }
    svg:hover .draw-line {
      animation: phosphor-draw-in 1.5s ease-in-out forwards;
    }
    @keyframes phosphor-draw-in {
      from { stroke-dashoffset: 1; }
      to { stroke-dashoffset: 0; }
    }
  </style><rect width="256" height="256" fill="none"/><path d="M232,96a16,16,0,0,0-16-16H184V48a16,16,0,0,0-16-16H40A16,16,0,0,0,24,48V176a8,8,0,0,0,13,6.22L72,154V184a16,16,0,0,0,16,16h93.59L219,230.22a8,8,0,0,0,5,1.78,8,8,0,0,0,8-8Zm-42.55,89.78a8,8,0,0,0-5-1.78H88V152h80a16,16,0,0,0,16-16V96h32V207.25Z"/></svg>