<svg xmlns="http://www.w3.org/2000/svg" viewBox="0 0 256 256">
  <style>
    .draw-line {
      stroke-dasharray: 2000;
      stroke-dashoffset: 0;
    }
    svg:hover .draw-line {
      animation: phosphor-draw-in 3s ease-in-out infinite alternate;
    }
    @keyframes phosphor-draw-in {
      0%   { stroke-dashoffset: 2000; }
      50%  { stroke-dashoffset: 0; }
      100% { stroke-dashoffset: 0; }
    }
  </style><rect width="256" height="256" fill="none"/><path d="M132,24A100.11,100.11,0,0,0,32,124v84a16,16,0,0,0,16,16h84a100,100,0,0,0,0-200ZM88,140a12,12,0,1,1,12-12A12,12,0,0,1,88,140Zm44,0a12,12,0,1,1,12-12A12,12,0,0,1,132,140Zm44,0a12,12,0,1,1,12-12A12,12,0,0,1,176,140Z"/></svg>