<svg xmlns="http://www.w3.org/2000/svg" viewBox="0 0 256 256">
  <style>
    .draw-line {
      stroke-dasharray: 2000;
      stroke-dashoffset: 0;
    }
    svg:hover .draw-line {
      animation: phosphor-draw-in 1.5s ease-in-out infinite;
    }
    @keyframes phosphor-draw-in {
      0%   { stroke-dashoffset: 2000; }
      100% { stroke-dashoffset: 0; }
    }
  </style><rect width="256" height="256" fill="none"/><path d="M216,40H40A16,16,0,0,0,24,56V184a16,16,0,0,0,16,16h60.43l13.68,23.94a16,16,0,0,0,27.78,0L155.57,200H216a16,16,0,0,0,16-16V56A16,16,0,0,0,216,40ZM160,144H96a8,8,0,0,1,0-16h64a8,8,0,0,1,0,16Zm0-32H96a8,8,0,0,1,0-16h64a8,8,0,0,1,0,16Z"/></svg>