<svg xmlns="http://www.w3.org/2000/svg" viewBox="0 0 256 256">
  <style>
    .draw-line {
      stroke-dasharray: 2000;
      stroke-dashoffset: 0;
    }
    svg:hover .draw-line {
      animation: phosphor-draw-in 1.5s ease-in-out infinite;
    }
    @keyframes phosphor-draw-in {
      0%   { stroke-dashoffset: 2000; }
      100% { stroke-dashoffset: 0; }
    }
  </style><rect width="256" height="256" fill="none"/><path d="M224,48H32A16,16,0,0,0,16,64V192a16,16,0,0,0,16,16H224a16,16,0,0,0,16-16V64A16,16,0,0,0,224,48ZM72,168a8,8,0,0,1-5.66-2.34l-24-24a8,8,0,0,1,11.32-11.32L72,148.69l58.34-58.35a8,8,0,0,1,11.32,11.32l-64,64A8,8,0,0,1,72,168Zm141.66-66.34-64,64a8,8,0,0,1-11.32,0l-16-16a8,8,0,0,1,11.32-11.32L144,148.69l58.34-58.35a8,8,0,0,1,11.32,11.32Z"/></svg>