<svg xmlns="http://www.w3.org/2000/svg" viewBox="0 0 256 256">
  <style>
    .draw-line {
      stroke-dasharray: 1;
      stroke-dashoffset: 0;
    }
    svg:hover .draw-line {
      animation: phosphor-draw-in 1.5s ease-in-out infinite;
    }
    @keyframes phosphor-draw-in {
      0%   { stroke-dashoffset: 1; }
      100% { stroke-dashoffset: 0; }
    }
  </style><rect width="256" height="256" fill="none"/><path d="M120,80A40,40,0,1,1,80,40,40,40,0,0,1,120,80Zm56,40a40,40,0,1,0-40-40A40,40,0,0,0,176,120ZM80,136a40,40,0,1,0,40,40A40,40,0,0,0,80,136Zm128,32H184V144a8,8,0,0,0-16,0v24H144a8,8,0,0,0,0,16h24v24a8,8,0,0,0,16,0V184h24a8,8,0,0,0,0-16Z"/></svg>