<svg xmlns="http://www.w3.org/2000/svg" viewBox="0 0 256 256">
  <style>
    .draw-line {
      stroke-dasharray: 2000;
      stroke-dashoffset: 0;
    }
    svg:hover .draw-line {
      animation: phosphor-draw-in 1.5s ease-in-out infinite;
    }
    @keyframes phosphor-draw-in {
      0%   { stroke-dashoffset: 2000; }
      100% { stroke-dashoffset: 0; }
    }
  </style><rect width="256" height="256" fill="none"/><path d="M240,208h-8V88a8,8,0,0,0-8-8H160a8,8,0,0,0-8,8v40H104V40a8,8,0,0,0-8-8H32a8,8,0,0,0-8,8V208H16a8,8,0,0,0,0,16H240a8,8,0,0,0,0-16ZM72,184a8,8,0,0,1-16,0V168a8,8,0,0,1,16,0Zm0-48a8,8,0,0,1-16,0V120a8,8,0,0,1,16,0Zm0-48a8,8,0,0,1-16,0V72a8,8,0,0,1,16,0Zm64,96a8,8,0,0,1-16,0V168a8,8,0,0,1,16,0Zm64,0a8,8,0,0,1-16,0V168a8,8,0,0,1,16,0Zm0-48a8,8,0,0,1-16,0V120a8,8,0,0,1,16,0Z"/></svg>