<svg xmlns="http://www.w3.org/2000/svg" viewBox="0 0 256 256">
  <style>
    .draw-line {
      stroke-dasharray: 1;
      stroke-dashoffset: 0;
    }
    svg:hover .draw-line {
      animation: phosphor-draw-in 1.5s ease-in-out forwards;
    }
    @keyframes phosphor-draw-in {
      from { stroke-dashoffset: 1; }
      to { stroke-dashoffset: 0; }
    }
  </style><rect width="256" height="256" fill="none"/><path d="M136,80v43.47l36.12,21.67a8,8,0,0,1-8.24,13.72l-40-24A8,8,0,0,1,120,128V80a8,8,0,0,1,16,0Zm91.06-23.39a8,8,0,0,0-8.72,1.73L206,70.71c-3.23-3.51-6.56-7-10.1-10.59a96,96,0,1,0-2,137.7,8,8,0,0,0-11-11.64A80,80,0,1,1,184.54,71.4c3.54,3.58,6.87,7.1,10.11,10.63L178.34,98.34A8,8,0,0,0,184,112h40a8,8,0,0,0,8-8V64A8,8,0,0,0,227.06,56.61Z"/></svg>