<svg xmlns="http://www.w3.org/2000/svg" viewBox="0 0 256 256">
  <style>
    .draw-line {
      stroke-dasharray: 1;
      stroke-dashoffset: 1;
      animation: phosphor-draw-in 1.5s ease-in-out forwards;
    }
    @keyframes phosphor-draw-in {
      to { stroke-dashoffset: 0; }
    }
  </style><rect width="256" height="256" fill="none"/><path d="M216,40H40A16,16,0,0,0,24,56V200a16,16,0,0,0,16,16H216a16,16,0,0,0,16-16V56A16,16,0,0,0,216,40ZM101.66,162.34a8,8,0,0,1-11.32,11.32l-40-40a8,8,0,0,1,0-11.32l40-40a8,8,0,0,1,11.32,11.32L67.31,128Zm104-28.68-40,40a8,8,0,0,1-11.32-11.32L188.69,128,154.34,93.66a8,8,0,0,1,11.32-11.32l40,40A8,8,0,0,1,205.66,133.66Z"/></svg>