<svg xmlns="http://www.w3.org/2000/svg" viewBox="0 0 256 256">
  <style>
    .draw-line {
      stroke-dasharray: 1;
      stroke-dashoffset: 0;
    }
    svg:hover .draw-line {
      animation: phosphor-draw-in 1.5s ease-in-out forwards;
    }
    @keyframes phosphor-draw-in {
      from { stroke-dashoffset: 1; }
      to { stroke-dashoffset: 0; }
    }
  </style><rect width="256" height="256" fill="none"/><path d="M96,48V208a16,16,0,0,1-16,16H56a16,16,0,0,1-16-16V48A16,16,0,0,1,56,32H80A16,16,0,0,1,96,48Zm56-16H128a16,16,0,0,0-16,16V208a16,16,0,0,0,16,16h24a16,16,0,0,0,16-16V48A16,16,0,0,0,152,32Zm88,88H224V104a8,8,0,0,0-16,0v16H192a8,8,0,0,0,0,16h16v16a8,8,0,0,0,16,0V136h16a8,8,0,0,0,0-16Z"/></svg>