<svg xmlns="http://www.w3.org/2000/svg" viewBox="0 0 256 256">
  <style>
    .draw-line {
      stroke-dasharray: 2000;
      stroke-dashoffset: 0;
    }
    svg:hover .draw-line {
      animation: phosphor-draw-in 3s ease-in-out infinite alternate;
    }
    @keyframes phosphor-draw-in {
      0%   { stroke-dashoffset: 2000; }
      50%  { stroke-dashoffset: 0; }
      100% { stroke-dashoffset: 0; }
    }
  </style><rect width="256" height="256" fill="none"/><path d="M128,56a72,72,0,1,0,72,72A72.08,72.08,0,0,0,128,56Zm0,120a47.66,47.66,0,0,1-38.4-19.19,8,8,0,0,1,12.8-9.61,32,32,0,1,0,0-38.4,8,8,0,0,1-12.8-9.61A48,48,0,1,1,128,176Zm0-152A104,104,0,1,0,232,128,104,104,0,0,0,128,24Zm0,192a88,88,0,1,1,88-88A88.1,88.1,0,0,1,128,216Z"/></svg>