<svg xmlns="http://www.w3.org/2000/svg" viewBox="0 0 256 256">
  <style>
    .draw-line {
      stroke-dasharray: 2000;
      stroke-dashoffset: 0;
    }
    svg:hover .draw-line {
      animation: phosphor-draw-in 3s ease-in-out infinite alternate;
    }
    @keyframes phosphor-draw-in {
      0%   { stroke-dashoffset: 2000; }
      50%  { stroke-dashoffset: 0; }
      100% { stroke-dashoffset: 0; }
    }
  </style><rect width="256" height="256" fill="none"/><path d="M208,32H48A16,16,0,0,0,32,48V208a16,16,0,0,0,16,16H208a16,16,0,0,0,16-16V48A16,16,0,0,0,208,32ZM120,80h48a8,8,0,0,1,8,8v48a8,8,0,0,1-16,0V96H120a8,8,0,0,1,0-16Zm72,96H176v16a8,8,0,0,1-16,0V176H88a8,8,0,0,1-8-8V96H64a8,8,0,0,1,0-16H80V64a8,8,0,0,1,16,0v96h96a8,8,0,0,1,0,16Z"/></svg>