<svg xmlns="http://www.w3.org/2000/svg" viewBox="0 0 256 256">
  <style>
    .draw-line {
      stroke-dasharray: 2000;
      stroke-dashoffset: 0;
    }
    svg:hover .draw-line {
      animation: phosphor-draw-in 3s ease-in-out infinite alternate;
    }
    @keyframes phosphor-draw-in {
      0%   { stroke-dashoffset: 2000; }
      50%  { stroke-dashoffset: 0; }
      100% { stroke-dashoffset: 0; }
    }
  </style><rect width="256" height="256" fill="none"/><path d="M216,92v24a16,16,0,0,1-16,16H156v92a16,16,0,0,1-16,16H116a16,16,0,0,1-16-16V132H56a16,16,0,0,1-16-16V92A16,16,0,0,1,56,76h44V32a16,16,0,0,1,16-16h24a16,16,0,0,1,16,16V76h44A16,16,0,0,1,216,92Z"/></svg>