<svg xmlns="http://www.w3.org/2000/svg" viewBox="0 0 256 256">
  <style>
    .draw-line {
      stroke-dasharray: 1;
      stroke-dashoffset: 0;
    }
    svg:hover .draw-line {
      animation: phosphor-draw-in 1.5s ease-in-out infinite;
    }
    @keyframes phosphor-draw-in {
      0%   { stroke-dashoffset: 1; }
      100% { stroke-dashoffset: 0; }
    }
  </style><rect width="256" height="256" fill="none"/><path d="M239.75,90.81c0,.11,0,.21-.07.32L217,195a16,16,0,0,1-15.72,13H54.71A16,16,0,0,1,39,195L16.32,91.13c0-.11-.05-.21-.07-.32A16,16,0,0,1,44,77.39l33.67,36.29,35.8-80.29a1,1,0,0,0,0-.1,16,16,0,0,1,29.06,0,1,1,0,0,0,0,.1l35.8,80.29L212,77.39a16,16,0,0,1,27.71,13.42Z"/></svg>