<svg xmlns="http://www.w3.org/2000/svg" viewBox="0 0 256 256">
  <style>
    .draw-line {
      stroke-dasharray: 2000;
      stroke-dashoffset: 0;
    }
    svg:hover .draw-line {
      animation: phosphor-draw-in 1.5s ease-in-out infinite alternate;
    }
    @keyframes phosphor-draw-in {
      0%   { stroke-dashoffset: 0; }
      100% { stroke-dashoffset: 2000; }
    }
  </style><rect width="256" height="256" fill="none"/><path d="M128,16A104,104,0,1,0,232,120,104.11,104.11,0,0,0,128,16ZM88,72h80a8,8,0,0,1,0,16H88a8,8,0,0,1,0-16Zm104,88a8,8,0,0,1-8,8H160a24,24,0,0,1-24-24V120H120a48.05,48.05,0,0,1-48,48,8,8,0,0,1,0-16,32,32,0,0,0,32-32H80a8,8,0,0,1,0-16h96a8,8,0,0,1,0,16H152v24a8,8,0,0,0,8,8h16v-8a8,8,0,0,1,16,0Z"/></svg>