<svg xmlns="http://www.w3.org/2000/svg" viewBox="0 0 256 256">
  <style>
    .draw-line {
      stroke-dasharray: 2000;
      stroke-dashoffset: 0;
    }
    svg:hover .draw-line {
      animation: phosphor-draw-in 3s ease-in-out infinite alternate;
    }
    @keyframes phosphor-draw-in {
      0%   { stroke-dashoffset: 2000; }
      50%  { stroke-dashoffset: 0; }
      100% { stroke-dashoffset: 0; }
    }
  </style><rect width="256" height="256" fill="none"/><path d="M143.55,136H160v23ZM96,120h16.45L96,97Zm136,8A104,104,0,1,1,128,24,104.11,104.11,0,0,1,232,128Zm-32,0a8,8,0,0,0-8-8H176V72a8,8,0,0,0-16,0v48H132.12L94.51,67.35A8,8,0,0,0,80,72v48H64a8,8,0,0,0,0,16H80v48a8,8,0,0,0,16,0V136h27.88l37.61,52.65A8,8,0,0,0,168,192a7.91,7.91,0,0,0,2.44-.38A8,8,0,0,0,176,184V136h16A8,8,0,0,0,200,128Z"/></svg>