<svg xmlns="http://www.w3.org/2000/svg" viewBox="0 0 256 256">
  <style>
    .draw-line {
      stroke-dasharray: 2000;
      stroke-dashoffset: 0;
    }
    svg:hover .draw-line {
      animation: phosphor-draw-in 1.5s ease-in-out infinite alternate;
    }
    @keyframes phosphor-draw-in {
      0%   { stroke-dashoffset: 2000; }
      100% { stroke-dashoffset: 0; }
    }
  </style><rect width="256" height="256" fill="none"/><path d="M128,24A104,104,0,1,0,232,128,104.11,104.11,0,0,0,128,24Zm0,80a8,8,0,0,1,0,16H88v16h24a8,8,0,0,1,0,16H88.81a40,40,0,0,0,65.86,21.82,8,8,0,1,1,10.66,11.92A56,56,0,0,1,72.58,152H64a8,8,0,0,1,0-16h8V120H64a8,8,0,0,1,0-16h8.58a56,56,0,0,1,92.75-33.74,8,8,0,1,1-10.66,11.92A40,40,0,0,0,88.81,104Z"/></svg>