<svg xmlns="http://www.w3.org/2000/svg" viewBox="0 0 256 256">
  <style>
    .draw-line {
      stroke-dasharray: 2000;
      stroke-dashoffset: 0;
    }
    svg:hover .draw-line {
      animation: phosphor-draw-in 1.5s ease-in-out infinite alternate;
    }
    @keyframes phosphor-draw-in {
      0%   { stroke-dashoffset: 2000; }
      100% { stroke-dashoffset: 0; }
    }
  </style><rect width="256" height="256" fill="none"/><path d="M168,104a24,24,0,0,1-24,24H112V80h32A24,24,0,0,1,168,104Zm64,24A104,104,0,1,1,128,24,104.11,104.11,0,0,1,232,128Zm-48-24a40,40,0,0,0-40-40H104a8,8,0,0,0-8,8v56H88a8,8,0,0,0,0,16h8v16H88a8,8,0,0,0,0,16h8v16a8,8,0,0,0,16,0V176h40a8,8,0,0,0,0-16H112V144h32A40,40,0,0,0,184,104Z"/></svg>