<svg xmlns="http://www.w3.org/2000/svg" viewBox="0 0 256 256">
  <style>
    .draw-line {
      stroke-dasharray: 2000;
      stroke-dashoffset: 0;
    }
    svg:hover .draw-line {
      animation: phosphor-draw-in 1.5s ease-in-out infinite;
    }
    @keyframes phosphor-draw-in {
      0%   { stroke-dashoffset: 2000; }
      100% { stroke-dashoffset: 0; }
    }
  </style><rect width="256" height="256" fill="none"/><path d="M128,24A104,104,0,1,0,232,128,104.11,104.11,0,0,0,128,24Zm40,160H88a8,8,0,0,1,0-16,16,16,0,0,0,16-16V136H88a8,8,0,0,1,0-16h16V96a40,40,0,0,1,60-34.64,8,8,0,0,1-8,13.85A24,24,0,0,0,120,96v24h16a8,8,0,0,1,0,16H120v16a31.71,31.71,0,0,1-4.31,16H168a8,8,0,0,1,0,16Z"/></svg>