<svg xmlns="http://www.w3.org/2000/svg" viewBox="0 0 256 256">
  <style>
    .draw-line {
      stroke-dasharray: 2000;
      stroke-dashoffset: 0;
    }
    svg:hover .draw-line {
      animation: phosphor-draw-in 1.5s ease-in-out infinite;
    }
    @keyframes phosphor-draw-in {
      0%   { stroke-dashoffset: 2000; }
      100% { stroke-dashoffset: 0; }
    }
  </style><rect width="256" height="256" fill="none"/><path d="M248,64H8A8,8,0,0,0,8,80h8V192a8,8,0,0,0,16,0V144H224v48a8,8,0,0,0,16,0V80h8a8,8,0,0,0,0-16ZM80,112H56a8,8,0,0,1,0-16H80a8,8,0,0,1,0,16Zm56,8a8,8,0,0,1-16,0V88a8,8,0,0,1,16,0Zm64-8H176a8,8,0,0,1,0-16h24a8,8,0,0,1,0,16Z"/></svg>