<svg xmlns="http://www.w3.org/2000/svg" viewBox="0 0 256 256">
  <style>
    .draw-line {
      stroke-dasharray: 2000;
      stroke-dashoffset: 0;
    }
    svg:hover .draw-line {
      animation: phosphor-draw-in 1.5s ease-in-out infinite alternate;
    }
    @keyframes phosphor-draw-in {
      0%   { stroke-dashoffset: 0; }
      100% { stroke-dashoffset: 2000; }
    }
  </style><rect width="256" height="256" fill="none"/><path d="M224,72H208V64a24,24,0,0,0-24-24H40A24,24,0,0,0,16,64v96a24,24,0,0,0,24,24H152v8a24,24,0,0,0,24,24h48a24,24,0,0,0,24-24V96A24,24,0,0,0,224,72Zm8,120a8,8,0,0,1-8,8H176a8,8,0,0,1-8-8V96a8,8,0,0,1,8-8h48a8,8,0,0,1,8,8Zm-96,16a8,8,0,0,1-8,8H88a8,8,0,0,1,0-16h40A8,8,0,0,1,136,208Zm80-96a8,8,0,0,1-8,8H192a8,8,0,0,1,0-16h16A8,8,0,0,1,216,112Z"/></svg>