<svg xmlns="http://www.w3.org/2000/svg" viewBox="0 0 256 256">
  <style>
    .draw-line {
      stroke-dasharray: 1;
      stroke-dashoffset: 0;
    }
    svg:hover .draw-line {
      animation: phosphor-draw-in 1.5s ease-in-out forwards;
    }
    @keyframes phosphor-draw-in {
      from { stroke-dashoffset: 1; }
      to { stroke-dashoffset: 0; }
    }
  </style><rect width="256" height="256" fill="none"/><path d="M192,24H64A24,24,0,0,0,40,48V208a24,24,0,0,0,24,24H192a24,24,0,0,0,24-24V48A24,24,0,0,0,192,24ZM64,40H192a8,8,0,0,1,8,8v8H56V48A8,8,0,0,1,64,40ZM192,216H64a8,8,0,0,1-8-8v-8H200v8A8,8,0,0,1,192,216Z"/></svg>