<svg xmlns="http://www.w3.org/2000/svg" viewBox="0 0 256 256">
  <style>
    .draw-line {
      stroke-dasharray: 2000;
      stroke-dashoffset: 0;
    }
    svg:hover .draw-line {
      animation: phosphor-draw-in 1.5s ease-in-out infinite;
    }
    @keyframes phosphor-draw-in {
      0%   { stroke-dashoffset: 2000; }
      100% { stroke-dashoffset: 0; }
    }
  </style><rect width="256" height="256" fill="none"/><path d="M82.34,69.66a8,8,0,0,1,0-11.32l40-40a8,8,0,0,1,11.32,0l40,40a8,8,0,0,1,0,11.32l-40,40a8,8,0,0,1-11.32,0Zm51.32,76.68a8,8,0,0,0-11.32,0l-40,40a8,8,0,0,0,0,11.32l40,40a8,8,0,0,0,11.32,0l40-40a8,8,0,0,0,0-11.32Zm104-24-40-40a8,8,0,0,0-11.32,0l-40,40a8,8,0,0,0,0,11.32l40,40a8,8,0,0,0,11.32,0l40-40A8,8,0,0,0,237.66,122.34Zm-128,0-40-40a8,8,0,0,0-11.32,0l-40,40a8,8,0,0,0,0,11.32l40,40a8,8,0,0,0,11.32,0l40-40A8,8,0,0,0,109.66,122.34Z"/></svg>