<svg xmlns="http://www.w3.org/2000/svg" viewBox="0 0 256 256">
  <style>
    .draw-line {
      stroke-dasharray: 2000;
      stroke-dashoffset: 0;
    }
    svg:hover .draw-line {
      animation: phosphor-draw-in 3s ease-in-out infinite alternate;
    }
    @keyframes phosphor-draw-in {
      0%   { stroke-dashoffset: 2000; }
      50%  { stroke-dashoffset: 0; }
      100% { stroke-dashoffset: 0; }
    }
  </style><rect width="256" height="256" fill="none"/><path d="M232,128A104,104,0,1,0,128,232,104.13,104.13,0,0,0,232,128ZM116,84a12,12,0,1,1,12,12A12,12,0,0,1,116,84Zm0,44a12,12,0,1,1,12,12A12,12,0,0,1,116,128Zm0,44a12,12,0,1,1,12,12A12,12,0,0,1,116,172Z"/></svg>