<svg xmlns="http://www.w3.org/2000/svg" viewBox="0 0 256 256">
  <style>
    .draw-line {
      stroke-dasharray: 2000;
      stroke-dashoffset: 0;
    }
    svg:hover .draw-line {
      animation: phosphor-draw-in 1.5s ease-in-out infinite;
    }
    @keyframes phosphor-draw-in {
      0%   { stroke-dashoffset: 2000; }
      100% { stroke-dashoffset: 0; }
    }
  </style><rect width="256" height="256" fill="none"/><path d="M224,48H32A16,16,0,0,0,16,64V192a16,16,0,0,0,16,16H224a16,16,0,0,0,16-16V64A16,16,0,0,0,224,48ZM68,168a12,12,0,1,1,12-12A12,12,0,0,1,68,168Zm0-56a12,12,0,1,1,12-12A12,12,0,0,1,68,112Zm60,56a12,12,0,1,1,12-12A12,12,0,0,1,128,168Zm0-56a12,12,0,1,1,12-12A12,12,0,0,1,128,112Zm60,56a12,12,0,1,1,12-12A12,12,0,0,1,188,168Zm0-56a12,12,0,1,1,12-12A12,12,0,0,1,188,112Z"/></svg>