<svg xmlns="http://www.w3.org/2000/svg" viewBox="0 0 256 256">
  <style>
    .draw-line {
      stroke-dasharray: 2000;
      stroke-dashoffset: 0;
    }
    svg:hover .draw-line {
      animation: phosphor-draw-in 1.5s ease-in-out infinite alternate;
    }
    @keyframes phosphor-draw-in {
      0%   { stroke-dashoffset: 2000; }
      100% { stroke-dashoffset: 0; }
    }
  </style><rect width="256" height="256" fill="none"/><path d="M160,16H96A16,16,0,0,0,80,32V224a16,16,0,0,0,16,16h64a16,16,0,0,0,16-16V32A16,16,0,0,0,160,16ZM128,208a12,12,0,1,1,12-12A12,12,0,0,1,128,208Zm0-68a12,12,0,1,1,12-12A12,12,0,0,1,128,140Zm0-68a12,12,0,1,1,12-12A12,12,0,0,1,128,72Z"/></svg>