<svg xmlns="http://www.w3.org/2000/svg" viewBox="0 0 256 256">
  <style>
    .draw-line {
      stroke-dasharray: 2000;
      stroke-dashoffset: 0;
    }
    svg:hover .draw-line {
      animation: phosphor-draw-in 1.5s ease-in-out infinite alternate;
    }
    @keyframes phosphor-draw-in {
      0%   { stroke-dashoffset: 2000; }
      100% { stroke-dashoffset: 0; }
    }
  </style><rect width="256" height="256" fill="none"/><path d="M188,120,128,80l55.56-37a8,8,0,0,1,8.88,0L238,73.34a8,8,0,0,1,0,13.32ZM72.44,43a8,8,0,0,0-8.88,0L18,73.34a8,8,0,0,0,0,13.32L68,120l60-40ZM238,153.34,188,120l-60,40,55.56,37a8,8,0,0,0,8.88,0L238,166.66A8,8,0,0,0,238,153.34Zm-220,0a8,8,0,0,0,0,13.32L63.56,197a8,8,0,0,0,8.88,0L128,160,68,120Zm150.61,52.95-38.37-25.58a4,4,0,0,0-4.44,0L87.41,206.29a4,4,0,0,0,0,6.65L123.56,237a8,8,0,0,0,8.88,0l36.15-24.1A4,4,0,0,0,168.59,206.29Z"/></svg>