<svg xmlns="http://www.w3.org/2000/svg" viewBox="0 0 256 256">
  <style>
    .draw-line {
      stroke-dasharray: 2000;
      stroke-dashoffset: 0;
    }
    svg:hover .draw-line {
      animation: phosphor-draw-in 3s ease-in-out infinite alternate;
    }
    @keyframes phosphor-draw-in {
      0%   { stroke-dashoffset: 2000; }
      50%  { stroke-dashoffset: 0; }
      100% { stroke-dashoffset: 0; }
    }
  </style><rect width="256" height="256" fill="none"/><path d="M232,108v40a16,16,0,0,1-16,16H164v52a16,16,0,0,1-16,16H108a16,16,0,0,1-16-16V164H40a16,16,0,0,1-16-16V108A16,16,0,0,1,40,92H92V40a16,16,0,0,1,16-16h40a16,16,0,0,1,16,16V92h52A16,16,0,0,1,232,108Z"/></svg>