<svg xmlns="http://www.w3.org/2000/svg" viewBox="0 0 256 256">
  <style>
    .draw-line {
      stroke-dasharray: 2000;
      stroke-dashoffset: 0;
    }
    svg:hover .draw-line {
      animation: phosphor-draw-in 3s ease-in-out infinite alternate;
    }
    @keyframes phosphor-draw-in {
      0%   { stroke-dashoffset: 2000; }
      50%  { stroke-dashoffset: 0; }
      100% { stroke-dashoffset: 0; }
    }
  </style><rect width="256" height="256" fill="none"/><path d="M245.66,85.66l-32,32a8,8,0,0,1-11.32-11.32L220.69,88H208c-38.67,0-46.59,19-56.62,43.08C141.05,155.88,129.33,184,80,184H79a32,32,0,1,1,0-16h1c38.67,0,46.59-19,56.62-43.08C147,100.12,158.67,72,208,72h12.69L202.34,53.66a8,8,0,0,1,11.32-11.32l32,32A8,8,0,0,1,245.66,85.66Z"/></svg>