<svg xmlns="http://www.w3.org/2000/svg" viewBox="0 0 256 256">
  <style>
    .draw-line {
      stroke-dasharray: 2000;
      stroke-dashoffset: 0;
    }
    svg:hover .draw-line {
      animation: phosphor-draw-in 1.5s ease-in-out infinite alternate;
    }
    @keyframes phosphor-draw-in {
      0%   { stroke-dashoffset: 0; }
      100% { stroke-dashoffset: 2000; }
    }
  </style><rect width="256" height="256" fill="none"/><path d="M216,72H130.67L102.93,51.2a16.12,16.12,0,0,0-9.6-3.2H40A16,16,0,0,0,24,64V200a16,16,0,0,0,16,16H216.89A15.13,15.13,0,0,0,232,200.89V88A16,16,0,0,0,216,72Zm-64,80H104a8,8,0,0,1,0-16h48a8,8,0,0,1,0,16Z"/></svg>