<svg xmlns="http://www.w3.org/2000/svg" viewBox="0 0 256 256">
  <style>
    .draw-line {
      stroke-dasharray: 1;
      stroke-dashoffset: 0;
    }
    svg:hover .draw-line {
      animation: phosphor-draw-in 1.5s ease-in-out forwards;
    }
    @keyframes phosphor-draw-in {
      from { stroke-dashoffset: 1; }
      to { stroke-dashoffset: 0; }
    }
  </style><rect width="256" height="256" fill="none"/><path d="M200,24H56A16,16,0,0,0,40,40V216a16,16,0,0,0,16,16H200a16,16,0,0,0,16-16V40A16,16,0,0,0,200,24ZM128,208a52,52,0,0,1-8-103.38V83.82L91,95.43A8,8,0,0,1,85,80.57L106.46,72,85,63.43A8,8,0,0,1,91,48.57l37,14.81,37-14.81A8,8,0,1,1,171,63.43L149.54,72,171,80.57A8,8,0,0,1,165,95.43L136,83.82v20.8A52,52,0,0,1,128,208Zm36-52a36,36,0,1,1-36-36A36,36,0,0,1,164,156Z"/></svg>