<svg xmlns="http://www.w3.org/2000/svg" viewBox="0 0 256 256">
  <style>
    .draw-line {
      stroke-dasharray: 2000;
      stroke-dashoffset: 0;
    }
    svg:hover .draw-line {
      animation: phosphor-draw-in 1.5s ease-in-out infinite;
    }
    @keyframes phosphor-draw-in {
      0%   { stroke-dashoffset: 2000; }
      100% { stroke-dashoffset: 0; }
    }
  </style><rect width="256" height="256" fill="none"/><path d="M224,64a32,32,0,1,0-40,31v17a8,8,0,0,1-8,8H80a8,8,0,0,1-8-8V95a32,32,0,1,0-16,0v17a24,24,0,0,0,24,24h40v25a32,32,0,1,0,16,0V136h40a24,24,0,0,0,24-24V95A32.06,32.06,0,0,0,224,64ZM144,192a16,16,0,1,1-16-16A16,16,0,0,1,144,192Z"/></svg>