<svg xmlns="http://www.w3.org/2000/svg" viewBox="0 0 256 256">
  <style>
    .draw-line {
      stroke-dasharray: 2000;
      stroke-dashoffset: 0;
    }
    svg:hover .draw-line {
      animation: phosphor-draw-in 1.5s ease-in-out infinite alternate;
    }
    @keyframes phosphor-draw-in {
      0%   { stroke-dashoffset: 0; }
      100% { stroke-dashoffset: 2000; }
    }
  </style><rect width="256" height="256" fill="none"/><path d="M104,64A32,32,0,1,0,64,95v66a32,32,0,1,0,16,0V95A32.06,32.06,0,0,0,104,64ZM88,192a16,16,0,1,1-16-16A16,16,0,0,1,88,192Zm144,0a32,32,0,1,1-40-31V110.63a8,8,0,0,0-2.34-5.66L152,67.31V96a8,8,0,0,1-16,0V48a8,8,0,0,1,8-8h48a8,8,0,0,1,0,16H163.31L201,93.66a23.85,23.85,0,0,1,7,17V161A32.06,32.06,0,0,1,232,192Z"/></svg>