<svg xmlns="http://www.w3.org/2000/svg" viewBox="0 0 256 256">
  <style>
    .draw-line {
      stroke-dasharray: 1;
      stroke-dashoffset: 0;
    }
    svg:hover .draw-line {
      animation: phosphor-draw-in 1.5s ease-in-out forwards;
    }
    @keyframes phosphor-draw-in {
      from { stroke-dashoffset: 1; }
      to { stroke-dashoffset: 0; }
    }
  </style><rect width="256" height="256" fill="none"/><path d="M239.82,114.18,72,18.16a16,16,0,0,0-16.12,0A15.68,15.68,0,0,0,48,31.87V224.13a15.68,15.68,0,0,0,7.92,13.67,16,16,0,0,0,16.12,0l167.78-96a15.76,15.76,0,0,0,0-27.64ZM160,139.31l18.92,18.92-88.5,50.66ZM90.4,47.1l88.53,50.67L160,116.69ZM193.31,150l-22-22,22-22,38.43,22Z"/></svg>