<svg xmlns="http://www.w3.org/2000/svg" viewBox="0 0 256 256">
  <style>
    .draw-line {
      stroke-dasharray: 1;
      stroke-dashoffset: 0;
    }
    svg:hover .draw-line {
      animation: phosphor-draw-in 1.5s ease-in-out forwards;
    }
    @keyframes phosphor-draw-in {
      from { stroke-dashoffset: 1; }
      to { stroke-dashoffset: 0; }
    }
  </style><rect width="256" height="256" fill="none"/><path d="M128,24A104,104,0,1,0,232,128,104,104,0,0,0,128,24Zm0,184A80,80,0,1,1,181.34,68.37a8,8,0,0,1-10.67,11.92A64,64,0,1,0,191.5,136H128a8,8,0,0,1,0-16h72a8,8,0,0,1,8,8A80.09,80.09,0,0,1,128,208Z"/></svg>