<svg xmlns="http://www.w3.org/2000/svg" viewBox="0 0 256 256">
  <style>
    .draw-line {
      stroke-dasharray: 2000;
      stroke-dashoffset: 0;
    }
    svg:hover .draw-line {
      animation: phosphor-draw-in 1.5s ease-in-out infinite;
    }
    @keyframes phosphor-draw-in {
      0%   { stroke-dashoffset: 2000; }
      100% { stroke-dashoffset: 0; }
    }
  </style><rect width="256" height="256" fill="none"/><path d="M208,32H48A16,16,0,0,0,32,48V208a16,16,0,0,0,16,16H208a16,16,0,0,0,16-16V48A16,16,0,0,0,208,32ZM184,184H80a8,8,0,0,1,0-16H184a8,8,0,0,1,0,16Zm2.35-64.35-104,32a8,8,0,1,1-4.7-15.3L156.8,112,77.65,87.65a8,8,0,0,1,4.7-15.3l104,32a8,8,0,0,1,0,15.3Z"/></svg>