<svg xmlns="http://www.w3.org/2000/svg" viewBox="0 0 256 256">
  <style>
    .draw-line {
      stroke-dasharray: 1;
      stroke-dashoffset: 1;
      animation: phosphor-draw-in 1.5s ease-in-out forwards;
    }
    @keyframes phosphor-draw-in {
      to { stroke-dashoffset: 0; }
    }
  </style><rect width="256" height="256" fill="none"/><path d="M216,104v48a88,88,0,0,1-176,0V136a16,16,0,0,1,32,0v8a8,8,0,0,0,16,0V88a16,16,0,0,1,32,0v16a8,8,0,0,0,16,0V88a16,16,0,0,1,32,0v16a8,8,0,0,0,16,0,16,16,0,0,1,32,0Z"/></svg>