<svg xmlns="http://www.w3.org/2000/svg" viewBox="0 0 256 256">
  <style>
    .draw-line {
      stroke-dasharray: 2000;
      stroke-dashoffset: 0;
    }
    svg:hover .draw-line {
      animation: phosphor-draw-in 1.5s ease-in-out infinite alternate;
    }
    @keyframes phosphor-draw-in {
      0%   { stroke-dashoffset: 0; }
      100% { stroke-dashoffset: 2000; }
    }
  </style><rect width="256" height="256" fill="none"/><path d="M184,96.8V88a32,32,0,0,0-32-32H136V32h32a8,8,0,0,1,8,8,8,8,0,0,0,16,0,24,24,0,0,0-24-24H104a8,8,0,0,0,0,16h16V56H104A32,32,0,0,0,72,88v8.8A40.07,40.07,0,0,0,40,136v80a16,16,0,0,0,16,16H200a16,16,0,0,0,16-16V136A40.07,40.07,0,0,0,184,96.8ZM104,72h48a16,16,0,0,1,16,16v8H88V88A16,16,0,0,1,104,72Z"/></svg>