<svg xmlns="http://www.w3.org/2000/svg" viewBox="0 0 256 256">
  <style>
    .draw-line {
      stroke-dasharray: 2000;
      stroke-dashoffset: 0;
    }
    svg:hover .draw-line {
      animation: phosphor-draw-in 1.5s ease-in-out infinite alternate;
    }
    @keyframes phosphor-draw-in {
      0%   { stroke-dashoffset: 2000; }
      100% { stroke-dashoffset: 0; }
    }
  </style><rect width="256" height="256" fill="none"/><path d="M152,152H104V40a16,16,0,0,1,16-16h16a16,16,0,0,1,16,16Zm72,16H32a16,16,0,0,0-16,16v8a16,16,0,0,0,16,16H224a16,16,0,0,0,16-16v-8A16,16,0,0,0,224,168Zm0-20V136a96.44,96.44,0,0,0-50.11-84.31A4,4,0,0,0,168,55.22V152h52A4,4,0,0,0,224,148ZM36,152H88V55.22a4,4,0,0,0-5.89-3.53A96.44,96.44,0,0,0,32,136v12A4,4,0,0,0,36,152Z"/></svg>