<svg xmlns="http://www.w3.org/2000/svg" viewBox="0 0 256 256">
  <style>
    .draw-line {
      stroke-dasharray: 2000;
      stroke-dashoffset: 0;
    }
    svg:hover .draw-line {
      animation: phosphor-draw-in 3s ease-in-out infinite alternate;
    }
    @keyframes phosphor-draw-in {
      0%   { stroke-dashoffset: 2000; }
      50%  { stroke-dashoffset: 0; }
      100% { stroke-dashoffset: 0; }
    }
  </style><rect width="256" height="256" fill="none"/><path d="M208,40H48A16,16,0,0,0,32,56v48a16,16,0,0,0,16,16H208a16,16,0,0,0,16-16V56A16,16,0,0,0,208,40ZM180,92a12,12,0,1,1,12-12A12,12,0,0,1,180,92Z"/><path d="M208,136H48a16,16,0,0,0-16,16v48a16,16,0,0,0,16,16H208a16,16,0,0,0,16-16V152A16,16,0,0,0,208,136Zm-28,52a12,12,0,1,1,12-12A12,12,0,0,1,180,188Z"/></svg>