<svg xmlns="http://www.w3.org/2000/svg" viewBox="0 0 256 256">
  <style>
    .draw-line {
      stroke-dasharray: 1;
      stroke-dashoffset: 0;
    }
    svg:hover .draw-line {
      animation: phosphor-draw-in 1.5s ease-in-out forwards;
    }
    @keyframes phosphor-draw-in {
      from { stroke-dashoffset: 1; }
      to { stroke-dashoffset: 0; }
    }
  </style><rect width="256" height="256" fill="none"/><path d="M232,128v56a24,24,0,0,1-24,24H192a24,24,0,0,1-24-24V144a24,24,0,0,1,24-24h23.65a87.71,87.71,0,0,0-87-80H128a88,88,0,0,0-87.64,80H64a24,24,0,0,1,24,24v40a24,24,0,0,1-24,24H48a24,24,0,0,1-24-24V128A104.11,104.11,0,0,1,201.89,54.66,103.41,103.41,0,0,1,232,128Z"/></svg>