<svg xmlns="http://www.w3.org/2000/svg" viewBox="0 0 256 256">
  <style>
    .draw-line {
      stroke-dasharray: 1;
      stroke-dashoffset: 0;
    }
    svg:hover .draw-line {
      animation: phosphor-draw-in 1.5s ease-in-out infinite;
    }
    @keyframes phosphor-draw-in {
      0%   { stroke-dashoffset: 1; }
      100% { stroke-dashoffset: 0; }
    }
  </style><rect width="256" height="256" fill="none"/><path d="M224,120v96a8,8,0,0,1-8,8H160a8,8,0,0,1-8-8V164a4,4,0,0,0-4-4H108a4,4,0,0,0-4,4v52a8,8,0,0,1-8,8H40a8,8,0,0,1-8-8V120a16,16,0,0,1,4.69-11.31l80-80a16,16,0,0,1,22.62,0l80,80A16,16,0,0,1,224,120Z"/></svg>