<svg xmlns="http://www.w3.org/2000/svg" viewBox="0 0 256 256">
  <style>
    .draw-line {
      stroke-dasharray: 2000;
      stroke-dashoffset: 0;
    }
    svg:hover .draw-line {
      animation: phosphor-draw-in 1.5s ease-in-out infinite alternate;
    }
    @keyframes phosphor-draw-in {
      0%   { stroke-dashoffset: 2000; }
      100% { stroke-dashoffset: 0; }
    }
  </style><rect width="256" height="256" fill="none"/><path d="M208,32H80A16,16,0,0,0,64,48V64H48A16,16,0,0,0,32,80V208a16,16,0,0,0,16,16H176a16,16,0,0,0,16-16V192h16a16,16,0,0,0,16-16V48A16,16,0,0,0,208,32ZM80,48H208v69.38l-16.7-16.7a16,16,0,0,0-22.62,0L93.37,176H80Zm96,160H48V80H64v96a16,16,0,0,0,16,16h96ZM104,88a16,16,0,1,1,16,16A16,16,0,0,1,104,88Z"/></svg>