<svg xmlns="http://www.w3.org/2000/svg" viewBox="0 0 256 256">
  <style>
    .draw-line {
      stroke-dasharray: 2000;
      stroke-dashoffset: 0;
    }
    svg:hover .draw-line {
      animation: phosphor-draw-in 3s ease-in-out infinite alternate;
    }
    @keyframes phosphor-draw-in {
      0%   { stroke-dashoffset: 2000; }
      50%  { stroke-dashoffset: 0; }
      100% { stroke-dashoffset: 0; }
    }
  </style><rect width="256" height="256" fill="none"/><path d="M216,40H40A16,16,0,0,0,24,56V200a16,16,0,0,0,16,16H216a16,16,0,0,0,16-16V56A16,16,0,0,0,216,40ZM204.28,156.28a40,40,0,0,1-56.4.17L97.29,111.34,97,111A24,24,0,1,0,97,145c.36-.36.71-.73,1-1.1a8,8,0,1,1,12,10.6c-.55.62-1.13,1.23-1.71,1.81a40,40,0,1,1-.17-56.73l50.58,45.11.33.31A24,24,0,1,0,159,111c-.36.36-.7.72-1,1.1a8,8,0,0,1-12-10.59c.54-.62,1.12-1.24,1.71-1.82a40,40,0,0,1,56.57,56.56Z"/></svg>