<svg xmlns="http://www.w3.org/2000/svg" viewBox="0 0 256 256">
  <style>
    .draw-line {
      stroke-dasharray: 1;
      stroke-dashoffset: 0;
    }
    svg:hover .draw-line {
      animation: phosphor-draw-in 1.5s ease-in-out forwards;
    }
    @keyframes phosphor-draw-in {
      from { stroke-dashoffset: 1; }
      to { stroke-dashoffset: 0; }
    }
  </style><rect width="256" height="256" fill="none"/><path d="M128,24A104,104,0,1,0,232,128,104.11,104.11,0,0,0,128,24Zm-4,48a12,12,0,1,1-12,12A12,12,0,0,1,124,72Zm12,112a16,16,0,0,1-16-16V128a8,8,0,0,1,0-16,16,16,0,0,1,16,16v40a8,8,0,0,1,0,16Z"/></svg>