<svg xmlns="http://www.w3.org/2000/svg" viewBox="0 0 256 256">
  <style>
    .draw-line {
      stroke-dasharray: 1;
      stroke-dashoffset: 0;
    }
    svg:hover .draw-line {
      animation: phosphor-draw-in 1.5s ease-in-out infinite;
    }
    @keyframes phosphor-draw-in {
      0%   { stroke-dashoffset: 1; }
      100% { stroke-dashoffset: 0; }
    }
  </style><rect width="256" height="256" fill="none"/><path d="M160,128a32,32,0,1,1-32-32A32,32,0,0,1,160,128Zm72-48v96a56.06,56.06,0,0,1-56,56H80a56.06,56.06,0,0,1-56-56V80A56.06,56.06,0,0,1,80,24h96A56.06,56.06,0,0,1,232,80Zm-56,48a48,48,0,1,0-48,48A48.05,48.05,0,0,0,176,128Zm24-60a12,12,0,1,0-12,12A12,12,0,0,0,200,68Z"/></svg>