<svg xmlns="http://www.w3.org/2000/svg" viewBox="0 0 256 256">
  <style>
    .draw-line {
      stroke-dasharray: 2000;
      stroke-dashoffset: 0;
    }
    svg:hover .draw-line {
      animation: phosphor-draw-in 3s ease-in-out infinite alternate;
    }
    @keyframes phosphor-draw-in {
      0%   { stroke-dashoffset: 2000; }
      50%  { stroke-dashoffset: 0; }
      100% { stroke-dashoffset: 0; }
    }
  </style><rect width="256" height="256" fill="none"/><path d="M174.63,81.37a80,80,0,1,0-93.26,93.26,80,80,0,1,0,93.26-93.26ZM32,96a64,64,0,0,1,126-16A80.08,80.08,0,0,0,80.05,158,64.11,64.11,0,0,1,32,96ZM160,224A64.11,64.11,0,0,1,98,176,80.08,80.08,0,0,0,176,98,64,64,0,0,1,160,224Z"/></svg>