<svg xmlns="http://www.w3.org/2000/svg" viewBox="0 0 256 256">
  <style>
    .draw-line {
      stroke-dasharray: 1;
      stroke-dashoffset: 0;
    }
    svg:hover .draw-line {
      animation: phosphor-draw-in 1.5s ease-in-out forwards;
    }
    @keyframes phosphor-draw-in {
      from { stroke-dashoffset: 1; }
      to { stroke-dashoffset: 0; }
    }
  </style><rect width="256" height="256" fill="none"/><path d="M224,160v48a16,16,0,0,1-16,16H48a16,16,0,0,1-16-16V160a16,16,0,0,1,16-16h72V95.19a40,40,0,1,1,16,0V144h72A16,16,0,0,1,224,160Zm-64-40a8,8,0,0,0,8,8h32a8,8,0,0,0,0-16H168A8,8,0,0,0,160,120Z"/></svg>