<svg xmlns="http://www.w3.org/2000/svg" viewBox="0 0 256 256">
  <style>
    .draw-line {
      stroke-dasharray: 2000;
      stroke-dashoffset: 0;
    }
    svg:hover .draw-line {
      animation: phosphor-draw-in 1.5s ease-in-out infinite alternate;
    }
    @keyframes phosphor-draw-in {
      0%   { stroke-dashoffset: 0; }
      100% { stroke-dashoffset: 2000; }
    }
  </style><rect width="256" height="256" fill="none"/><path d="M192,24a8,8,0,0,0-8,8v8H72V32a8,8,0,0,0-16,0V224a8,8,0,0,0,16,0v-8H184v8a8,8,0,0,0,16,0V32A8,8,0,0,0,192,24ZM176,184H80a8,8,0,0,1,0-16h96a8,8,0,0,1,0,16Zm0-48H80a8,8,0,0,1,0-16h96a8,8,0,0,1,0,16Zm0-48H80a8,8,0,0,1,0-16h96a8,8,0,0,1,0,16Z"/></svg>