<svg xmlns="http://www.w3.org/2000/svg" viewBox="0 0 256 256">
  <style>
    .draw-line {
      stroke-dasharray: 2000;
      stroke-dashoffset: 0;
    }
    svg:hover .draw-line {
      animation: phosphor-draw-in 1.5s ease-in-out infinite alternate;
    }
    @keyframes phosphor-draw-in {
      0%   { stroke-dashoffset: 0; }
      100% { stroke-dashoffset: 2000; }
    }
  </style><rect width="256" height="256" fill="none"/><path d="M176,74.78V72a16,16,0,0,0-16-16H136V16a8,8,0,0,0-16,0V56H96A16,16,0,0,0,80,72v2.78A111.73,111.73,0,0,0,16,176a8,8,0,0,0,8,8H88a40,40,0,0,0,80,0h64a8,8,0,0,0,8-8A111.73,111.73,0,0,0,176,74.78ZM128,208a24,24,0,0,1-24-24h48A24,24,0,0,1,128,208Z"/></svg>