<svg xmlns="http://www.w3.org/2000/svg" viewBox="0 0 256 256">
  <style>
    .draw-line {
      stroke-dasharray: 2000;
      stroke-dashoffset: 0;
    }
    svg:hover .draw-line {
      animation: phosphor-draw-in 1.5s ease-in-out infinite alternate;
    }
    @keyframes phosphor-draw-in {
      0%   { stroke-dashoffset: 2000; }
      100% { stroke-dashoffset: 0; }
    }
  </style><rect width="256" height="256" fill="none"/><path d="M156,116a20,20,0,0,1-20,20H112V96h24A20,20,0,0,1,156,116Zm76,12A104,104,0,1,1,128,24,104.11,104.11,0,0,1,232,128Zm-60-12a36,36,0,0,0-36-36H104a8,8,0,0,0-8,8v80a8,8,0,0,0,16,0V152h24A36,36,0,0,0,172,116Z"/></svg>