<svg xmlns="http://www.w3.org/2000/svg" viewBox="0 0 256 256">
  <style>
    .draw-line {
      stroke-dasharray: 2000;
      stroke-dashoffset: 0;
    }
    svg:hover .draw-line {
      animation: phosphor-draw-in 1.5s ease-in-out infinite;
    }
    @keyframes phosphor-draw-in {
      0%   { stroke-dashoffset: 2000; }
      100% { stroke-dashoffset: 0; }
    }
  </style><rect width="256" height="256" fill="none"/><path d="M224,48H32A16,16,0,0,0,16,64V192a16,16,0,0,0,16,16H224a16,16,0,0,0,16-16V64A16,16,0,0,0,224,48ZM112,168H80a40,40,0,0,1,0-80h32a8,8,0,0,1,0,16H80a24,24,0,0,0,0,48h32a8,8,0,0,1,0,16Zm48-48a8,8,0,0,1,0,16H96a8,8,0,0,1,0-16Zm16,48H144a8,8,0,0,1,0-16h32a24,24,0,0,0,0-48H144a8,8,0,0,1,0-16h32a40,40,0,0,1,0,80Z"/></svg>