<svg xmlns="http://www.w3.org/2000/svg" viewBox="0 0 256 256">
  <style>
    .draw-line {
      stroke-dasharray: 1;
      stroke-dashoffset: 0;
    }
    svg:hover .draw-line {
      animation: phosphor-draw-in 1.5s ease-in-out infinite;
    }
    @keyframes phosphor-draw-in {
      0%   { stroke-dashoffset: 1; }
      100% { stroke-dashoffset: 0; }
    }
  </style><rect width="256" height="256" fill="none"/><path d="M208,32H48A16,16,0,0,0,32,48V208a16,16,0,0,0,16,16H208a16,16,0,0,0,16-16V48A16,16,0,0,0,208,32ZM72,184H64a8,8,0,0,1,0-16h8a8,8,0,0,1,0,16Zm0-48H64a8,8,0,0,1,0-16h8a8,8,0,0,1,0,16Zm0-48H64a8,8,0,0,1,0-16h8a8,8,0,0,1,0,16Zm120,96H104a8,8,0,0,1,0-16h88a8,8,0,0,1,0,16Zm0-48H104a8,8,0,0,1,0-16h88a8,8,0,0,1,0,16Zm0-48H104a8,8,0,0,1,0-16h88a8,8,0,0,1,0,16Z"/></svg>