<svg xmlns="http://www.w3.org/2000/svg" viewBox="0 0 256 256">
  <style>
    .draw-line {
      stroke-dasharray: 2000;
      stroke-dashoffset: 0;
    }
    svg:hover .draw-line {
      animation: phosphor-draw-in 1.5s ease-in-out infinite alternate;
    }
    @keyframes phosphor-draw-in {
      0%   { stroke-dashoffset: 2000; }
      100% { stroke-dashoffset: 0; }
    }
  </style><rect width="256" height="256" fill="none"/><path d="M208,32H48A16,16,0,0,0,32,48V208a16,16,0,0,0,16,16H208a16,16,0,0,0,16-16V48A16,16,0,0,0,208,32ZM64,72H192a8,8,0,0,1,0,16H64a8,8,0,0,1,0-16Zm56,112H64a8,8,0,0,1,0-16h56a8,8,0,0,1,0,16Zm16-48H64a8,8,0,0,1,0-16h72a8,8,0,0,1,0,16Zm64,32H184v16a8,8,0,0,1-16,0V168H152a8,8,0,0,1,0-16h16V136a8,8,0,0,1,16,0v16h16a8,8,0,0,1,0,16Z"/></svg>