<svg xmlns="http://www.w3.org/2000/svg" viewBox="0 0 256 256">
  <style>
    .draw-line {
      stroke-dasharray: 1;
      stroke-dashoffset: 0;
    }
    svg:hover .draw-line {
      animation: phosphor-draw-in 1.5s ease-in-out infinite;
    }
    @keyframes phosphor-draw-in {
      0%   { stroke-dashoffset: 1; }
      100% { stroke-dashoffset: 0; }
    }
  </style><rect width="256" height="256" fill="none"/><path d="M32,64a8,8,0,0,1,8-8H216a8,8,0,0,1,0,16H40A8,8,0,0,1,32,64Zm8,72h72a8,8,0,0,0,0-16H40a8,8,0,0,0,0,16Zm88,48H40a8,8,0,0,0,0,16h88a8,8,0,0,0,0-16Zm109.66,2.34L217.36,166A40,40,0,1,0,206,177.36l20.3,20.3a8,8,0,0,0,11.32-11.32Z"/></svg>