<svg xmlns="http://www.w3.org/2000/svg" viewBox="0 0 256 256">
  <style>
    .draw-line {
      stroke-dasharray: 2000;
      stroke-dashoffset: 0;
    }
    svg:hover .draw-line {
      animation: phosphor-draw-in 1.5s ease-in-out infinite;
    }
    @keyframes phosphor-draw-in {
      0%   { stroke-dashoffset: 2000; }
      100% { stroke-dashoffset: 0; }
    }
  </style><rect width="256" height="256" fill="none"/><path d="M208,32H48A16,16,0,0,0,32,48V224a8,8,0,0,0,16,0V208h72v16a8,8,0,0,0,16,0V208h72v16a8,8,0,0,0,16,0V48A16,16,0,0,0,208,32ZM96,112H56a8,8,0,0,1,0-16H96a8,8,0,0,1,0,16Zm0-32H56a8,8,0,0,1,0-16H96a8,8,0,0,1,0,16Zm40,104a8,8,0,0,1-16,0V56a8,8,0,0,1,16,0Zm64-72H160a8,8,0,0,1,0-16h40a8,8,0,0,1,0,16Zm0-32H160a8,8,0,0,1,0-16h40a8,8,0,0,1,0,16Z"/></svg>