<svg xmlns="http://www.w3.org/2000/svg" viewBox="0 0 256 256">
  <style>
    .draw-line {
      stroke-dasharray: 2000;
      stroke-dashoffset: 0;
    }
    svg:hover .draw-line {
      animation: phosphor-draw-in 1.5s ease-in-out infinite;
    }
    @keyframes phosphor-draw-in {
      0%   { stroke-dashoffset: 2000; }
      100% { stroke-dashoffset: 0; }
    }
  </style><rect width="256" height="256" fill="none"/><path d="M224,96V208a16,16,0,0,1-16,16H48a16,16,0,0,1-16-16V96A16,16,0,0,1,48,80H80V56A48.05,48.05,0,0,1,128,8c23.2,0,43.32,16.15,47.84,38.41a8,8,0,0,1-15.68,3.18C157.2,35,143.37,24,128,24A32,32,0,0,0,96,56V80H208A16,16,0,0,1,224,96Z"/></svg>