<svg xmlns="http://www.w3.org/2000/svg" viewBox="0 0 256 256">
  <style>
    .draw-line {
      stroke-dasharray: 2000;
      stroke-dashoffset: 0;
    }
    svg:hover .draw-line {
      animation: phosphor-draw-in 1.5s ease-in-out infinite alternate;
    }
    @keyframes phosphor-draw-in {
      0%   { stroke-dashoffset: 2000; }
      100% { stroke-dashoffset: 0; }
    }
  </style><rect width="256" height="256" fill="none"/><path d="M200,40H160a16,16,0,0,0-16,16v88a16,16,0,0,1-32,0V56A16,16,0,0,0,96,40H56A16,16,0,0,0,40,56v88a88,88,0,0,0,88,88h.67c48.15-.36,87.33-40.29,87.33-89V56A16,16,0,0,0,200,40Zm0,16V96H160V56ZM96,56V96H56V56Z"/></svg>