<svg xmlns="http://www.w3.org/2000/svg" viewBox="0 0 256 256">
  <style>
    .draw-line {
      stroke-dasharray: 1;
      stroke-dashoffset: 0;
    }
    svg:hover .draw-line {
      animation: phosphor-draw-in 1.5s ease-in-out forwards;
    }
    @keyframes phosphor-draw-in {
      from { stroke-dashoffset: 1; }
      to { stroke-dashoffset: 0; }
    }
  </style><rect width="256" height="256" fill="none"/><path d="M184,32H72A40,40,0,0,0,32,72V192a40,40,0,0,0,40,40h88a8,8,0,0,0,0-16H72a24,24,0,0,1-24-24v-8H184a40,40,0,0,0,40-40V72A40,40,0,0,0,184,32Zm0,104a8,8,0,0,1-16,0V104a16,16,0,0,0-32,0v32a8,8,0,0,1-16,0V104a16,16,0,0,0-32,0v32a8,8,0,0,1-16,0V104a32,32,0,0,1,56-21.13A32,32,0,0,1,184,104Z"/></svg>