<svg xmlns="http://www.w3.org/2000/svg" viewBox="0 0 256 256">
  <style>
    .draw-line {
      stroke-dasharray: 2000;
      stroke-dashoffset: 0;
    }
    svg:hover .draw-line {
      animation: phosphor-draw-in 1.5s ease-in-out infinite alternate;
    }
    @keyframes phosphor-draw-in {
      0%   { stroke-dashoffset: 2000; }
      100% { stroke-dashoffset: 0; }
    }
  </style><rect width="256" height="256" fill="none"/><path d="M88,144a16,16,0,1,1,16-16A16,16,0,0,1,88,144Zm144-32v96a16,16,0,0,1-16,16H88a16,16,0,0,1-16-16V192H40a16,16,0,0,1-16-16V80A16,16,0,0,1,40,64H96V40a8,8,0,0,1,8-8h96a8,8,0,0,1,8,8v64h16A8,8,0,0,1,232,112ZM112,64h24a16,16,0,0,1,16,16v74.13l40-28.89V48H112ZM88,160a32,32,0,1,0-32-32A32,32,0,0,0,88,160Zm111.26,48L152,173.87V176a16,16,0,0,1-16,16H88v16ZM216,127.65,165.66,164,216,200.35Z"/></svg>