<svg xmlns="http://www.w3.org/2000/svg" viewBox="0 0 256 256">
  <style>
    .draw-line {
      stroke-dasharray: 2000;
      stroke-dashoffset: 0;
    }
    svg:hover .draw-line {
      animation: phosphor-draw-in 1.5s ease-in-out infinite alternate;
    }
    @keyframes phosphor-draw-in {
      0%   { stroke-dashoffset: 0; }
      100% { stroke-dashoffset: 2000; }
    }
  </style><rect width="256" height="256" fill="none"/><path d="M168,224a8,8,0,0,1-8,8H96a8,8,0,0,1,0-16h64A8,8,0,0,1,168,224ZM232,64V176a24,24,0,0,1-24,24H48a24,24,0,0,1-24-24V64A24,24,0,0,1,48,40H208A24,24,0,0,1,232,64Zm-68,56a8,8,0,0,0-3.41-6.55l-40-28A8,8,0,0,0,108,92v56a8,8,0,0,0,12.59,6.55l40-28A8,8,0,0,0,164,120Z"/></svg>