<svg xmlns="http://www.w3.org/2000/svg" viewBox="0 0 256 256">
  <style>
    .draw-line {
      stroke-dasharray: 1;
      stroke-dashoffset: 0;
    }
    svg:hover .draw-line {
      animation: phosphor-draw-in 1.5s ease-in-out forwards;
    }
    @keyframes phosphor-draw-in {
      from { stroke-dashoffset: 1; }
      to { stroke-dashoffset: 0; }
    }
  </style><rect width="256" height="256" fill="none"/><path d="M208,40H167.2a40,40,0,0,0-78.4,0H48a8,8,0,0,0,0,16H88.8a40,40,0,0,0,12.58,21.82A64.08,64.08,0,0,0,64,136v64a16,16,0,0,0,16,16H96a32,32,0,0,0,64,0h16a16,16,0,0,0,16-16V136a64.08,64.08,0,0,0-37.38-58.18A40,40,0,0,0,167.2,56H208a8,8,0,0,0,0-16ZM144,216a16,16,0,0,1-32,0V168a16,16,0,0,1,32,0ZM128,72a24,24,0,1,1,24-24A24,24,0,0,1,128,72Z"/></svg>