<svg xmlns="http://www.w3.org/2000/svg" viewBox="0 0 256 256">
  <style>
    .draw-line {
      stroke-dasharray: 2000;
      stroke-dashoffset: 0;
    }
    svg:hover .draw-line {
      animation: phosphor-draw-in 1.5s ease-in-out infinite alternate;
    }
    @keyframes phosphor-draw-in {
      0%   { stroke-dashoffset: 0; }
      100% { stroke-dashoffset: 2000; }
    }
  </style><rect width="256" height="256" fill="none"/><path d="M216,48H56A16,16,0,0,0,40,64V184a8,8,0,0,1-16,0V88A8,8,0,0,0,8,88v96.11A24,24,0,0,0,32,208H208a24,24,0,0,0,24-24V64A16,16,0,0,0,216,48ZM176,152H96a8,8,0,0,1,0-16h80a8,8,0,0,1,0,16Zm0-32H96a8,8,0,0,1,0-16h80a8,8,0,0,1,0,16Z"/></svg>