<svg xmlns="http://www.w3.org/2000/svg" viewBox="0 0 256 256">
  <style>
    .draw-line {
      stroke-dasharray: 2000;
      stroke-dashoffset: 0;
    }
    svg:hover .draw-line {
      animation: phosphor-draw-in 1.5s ease-in-out infinite alternate;
    }
    @keyframes phosphor-draw-in {
      0%   { stroke-dashoffset: 0; }
      100% { stroke-dashoffset: 2000; }
    }
  </style><rect width="256" height="256" fill="none"/><path d="M224,48a8,8,0,0,1-8,8H200V208a8,8,0,0,1-8,8H152a8,8,0,0,1-7-4.14L72,79.15V200H88a8,8,0,0,1,0,16H40a8,8,0,0,1,0-16H56V56H40a8,8,0,0,1,0-16h64a8,8,0,0,1,7,4.14l73,132.71V56H168a8,8,0,0,1,0-16h48A8,8,0,0,1,224,48Z"/></svg>