<svg xmlns="http://www.w3.org/2000/svg" viewBox="0 0 256 256">
  <style>
    .draw-line {
      stroke-dasharray: 2000;
      stroke-dashoffset: 0;
    }
    svg:hover .draw-line {
      animation: phosphor-draw-in 3s ease-in-out infinite alternate;
    }
    @keyframes phosphor-draw-in {
      0%   { stroke-dashoffset: 2000; }
      50%  { stroke-dashoffset: 0; }
      100% { stroke-dashoffset: 0; }
    }
  </style><rect width="256" height="256" fill="none"/><path d="M216,128v80a16,16,0,0,1-16,16H48a16,16,0,0,1-16-16V56A16,16,0,0,1,48,40h80a8,8,0,0,1,0,16H48V208H200V128a8,8,0,0,1,16,0ZM196,24a36,36,0,1,0,36,36A36,36,0,0,0,196,24Z"/></svg>