<svg xmlns="http://www.w3.org/2000/svg" viewBox="0 0 256 256">
  <style>
    .draw-line {
      stroke-dasharray: 2000;
      stroke-dashoffset: 0;
    }
    svg:hover .draw-line {
      animation: phosphor-draw-in 1.5s ease-in-out infinite alternate;
    }
    @keyframes phosphor-draw-in {
      0%   { stroke-dashoffset: 2000; }
      100% { stroke-dashoffset: 0; }
    }
  </style><rect width="256" height="256" fill="none"/><path d="M208,32H48A16,16,0,0,0,32,48V208a16,16,0,0,0,16,16H208a16,16,0,0,0,16-16V48A16,16,0,0,0,208,32ZM124,184a35.71,35.71,0,0,1-25.71-10.81A8,8,0,1,1,109.71,162,20,20,0,1,0,124,128a8,8,0,0,1-6.55-12.59L136.63,88H104a8,8,0,0,1,0-16h48a8,8,0,0,1,6.55,12.59l-21,30A36,36,0,0,1,124,184Z"/></svg>