<svg xmlns="http://www.w3.org/2000/svg" viewBox="0 0 256 256">
  <style>
    .draw-line {
      stroke-dasharray: 1;
      stroke-dashoffset: 0;
    }
    svg:hover .draw-line {
      animation: phosphor-draw-in 1.5s ease-in-out infinite;
    }
    @keyframes phosphor-draw-in {
      0%   { stroke-dashoffset: 1; }
      100% { stroke-dashoffset: 0; }
    }
  </style><rect width="256" height="256" fill="none"/><path d="M145.33,118l0,0A20,20,0,1,1,138,90.68,20,20,0,0,1,145.31,118ZM232,128A104,104,0,1,1,128,24,104.11,104.11,0,0,1,232,128ZM146,76.82A36,36,0,1,0,127.94,144q.94,0,1.89-.06l-16.7,28a8,8,0,0,0,2.77,11,8,8,0,0,0,11-2.77L159.18,126A36.05,36.05,0,0,0,146,76.82Z"/></svg>