<svg xmlns="http://www.w3.org/2000/svg" viewBox="0 0 256 256">
  <style>
    .draw-line {
      stroke-dasharray: 2000;
      stroke-dashoffset: 0;
    }
    svg:hover .draw-line {
      animation: phosphor-draw-in 1.5s ease-in-out infinite alternate;
    }
    @keyframes phosphor-draw-in {
      0%   { stroke-dashoffset: 2000; }
      100% { stroke-dashoffset: 0; }
    }
  </style><rect width="256" height="256" fill="none"/><path d="M200,24H56A16,16,0,0,0,40,40V216a16,16,0,0,0,16,16H200a16,16,0,0,0,16-16V40A16,16,0,0,0,200,24ZM80,164a12,12,0,1,1,12-12A12,12,0,0,1,80,164Zm0-40a12,12,0,1,1,12-12A12,12,0,0,1,80,124Zm0-40A12,12,0,1,1,92,72,12,12,0,0,1,80,84Zm48,120a12,12,0,1,1,12-12A12,12,0,0,1,128,204Zm0-40a12,12,0,1,1,12-12A12,12,0,0,1,128,164Zm0-40a12,12,0,1,1,12-12A12,12,0,0,1,128,124Zm0-40a12,12,0,1,1,12-12A12,12,0,0,1,128,84Zm48,80a12,12,0,1,1,12-12A12,12,0,0,1,176,164Zm0-40a12,12,0,1,1,12-12A12,12,0,0,1,176,124Zm0-40a12,12,0,1,1,12-12A12,12,0,0,1,176,84Z"/></svg>