<svg xmlns="http://www.w3.org/2000/svg" viewBox="0 0 256 256">
  <style>
    .draw-line {
      stroke-dasharray: 1;
      stroke-dashoffset: 1;
      animation: phosphor-draw-in 1.5s ease-in-out forwards;
    }
    @keyframes phosphor-draw-in {
      to { stroke-dashoffset: 0; }
    }
  </style><rect width="256" height="256" fill="none"/><path d="M227.31,80.23,175.77,28.69A16.13,16.13,0,0,0,164.45,24H91.55a16.13,16.13,0,0,0-11.32,4.69L28.69,80.23A16.13,16.13,0,0,0,24,91.55v72.9a16.13,16.13,0,0,0,4.69,11.32l51.54,51.54A16.13,16.13,0,0,0,91.55,232h72.9a16.13,16.13,0,0,0,11.32-4.69l51.54-51.54A16.13,16.13,0,0,0,232,164.45V91.55A16.13,16.13,0,0,0,227.31,80.23Z"/></svg>