<svg xmlns="http://www.w3.org/2000/svg" viewBox="0 0 256 256">
  <style>
    .draw-line {
      stroke-dasharray: 2000;
      stroke-dashoffset: 0;
    }
    svg:hover .draw-line {
      animation: phosphor-draw-in 3s ease-in-out infinite alternate;
    }
    @keyframes phosphor-draw-in {
      0%   { stroke-dashoffset: 2000; }
      50%  { stroke-dashoffset: 0; }
      100% { stroke-dashoffset: 0; }
    }
  </style><rect width="256" height="256" fill="none"/><path d="M165.87,72.58A64.06,64.06,0,0,0,200,16a8,8,0,0,0-8-8h-8a64,64,0,0,0-56,33.06A64,64,0,0,0,72,8H64a8,8,0,0,0,0,16h8a48.08,48.08,0,0,1,47.4,40.42,88,88,0,1,0,46.47,8.16ZM183.33,24a48.09,48.09,0,0,1-46.66,40A48.09,48.09,0,0,1,183.33,24Zm.56,137.32a57.5,57.5,0,0,1-46.57,46.57A8.52,8.52,0,0,1,136,208a8,8,0,0,1-1.31-15.89,41.29,41.29,0,0,0,33.43-33.43,8,8,0,0,1,15.78,2.64Z"/></svg>