<svg xmlns="http://www.w3.org/2000/svg" viewBox="0 0 256 256">
  <style>
    .draw-line {
      stroke-dasharray: 1;
      stroke-dashoffset: 0;
    }
    svg:hover .draw-line {
      animation: phosphor-draw-in 1.5s ease-in-out infinite;
    }
    @keyframes phosphor-draw-in {
      0%   { stroke-dashoffset: 1; }
      100% { stroke-dashoffset: 0; }
    }
  </style><rect width="256" height="256" fill="none"/><path d="M216,24H72A40,40,0,0,0,32,64v72a24,24,0,0,0,24,24h48l-7.89,46.67A8.42,8.42,0,0,0,96,208a32,32,0,0,0,64,0,8.42,8.42,0,0,0-.11-1.33L152,160h48a24,24,0,0,0,24-24V32A8,8,0,0,0,216,24ZM72,40H176V80a8,8,0,0,0,16,0V40h16v72H48V64A24,24,0,0,1,72,40Z"/></svg>