<svg xmlns="http://www.w3.org/2000/svg" viewBox="0 0 256 256">
  <style>
    .draw-line {
      stroke-dasharray: 2000;
      stroke-dashoffset: 0;
    }
    svg:hover .draw-line {
      animation: phosphor-draw-in 3s ease-in-out infinite alternate;
    }
    @keyframes phosphor-draw-in {
      0%   { stroke-dashoffset: 2000; }
      50%  { stroke-dashoffset: 0; }
      100% { stroke-dashoffset: 0; }
    }
  </style><rect width="256" height="256" fill="none"/><path d="M243.31,81.36,174.63,12.68a16,16,0,0,0-22.63,0L123.56,41.12l-58,21.76A16,16,0,0,0,55.36,75.23L34.59,199.83a4,4,0,0,0,6.77,3.49l57-57a23.85,23.85,0,0,1-2.29-12.08,24,24,0,1,1,13.6,23.4l-57,57a4,4,0,0,0,3.49,6.77l124.61-20.77a16,16,0,0,0,12.35-10.16l21.77-58.07L243.31,104a16,16,0,0,0,0-22.63ZM208,116.68,139.32,48l24-24L232,92.68Z"/></svg>