<svg xmlns="http://www.w3.org/2000/svg" viewBox="0 0 256 256">
  <style>
    .draw-line {
      stroke-dasharray: 1;
      stroke-dashoffset: 0;
    }
    svg:hover .draw-line {
      animation: phosphor-draw-in 1.5s ease-in-out forwards;
    }
    @keyframes phosphor-draw-in {
      from { stroke-dashoffset: 1; }
      to { stroke-dashoffset: 0; }
    }
  </style><rect width="256" height="256" fill="none"/><path d="M96,48a32,32,0,1,1,32,32A32,32,0,0,1,96,48ZM216,96H40a8,8,0,0,0,0,16h80v28.44L42.65,210.05A8,8,0,0,0,53.35,222l76.2-68.58L176,173.28V216a8,8,0,0,0,16,0V168a8,8,0,0,0-4.85-7.35L136,138.72V112h80a8,8,0,0,0,0-16Z"/></svg>