<svg xmlns="http://www.w3.org/2000/svg" viewBox="0 0 256 256">
  <style>
    .draw-line {
      stroke-dasharray: 2000;
      stroke-dashoffset: 0;
    }
    svg:hover .draw-line {
      animation: phosphor-draw-in 1.5s ease-in-out infinite alternate;
    }
    @keyframes phosphor-draw-in {
      0%   { stroke-dashoffset: 2000; }
      100% { stroke-dashoffset: 0; }
    }
  </style><rect width="256" height="256" fill="none"/><path d="M208,32H48A16,16,0,0,0,32,48V208a16,16,0,0,0,16,16H208a16,16,0,0,0,16-16V48A16,16,0,0,0,208,32ZM172,168a12,12,0,0,0,12-12,8,8,0,0,1,16,0,28,28,0,0,1-56,0V96H112v80a8,8,0,0,1-16,0V96H88a24,24,0,0,0-24,24,8,8,0,0,1-16,0A40,40,0,0,1,88,80H192a8,8,0,0,1,0,16H160v60A12,12,0,0,0,172,168Z"/></svg>