<svg xmlns="http://www.w3.org/2000/svg" viewBox="0 0 256 256">
  <style>
    .draw-line {
      stroke-dasharray: 2000;
      stroke-dashoffset: 0;
    }
    svg:hover .draw-line {
      animation: phosphor-draw-in 3s ease-in-out infinite alternate;
    }
    @keyframes phosphor-draw-in {
      0%   { stroke-dashoffset: 2000; }
      50%  { stroke-dashoffset: 0; }
      100% { stroke-dashoffset: 0; }
    }
  </style><rect width="256" height="256" fill="none"/><path d="M208,32H48A16,16,0,0,0,32,48V208a16,16,0,0,0,16,16H208a16,16,0,0,0,16-16V48A16,16,0,0,0,208,32ZM88,208H48V48H72v96a8,8,0,0,0,8,8h8Zm64,0H104V152h8a8,8,0,0,0,8-8V48h16v96a8,8,0,0,0,8,8h8Zm56,0H168V152h8a8,8,0,0,0,8-8V48h24V208Z"/></svg>