<svg xmlns="http://www.w3.org/2000/svg" viewBox="0 0 256 256">
  <style>
    .draw-line {
      stroke-dasharray: 1;
      stroke-dashoffset: 1;
      animation: phosphor-draw-in 1.5s ease-in-out forwards;
    }
    @keyframes phosphor-draw-in {
      to { stroke-dashoffset: 0; }
    }
  </style><rect width="256" height="256" fill="none"/><path d="M239.54,63a15.91,15.91,0,0,0-7.25-9.9,201.49,201.49,0,0,0-208.58,0,16,16,0,0,0-5.37,22l96,157.27a16,16,0,0,0,27.36,0l96-157.27A15.82,15.82,0,0,0,239.54,63Zm-55.1,68.53a40,40,0,0,0-41.38,67.77L128,224,96.5,172.43a40,40,0,1,0-41.35-67.76L48.8,94.26a152,152,0,0,1,158.39,0Z"/></svg>