<svg xmlns="http://www.w3.org/2000/svg" viewBox="0 0 256 256">
  <style>
    .draw-line {
      stroke-dasharray: 2000;
      stroke-dashoffset: 0;
    }
    svg:hover .draw-line {
      animation: phosphor-draw-in 1.5s ease-in-out infinite alternate;
    }
    @keyframes phosphor-draw-in {
      0%   { stroke-dashoffset: 0; }
      100% { stroke-dashoffset: 2000; }
    }
  </style><rect width="256" height="256" fill="none"/><path d="M128,8A72.08,72.08,0,0,0,56,80v96a16,16,0,0,0,16,16h32v40a24,24,0,0,0,48,0V192h32a16,16,0,0,0,16-16V80A72.08,72.08,0,0,0,128,8ZM112,152a8,8,0,0,1-16,0V72a8,8,0,0,1,16,0Zm24,80a8,8,0,0,1-16,0V192h16Zm24-80a8,8,0,0,1-16,0V72a8,8,0,0,1,16,0Z"/></svg>