<svg xmlns="http://www.w3.org/2000/svg" viewBox="0 0 256 256">
  <style>
    .draw-line {
      stroke-dasharray: 2000;
      stroke-dashoffset: 0;
    }
    svg:hover .draw-line {
      animation: phosphor-draw-in 1.5s ease-in-out infinite;
    }
    @keyframes phosphor-draw-in {
      0%   { stroke-dashoffset: 2000; }
      100% { stroke-dashoffset: 0; }
    }
  </style><rect width="256" height="256" fill="none"/><path d="M128,120H96V72h32a24,24,0,0,1,0,48Zm96-72V208a16,16,0,0,1-16,16H48a16,16,0,0,1-16-16V48A16,16,0,0,1,48,32H208A16,16,0,0,1,224,48ZM189.66,186.34,175.31,172l14.35-14.34a8,8,0,0,0-11.32-11.32L164,160.69l-26-26A40,40,0,0,0,128,56H88a8,8,0,0,0-8,8V176a8,8,0,0,0,16,0V136h20.69l36,36-14.35,14.34a8,8,0,0,0,11.32,11.32L164,183.31l14.34,14.35a8,8,0,0,0,11.32-11.32Z"/></svg>