<svg xmlns="http://www.w3.org/2000/svg" viewBox="0 0 256 256">
  <style>
    .draw-line {
      stroke-dasharray: 2000;
      stroke-dashoffset: 0;
    }
    svg:hover .draw-line {
      animation: phosphor-draw-in 3s ease-in-out infinite alternate;
    }
    @keyframes phosphor-draw-in {
      0%   { stroke-dashoffset: 2000; }
      50%  { stroke-dashoffset: 0; }
      100% { stroke-dashoffset: 0; }
    }
  </style><rect width="256" height="256" fill="none"/><path d="M235.33,104l-53.47,53.65c4.56,12.67,6.45,33.89-13.19,60A15.93,15.93,0,0,1,157,224c-.38,0-.75,0-1.13,0a16,16,0,0,1-11.32-4.69L96.29,171,53.66,213.66a8,8,0,0,1-11.32-11.32L85,159.71l-48.3-48.3A16,16,0,0,1,38,87.63c25.42-20.51,49.75-16.48,60.4-13.14L152,20.7a16,16,0,0,1,22.63,0l60.69,60.68A16,16,0,0,1,235.33,104Z"/></svg>