<svg xmlns="http://www.w3.org/2000/svg" viewBox="0 0 256 256">
  <style>
    .draw-line {
      stroke-dasharray: 2000;
      stroke-dashoffset: 0;
    }
    svg:hover .draw-line {
      animation: phosphor-draw-in 1.5s ease-in-out infinite;
    }
    @keyframes phosphor-draw-in {
      0%   { stroke-dashoffset: 2000; }
      100% { stroke-dashoffset: 0; }
    }
  </style><rect width="256" height="256" fill="none"/><path d="M128,24A104,104,0,1,0,232,128,104.11,104.11,0,0,0,128,24Zm56,140a8,8,0,0,1-12.8,6.4l-48-36A8,8,0,0,1,120,128v36a8,8,0,0,1-12.8,6.4l-48-36a8,8,0,0,1,0-12.8l48-36A8,8,0,0,1,120,92v36a8,8,0,0,1,3.2-6.4l48-36A8,8,0,0,1,184,92Z"/></svg>