<svg xmlns="http://www.w3.org/2000/svg" viewBox="0 0 256 256">
  <style>
    .draw-line {
      stroke-dasharray: 1;
      stroke-dashoffset: 1;
      animation: phosphor-draw-in 1.5s ease-in-out forwards;
    }
    @keyframes phosphor-draw-in {
      to { stroke-dashoffset: 0; }
    }
  </style><rect width="256" height="256" fill="none"/><path d="M200,16a8,8,0,0,0-8,8V40H160V24a8,8,0,0,0-16,0V40H112V24a8,8,0,0,0-16,0V40H64V24a8,8,0,0,0-16,0V232a8,8,0,0,0,16,0V216H96v16a8,8,0,0,0,16,0V216h32v16a8,8,0,0,0,16,0V216h32v16a8,8,0,0,0,16,0V24A8,8,0,0,0,200,16ZM155.43,130.06l-24,40a4,4,0,0,1-6.86,0l-24-40a4,4,0,0,1,0-4.12l24-40a4,4,0,0,1,6.86,0l24,40A4,4,0,0,1,155.43,130.06Z"/></svg>