<svg xmlns="http://www.w3.org/2000/svg" viewBox="0 0 256 256">
  <style>
    .draw-line {
      stroke-dasharray: 2000;
      stroke-dashoffset: 0;
    }
    svg:hover .draw-line {
      animation: phosphor-draw-in 1.5s ease-in-out infinite alternate;
    }
    @keyframes phosphor-draw-in {
      0%   { stroke-dashoffset: 0; }
      100% { stroke-dashoffset: 2000; }
    }
  </style><rect width="256" height="256" fill="none"/><path d="M224,232a8,8,0,0,1-8,8H112a8,8,0,0,1,0-16H216A8,8,0,0,1,224,232Zm-16-88-64.22,0L112,80l14.19-26.32a1.51,1.51,0,0,0,.11-.22A16,16,0,0,0,119.15,32l-.47-.22L85,17.57A16,16,0,0,0,63.8,24.84l-22.12,44a16.1,16.1,0,0,0,0,14.32l58.11,116A15.93,15.93,0,0,0,114.11,208H208a16,16,0,0,0,16-16V160A16,16,0,0,0,208,144Z"/></svg>