<svg xmlns="http://www.w3.org/2000/svg" viewBox="0 0 256 256">
  <style>
    .draw-line {
      stroke-dasharray: 2000;
      stroke-dashoffset: 0;
    }
    svg:hover .draw-line {
      animation: phosphor-draw-in 3s ease-in-out infinite alternate;
    }
    @keyframes phosphor-draw-in {
      0%   { stroke-dashoffset: 2000; }
      50%  { stroke-dashoffset: 0; }
      100% { stroke-dashoffset: 0; }
    }
  </style><rect width="256" height="256" fill="none"/><path d="M248,136a8,8,0,0,0-8,8v16H195.31L177,141.66l50.34-50.35a16,16,0,0,0,0-22.62L189.66,31h0L171.31,12.69a16,16,0,0,0-22.63,0L2.92,158.94A10,10,0,0,0,10,176H49.37l35.32,35.31a16,16,0,0,0,22.62,0L165.66,153,184,171.31A15.86,15.86,0,0,0,195.31,176H240v16a8,8,0,0,0,16,0V144A8,8,0,0,0,248,136ZM160,24l12.69,12.69L49.37,160H24.46Z"/></svg>