<svg xmlns="http://www.w3.org/2000/svg" viewBox="0 0 256 256">
  <style>
    .draw-line {
      stroke-dasharray: 1;
      stroke-dashoffset: 0;
    }
    svg:hover .draw-line {
      animation: phosphor-draw-in 1.5s ease-in-out infinite;
    }
    @keyframes phosphor-draw-in {
      0%   { stroke-dashoffset: 1; }
      100% { stroke-dashoffset: 0; }
    }
  </style><rect width="256" height="256" fill="none"/><path d="M208,32H48A16,16,0,0,0,32,48V208a16,16,0,0,0,16,16H208a16,16,0,0,0,16-16V48A16,16,0,0,0,208,32ZM104,200H72a16,16,0,0,1-16-16V152a8,8,0,0,1,16,0v32h32a8,8,0,0,1,0,16Zm0-128H72v32a8,8,0,0,1-16,0V72A16,16,0,0,1,72,56h32a8,8,0,0,1,0,16Zm96,112a16,16,0,0,1-16,16H152a8,8,0,0,1,0-16h32V152a8,8,0,0,1,16,0Zm0-80a8,8,0,0,1-16,0V72H152a8,8,0,0,1,0-16h32a16,16,0,0,1,16,16Z"/></svg>