<svg xmlns="http://www.w3.org/2000/svg" viewBox="0 0 256 256">
  <style>
    .draw-line {
      stroke-dasharray: 2000;
      stroke-dashoffset: 0;
    }
    svg:hover .draw-line {
      animation: phosphor-draw-in 1.5s ease-in-out infinite;
    }
    @keyframes phosphor-draw-in {
      0%   { stroke-dashoffset: 2000; }
      100% { stroke-dashoffset: 0; }
    }
  </style><rect width="256" height="256" fill="none"/><path d="M208,32H48A16,16,0,0,0,32,48V208a16,16,0,0,0,16,16H208a16,16,0,0,0,16-16V48A16,16,0,0,0,208,32ZM56,72A16,16,0,0,1,72,56H96a8,8,0,0,1,0,16H72V96a8,8,0,0,1-16,0Zm56,112H72a16,16,0,0,1-16-16V136a8,8,0,0,1,16,0v32h40a8,8,0,0,1,0,16ZM128,64a8,8,0,0,1,8-8h32a16,16,0,0,1,16,16v40a8,8,0,0,1-16,0V72H136A8,8,0,0,1,128,64Zm72,120H184v16a8,8,0,0,1-16,0V184H152a8,8,0,0,1,0-16h16V152a8,8,0,0,1,16,0v16h16a8,8,0,0,1,0,16Z"/></svg>