<svg xmlns="http://www.w3.org/2000/svg" viewBox="0 0 256 256">
  <style>
    .draw-line {
      stroke-dasharray: 2000;
      stroke-dashoffset: 0;
    }
    svg:hover .draw-line {
      animation: phosphor-draw-in 1.5s ease-in-out infinite;
    }
    @keyframes phosphor-draw-in {
      0%   { stroke-dashoffset: 2000; }
      100% { stroke-dashoffset: 0; }
    }
  </style><rect width="256" height="256" fill="none"/><path d="M200,24H56A16,16,0,0,0,40,40V216a16,16,0,0,0,16,16H200a16,16,0,0,0,16-16V40A16,16,0,0,0,200,24ZM184,88a8,8,0,0,1-16,0V72H96l38.4,51.2a8,8,0,0,1,0,9.6L96,184h72V168a8,8,0,0,1,16,0v24a8,8,0,0,1-8,8H80a8,8,0,0,1-6.4-12.8L118,128,73.6,68.8A8,8,0,0,1,80,56h96a8,8,0,0,1,8,8Z"/></svg>