<svg xmlns="http://www.w3.org/2000/svg" viewBox="0 0 256 256">
  <style>
    .draw-line {
      stroke-dasharray: 2000;
      stroke-dashoffset: 0;
    }
    svg:hover .draw-line {
      animation: phosphor-draw-in 1.5s ease-in-out infinite;
    }
    @keyframes phosphor-draw-in {
      0%   { stroke-dashoffset: 2000; }
      100% { stroke-dashoffset: 0; }
    }
  </style><rect width="256" height="256" fill="none"/><path d="M141.66,133.66l-40,40A8,8,0,0,1,88,168V136H24a8,8,0,0,1,0-16H88V88a8,8,0,0,1,13.66-5.66l40,40A8,8,0,0,1,141.66,133.66ZM200,32H136a8,8,0,0,0,0,16h56V208H136a8,8,0,0,0,0,16h64a8,8,0,0,0,8-8V40A8,8,0,0,0,200,32Z"/></svg>