<svg xmlns="http://www.w3.org/2000/svg" viewBox="0 0 256 256">
  <style>
    .draw-line {
      stroke-dasharray: 2000;
      stroke-dashoffset: 0;
    }
    svg:hover .draw-line {
      animation: phosphor-draw-in 1.5s ease-in-out infinite;
    }
    @keyframes phosphor-draw-in {
      0%   { stroke-dashoffset: 2000; }
      100% { stroke-dashoffset: 0; }
    }
  </style><rect width="256" height="256" fill="none"/><path d="M246,117.35,212.33,154.7a16,16,0,0,1-11.89,5.3H136v64a8,8,0,0,1-16,0V160H40a16,16,0,0,1-16-16V80A16,16,0,0,1,40,64h80V32a8,8,0,0,1,16,0V64h64.44a16,16,0,0,1,11.89,5.3L246,106.65A8,8,0,0,1,246,117.35Z"/></svg>