<svg xmlns="http://www.w3.org/2000/svg" viewBox="0 0 256 256">
  <style>
    .draw-line {
      stroke-dasharray: 2000;
      stroke-dashoffset: 0;
    }
    svg:hover .draw-line {
      animation: phosphor-draw-in 1.5s ease-in-out infinite alternate;
    }
    @keyframes phosphor-draw-in {
      0%   { stroke-dashoffset: 2000; }
      100% { stroke-dashoffset: 0; }
    }
  </style><rect width="256" height="256" fill="none"/><path d="M32,80a8,8,0,0,1,8-8H77.17a28,28,0,0,1,53.66,0H216a8,8,0,0,1,0,16H130.83a28,28,0,0,1-53.66,0H40A8,8,0,0,1,32,80Zm184,88H194.83a28,28,0,0,0-53.66,0H40a8,8,0,0,0,0,16H141.17a28,28,0,0,0,53.66,0H216a8,8,0,0,0,0-16Z"/></svg>