<svg xmlns="http://www.w3.org/2000/svg" viewBox="0 0 256 256">
  <style>
    .draw-line {
      stroke-dasharray: 2000;
      stroke-dashoffset: 0;
    }
    svg:hover .draw-line {
      animation: phosphor-draw-in 3s ease-in-out infinite alternate;
    }
    @keyframes phosphor-draw-in {
      0%   { stroke-dashoffset: 2000; }
      50%  { stroke-dashoffset: 0; }
      100% { stroke-dashoffset: 0; }
    }
  </style><rect width="256" height="256" fill="none"/><path d="M128,24A104,104,0,1,0,232,128,104.13,104.13,0,0,0,128,24ZM92,96a12,12,0,1,1-12,12A12,12,0,0,1,92,96Zm76,72H88a8,8,0,0,1,0-16h80a8,8,0,0,1,0,16Zm-4-48a12,12,0,1,1,12-12A12,12,0,0,1,164,120Z"/></svg>