<svg xmlns="http://www.w3.org/2000/svg" viewBox="0 0 256 256">
  <style>
    .draw-line {
      stroke-dasharray: 2000;
      stroke-dashoffset: 0;
    }
    svg:hover .draw-line {
      animation: phosphor-draw-in 3s ease-in-out infinite alternate;
    }
    @keyframes phosphor-draw-in {
      0%   { stroke-dashoffset: 2000; }
      50%  { stroke-dashoffset: 0; }
      100% { stroke-dashoffset: 0; }
    }
  </style><rect width="256" height="256" fill="none"/><path d="M168,32V224a8,8,0,0,1-12.91,6.31L85.25,176H40a16,16,0,0,1-16-16V96A16,16,0,0,1,40,80H85.25l69.84-54.31A8,8,0,0,1,168,32Zm32,64a8,8,0,0,0-8,8v48a8,8,0,0,0,16,0V104A8,8,0,0,0,200,96Zm32-16a8,8,0,0,0-8,8v80a8,8,0,0,0,16,0V88A8,8,0,0,0,232,80Z"/></svg>