<svg xmlns="http://www.w3.org/2000/svg" viewBox="0 0 256 256">
  <style>
    .draw-line {
      stroke-dasharray: 2000;
      stroke-dashoffset: 0;
    }
    svg:hover .draw-line {
      animation: phosphor-draw-in 1.5s ease-in-out infinite alternate;
    }
    @keyframes phosphor-draw-in {
      0%   { stroke-dashoffset: 2000; }
      100% { stroke-dashoffset: 0; }
    }
  </style><rect width="256" height="256" fill="none"/><path d="M152,160a24,24,0,1,1-24-24A24,24,0,0,1,152,160ZM208,40V216a16,16,0,0,1-16,16H64a16,16,0,0,1-16-16V40A16,16,0,0,1,64,24H192A16,16,0,0,1,208,40ZM116,68a12,12,0,1,0,12-12A12,12,0,0,0,116,68Zm52,92a40,40,0,1,0-40,40A40,40,0,0,0,168,160Z"/></svg>