<svg xmlns="http://www.w3.org/2000/svg" viewBox="0 0 256 256">
  <style>
    .draw-line {
      stroke-dasharray: 1;
      stroke-dashoffset: 1;
      animation: phosphor-draw-in 1.5s ease-in-out forwards;
    }
    @keyframes phosphor-draw-in {
      to { stroke-dashoffset: 0; }
    }
  </style><rect width="256" height="256" fill="none"/><path d="M216,152a8,8,0,0,1-8,8H136v32h24a8,8,0,0,1,5.66,13.66l-32,32a8,8,0,0,1-11.32,0l-32-32A8,8,0,0,1,96,192h24V160H48a8,8,0,0,1,0-16H208A8,8,0,0,1,216,152ZM48,112H208a8,8,0,0,0,0-16H136V64h24a8,8,0,0,0,5.66-13.66l-32-32a8,8,0,0,0-11.32,0l-32,32A8,8,0,0,0,96,64h24V96H48a8,8,0,0,0,0,16Z"/></svg>