<svg xmlns="http://www.w3.org/2000/svg" viewBox="0 0 256 256">
  <style>
    .draw-line {
      stroke-dasharray: 2000;
      stroke-dashoffset: 0;
    }
    svg:hover .draw-line {
      animation: phosphor-draw-in 3s ease-in-out infinite alternate;
    }
    @keyframes phosphor-draw-in {
      0%   { stroke-dashoffset: 2000; }
      50%  { stroke-dashoffset: 0; }
      100% { stroke-dashoffset: 0; }
    }
  </style><rect width="256" height="256" fill="none"/><path d="M112,48V208a8,8,0,0,1-16,0V136H64v24a8,8,0,0,1-13.66,5.66l-32-32a8,8,0,0,1,0-11.32l32-32A8,8,0,0,1,64,96v24H96V48a8,8,0,0,1,16,0Zm125.66,74.34-32-32A8,8,0,0,0,192,96v24H160V48a8,8,0,0,0-16,0V208a8,8,0,0,0,16,0V136h32v24a8,8,0,0,0,13.66,5.66l32-32A8,8,0,0,0,237.66,122.34Z"/></svg>