<svg xmlns="http://www.w3.org/2000/svg" viewBox="0 0 256 256">
  <style>
    .draw-line {
      stroke-dasharray: 1;
      stroke-dashoffset: 0;
    }
    svg:hover .draw-line {
      animation: phosphor-draw-in 1.5s ease-in-out infinite;
    }
    @keyframes phosphor-draw-in {
      0%   { stroke-dashoffset: 1; }
      100% { stroke-dashoffset: 0; }
    }
  </style><rect width="256" height="256" fill="none"/><path d="M200,80a8,8,0,0,0,8-8,56.06,56.06,0,0,0-56-56H80A16,16,0,0,0,64,32V80a24,24,0,0,1-24,24,8,8,0,0,0,0,16A40,40,0,0,0,80,80h32v24.62a23.87,23.87,0,0,1-9,18.74L87,136.15a39.79,39.79,0,0,0-15,31.23V224a16,16,0,0,0,16,16H192a16,16,0,0,0,16-16V211.47A270.88,270.88,0,0,0,174,80ZM80,32h72a40.08,40.08,0,0,1,39.2,32H80Z"/></svg>