<svg xmlns="http://www.w3.org/2000/svg" viewBox="0 0 256 256">
  <style>
    .draw-line {
      stroke-dasharray: 2000;
      stroke-dashoffset: 0;
    }
    svg:hover .draw-line {
      animation: phosphor-draw-in 1.5s ease-in-out infinite alternate;
    }
    @keyframes phosphor-draw-in {
      0%   { stroke-dashoffset: 0; }
      100% { stroke-dashoffset: 2000; }
    }
  </style><rect width="256" height="256" fill="none"/><path d="M216,56v60a4,4,0,0,1-4,4H44a4,4,0,0,1-4-4V56A16,16,0,0,1,56,40H200A16,16,0,0,1,216,56Zm-4,80H44a4,4,0,0,0-4,4v60a16,16,0,0,0,16,16H200a16,16,0,0,0,16-16V140A4,4,0,0,0,212,136Z"/></svg>