<svg xmlns="http://www.w3.org/2000/svg" viewBox="0 0 256 256">
  <style>
    .draw-line {
      stroke-dasharray: 1;
      stroke-dashoffset: 0;
    }
    svg:hover .draw-line {
      animation: phosphor-draw-in 1.5s ease-in-out infinite;
    }
    @keyframes phosphor-draw-in {
      0%   { stroke-dashoffset: 1; }
      100% { stroke-dashoffset: 0; }
    }
  </style><rect width="256" height="256" fill="none"/><path d="M120,44V212a4,4,0,0,1-4,4H56a16,16,0,0,1-16-16V56A16,16,0,0,1,56,40h60A4,4,0,0,1,120,44Zm80-4H140a4,4,0,0,0-4,4V212a4,4,0,0,0,4,4h60a16,16,0,0,0,16-16V56A16,16,0,0,0,200,40Z"/></svg>