<svg xmlns="http://www.w3.org/2000/svg" viewBox="0 0 256 256">
  <style>
    .draw-line {
      stroke-dasharray: 2000;
      stroke-dashoffset: 0;
    }
    svg:hover .draw-line {
      animation: phosphor-draw-in 1.5s ease-in-out infinite alternate;
    }
    @keyframes phosphor-draw-in {
      0%   { stroke-dashoffset: 2000; }
      100% { stroke-dashoffset: 0; }
    }
  </style><rect width="256" height="256" fill="none"/><path d="M220,169.09l-92,53.65L36,169.09A8,8,0,0,0,28,182.91l96,56a8,8,0,0,0,8.06,0l96-56A8,8,0,1,0,220,169.09Z"/><path d="M220,121.09l-92,53.65L36,121.09A8,8,0,0,0,28,134.91l96,56a8,8,0,0,0,8.06,0l96-56A8,8,0,1,0,220,121.09Z"/><path d="M28,86.91l96,56a8,8,0,0,0,8.06,0l96-56a8,8,0,0,0,0-13.82l-96-56a8,8,0,0,0-8.06,0l-96,56a8,8,0,0,0,0,13.82Z"/></svg>