<svg xmlns="http://www.w3.org/2000/svg" viewBox="0 0 256 256">
  <style>
    .draw-line {
      stroke-dasharray: 1;
      stroke-dashoffset: 0;
    }
    svg:hover .draw-line {
      animation: phosphor-draw-in 1.5s ease-in-out infinite;
    }
    @keyframes phosphor-draw-in {
      0%   { stroke-dashoffset: 1; }
      100% { stroke-dashoffset: 0; }
    }
  </style><rect width="256" height="256" fill="none"/><path d="M208,57.38V32a8,8,0,0,0-16,0V57.38A24,24,0,0,0,176,80v42.21L136,99.36V72a8,8,0,0,0-16,0V99.36L80,122.21V80A24,24,0,0,0,64,57.38V32a8,8,0,0,0-16,0V57.38A24,24,0,0,0,32,80V216a8,8,0,0,0,8,8h64a8,8,0,0,0,8-8V176a16,16,0,0,1,32,0v40a8,8,0,0,0,8,8h64a8,8,0,0,0,8-8V80A24,24,0,0,0,208,57.38ZM64,208H48V112H64Zm144,0H192V112h16Z"/></svg>