<svg xmlns="http://www.w3.org/2000/svg" viewBox="0 0 256 256">
  <style>
    .draw-line {
      stroke-dasharray: 2000;
      stroke-dashoffset: 0;
    }
    svg:hover .draw-line {
      animation: phosphor-draw-in 1.5s ease-in-out infinite alternate;
    }
    @keyframes phosphor-draw-in {
      0%   { stroke-dashoffset: 2000; }
      100% { stroke-dashoffset: 0; }
    }
  </style><rect width="256" height="256" fill="none"/><path d="M211.2,79.39a8,8,0,0,0-3.77,10.67A88.09,88.09,0,1,1,184.3,60.39L161.53,83.16A56,56,0,0,0,88.4,167.59h0a56,56,0,0,0,95.5-42.79,8,8,0,1,0-16,.9,40,40,0,0,1-62,35.67l23.95-23.95L167.6,99.72h0l62.06-62a8,8,0,0,0-11.32-11.32L195.67,49A104,104,0,0,0,54.46,201.54,104,104,0,0,0,221.87,83.16,8,8,0,0,0,211.2,79.39Z"/></svg>