<svg xmlns="http://www.w3.org/2000/svg" viewBox="0 0 256 256">
  <style>
    .draw-line {
      stroke-dasharray: 2000;
      stroke-dashoffset: 0;
    }
    svg:hover .draw-line {
      animation: phosphor-draw-in 1.5s ease-in-out infinite alternate;
    }
    @keyframes phosphor-draw-in {
      0%   { stroke-dashoffset: 0; }
      100% { stroke-dashoffset: 2000; }
    }
  </style><rect width="256" height="256" fill="none"/><path d="M112,136V72h19.47a16.09,16.09,0,0,1,13.72,7.77L165.72,114a16.06,16.06,0,0,1,2.28,8.24V216a16,16,0,0,1-16,16H56a16,16,0,0,1-16-16V122.22A16.06,16.06,0,0,1,42.28,114L62.81,79.77A16.09,16.09,0,0,1,76.53,72H96v64a8,8,0,0,0,16,0Zm112,24a16,16,0,0,1-16-16V64A56,56,0,0,0,96,64v8h16V64a40,40,0,0,1,80,0v80a32,32,0,0,0,32,32,8,8,0,0,0,0-16Z"/></svg>