<svg xmlns="http://www.w3.org/2000/svg" viewBox="0 0 256 256">
  <style>
    .draw-line {
      stroke-dasharray: 2000;
      stroke-dashoffset: 0;
    }
    svg:hover .draw-line {
      animation: phosphor-draw-in 1.5s ease-in-out infinite;
    }
    @keyframes phosphor-draw-in {
      0%   { stroke-dashoffset: 2000; }
      100% { stroke-dashoffset: 0; }
    }
  </style><rect width="256" height="256" fill="none"/><path d="M208,32H48A16,16,0,0,0,32,48V208a16,16,0,0,0,16,16H208a16,16,0,0,0,16-16V48A16,16,0,0,0,208,32ZM160,184H64a8,8,0,0,1,0-16h96a8,8,0,0,1,0,16Zm32-32H64a8,8,0,0,1,0-16H192a8,8,0,0,1,0,16ZM56,112a8,8,0,0,1,8-8h96a8,8,0,0,1,0,16H64A8,8,0,0,1,56,112ZM192,88H64a8,8,0,0,1,0-16H192a8,8,0,0,1,0,16Z"/></svg>