<svg xmlns="http://www.w3.org/2000/svg" viewBox="0 0 256 256">
  <style>
    .draw-line {
      stroke-dasharray: 1;
      stroke-dashoffset: 0;
    }
    svg:hover .draw-line {
      animation: phosphor-draw-in 1.5s ease-in-out infinite;
    }
    @keyframes phosphor-draw-in {
      0%   { stroke-dashoffset: 1; }
      100% { stroke-dashoffset: 0; }
    }
  </style><rect width="256" height="256" fill="none"/><path d="M208,32H48A16,16,0,0,0,32,48V208a16,16,0,0,0,16,16H208a16,16,0,0,0,16-16V48A16,16,0,0,0,208,32ZM144,160a8,8,0,0,1-16,0V128H72v32a8,8,0,0,1-16,0V80a8,8,0,0,1,16,0v32h56V80a8,8,0,0,1,16,0Zm56,16a8,8,0,0,1-16,0V111l-11.56,7.71a8,8,0,1,1-8.88-13.32l24-16A8,8,0,0,1,200,96Z"/></svg>