<svg xmlns="http://www.w3.org/2000/svg" viewBox="0 0 256 256">
  <style>
    .draw-line {
      stroke-dasharray: 1;
      stroke-dashoffset: 0;
    }
    svg:hover .draw-line {
      animation: phosphor-draw-in 1.5s ease-in-out forwards;
    }
    @keyframes phosphor-draw-in {
      from { stroke-dashoffset: 1; }
      to { stroke-dashoffset: 0; }
    }
  </style><rect width="256" height="256" fill="none"/><path d="M212,56a28,28,0,1,0,28,28A28,28,0,0,0,212,56Zm0,40a12,12,0,1,1,12-12A12,12,0,0,1,212,96Zm-60,50.08V40a32,32,0,0,0-64,0V146.08a56,56,0,1,0,64,0ZM136,104H104V40a16,16,0,0,1,32,0Z"/></svg>