<svg xmlns="http://www.w3.org/2000/svg" viewBox="0 0 256 256">
  <style>
    .draw-line {
      stroke-dasharray: 2000;
      stroke-dashoffset: 0;
    }
    svg:hover .draw-line {
      animation: phosphor-draw-in 1.5s ease-in-out infinite alternate;
    }
    @keyframes phosphor-draw-in {
      0%   { stroke-dashoffset: 2000; }
      100% { stroke-dashoffset: 0; }
    }
  </style><rect width="256" height="256" fill="none"/><path d="M234,80.12A24,24,0,0,0,216,72H160V56a40,40,0,0,0-40-40,8,8,0,0,0-7.16,4.42L75.06,96H32a16,16,0,0,0-16,16v88a16,16,0,0,0,16,16H204a24,24,0,0,0,23.82-21l12-96A24,24,0,0,0,234,80.12ZM32,112H72v88H32Z"/></svg>