<svg xmlns="http://www.w3.org/2000/svg" viewBox="0 0 256 256">
  <style>
    .draw-line {
      stroke-dasharray: 2000;
      stroke-dashoffset: 0;
    }
    svg:hover .draw-line {
      animation: phosphor-draw-in 1.5s ease-in-out infinite alternate;
    }
    @keyframes phosphor-draw-in {
      0%   { stroke-dashoffset: 2000; }
      100% { stroke-dashoffset: 0; }
    }
  </style><rect width="256" height="256" fill="none"/><path d="M232,80v40a8,8,0,0,1-8,8,103.25,103.25,0,0,1-48-11.71V156a76,76,0,0,1-152,0c0-36.9,26.91-69.52,62.6-75.88A8,8,0,0,1,96,88v42.69a8,8,0,0,1-4.57,7.23A20,20,0,1,0,120,156V24a8,8,0,0,1,8-8h40a8,8,0,0,1,8,8,48.05,48.05,0,0,0,48,48A8,8,0,0,1,232,80Z"/></svg>