<svg xmlns="http://www.w3.org/2000/svg" viewBox="0 0 256 256">
  <style>
    .draw-line {
      stroke-dasharray: 2000;
      stroke-dashoffset: 0;
    }
    svg:hover .draw-line {
      animation: phosphor-draw-in 3s ease-in-out infinite alternate;
    }
    @keyframes phosphor-draw-in {
      0%   { stroke-dashoffset: 2000; }
      50%  { stroke-dashoffset: 0; }
      100% { stroke-dashoffset: 0; }
    }
  </style><rect width="256" height="256" fill="none"/><path d="M238.74,211.69,137.5,53.5l21.24-33.19a8,8,0,0,0-13.48-8.62L128,38.66l-17.26-27a8,8,0,1,0-13.48,8.62L118.5,53.5,17.26,211.69A8,8,0,0,0,24,224H232a8,8,0,0,0,6.74-12.31Zm-50-3.69-54-84.31a8,8,0,0,0-13.48,0L67.3,208H38.62L128,68.34,217.38,208Z"/></svg>