<svg xmlns="http://www.w3.org/2000/svg" viewBox="0 0 256 256">
  <style>
    .draw-line {
      stroke-dasharray: 1;
      stroke-dashoffset: 0;
    }
    svg:hover .draw-line {
      animation: phosphor-draw-in 1.5s ease-in-out forwards;
    }
    @keyframes phosphor-draw-in {
      from { stroke-dashoffset: 1; }
      to { stroke-dashoffset: 0; }
    }
  </style><rect width="256" height="256" fill="none"/><path d="M144,228a12,12,0,0,1-12,12H116a12,12,0,0,1,0-24h16A12,12,0,0,1,144,228ZM220,32H60a12,12,0,0,0,0,24,12,12,0,0,1,0,24H44a12,12,0,0,0,0,24H76a12,12,0,0,1,0,24,12,12,0,0,0,0,24h48a12,12,0,0,1,0,24,12,12,0,0,0,0,24h48a12,12,0,0,0,0-24,12,12,0,0,1,0-24h16a12,12,0,0,0,0-24H164a12,12,0,0,1,0-24,12,12,0,0,0,0-24,12,12,0,0,1,0-24h56a12,12,0,0,0,0-24Z"/></svg>