<svg xmlns="http://www.w3.org/2000/svg" viewBox="0 0 256 256">
  <style>
    .draw-line {
      stroke-dasharray: 1;
      stroke-dashoffset: 0;
    }
    svg:hover .draw-line {
      animation: phosphor-draw-in 1.5s ease-in-out infinite;
    }
    @keyframes phosphor-draw-in {
      0%   { stroke-dashoffset: 1; }
      100% { stroke-dashoffset: 0; }
    }
  </style><rect width="256" height="256" fill="none"/><path d="M216,144H200V80h16a8,8,0,0,0,0-16H200V40a16,16,0,0,0-16-16H72A16,16,0,0,0,56,40V64H40a8,8,0,0,0,0,16H56v64H40a8,8,0,0,0,0,16H56v56a16,16,0,0,0,16,16H184a16,16,0,0,0,16-16V160h16a8,8,0,0,0,0-16Zm-88-28a28,28,0,1,1,28-28A28,28,0,0,1,128,116Zm0,24a28,28,0,1,1-28,28A28,28,0,0,1,128,140Z"/></svg>