<svg xmlns="http://www.w3.org/2000/svg" viewBox="0 0 256 256">
  <style>
    .draw-line {
      stroke-dasharray: 2000;
      stroke-dashoffset: 0;
    }
    svg:hover .draw-line {
      animation: phosphor-draw-in 1.5s ease-in-out infinite alternate;
    }
    @keyframes phosphor-draw-in {
      0%   { stroke-dashoffset: 2000; }
      100% { stroke-dashoffset: 0; }
    }
  </style><rect width="256" height="256" fill="none"/><path d="M240,56v64a8,8,0,0,1-13.66,5.66L200,99.31l-58.34,58.35a8,8,0,0,1-11.32,0L96,123.31,29.66,189.66a8,8,0,0,1-11.32-11.32l72-72a8,8,0,0,1,11.32,0L136,140.69,188.69,88,162.34,61.66A8,8,0,0,1,168,48h64A8,8,0,0,1,240,56Z"/></svg>