<svg xmlns="http://www.w3.org/2000/svg" viewBox="0 0 256 256">
  <style>
    .draw-line {
      stroke-dasharray: 1;
      stroke-dashoffset: 0;
    }
    svg:hover .draw-line {
      animation: phosphor-draw-in 1.5s ease-in-out infinite;
    }
    @keyframes phosphor-draw-in {
      0%   { stroke-dashoffset: 1; }
      100% { stroke-dashoffset: 0; }
    }
  </style><rect width="256" height="256" fill="none"/><path d="M152,120v48a8,8,0,0,0,8,8h32a8,8,0,0,1,8,8v48a8,8,0,0,1-8,8H152a64.07,64.07,0,0,1-64-64V120H64a8,8,0,0,1-8-8V72a8,8,0,0,1,8-8,40,40,0,0,0,40-40,8,8,0,0,1,8-8h32a8,8,0,0,1,8,8V64h40a8,8,0,0,1,8,8v40a8,8,0,0,1-8,8Z"/></svg>