<svg xmlns="http://www.w3.org/2000/svg" viewBox="0 0 256 256">
  <style>
    .draw-line {
      stroke-dasharray: 2000;
      stroke-dashoffset: 0;
    }
    svg:hover .draw-line {
      animation: phosphor-draw-in 1.5s ease-in-out infinite;
    }
    @keyframes phosphor-draw-in {
      0%   { stroke-dashoffset: 2000; }
      100% { stroke-dashoffset: 0; }
    }
  </style><rect width="256" height="256" fill="none"/><path d="M208,32H48A16,16,0,0,0,32,48V192a16,16,0,0,0,16,16H64v32a8,8,0,0,0,13.12,6.15L122.9,208h42.2a16,16,0,0,0,10.25-3.71l42.89-35.75A15.93,15.93,0,0,0,224,156.25V48A16,16,0,0,0,208,32ZM128,136a8,8,0,0,1-16,0V88a8,8,0,0,1,16,0Zm48,0a8,8,0,0,1-16,0V88a8,8,0,0,1,16,0Z"/></svg>