<svg xmlns="http://www.w3.org/2000/svg" viewBox="0 0 256 256">
  <style>
    .draw-line {
      stroke-dasharray: 2000;
      stroke-dashoffset: 0;
    }
    svg:hover .draw-line {
      animation: phosphor-draw-in 1.5s ease-in-out infinite;
    }
    @keyframes phosphor-draw-in {
      0%   { stroke-dashoffset: 2000; }
      100% { stroke-dashoffset: 0; }
    }
  </style><rect width="256" height="256" fill="none"/><path d="M252,128a4,4,0,0,1-1.78,3.33l-48,32A4,4,0,0,1,196,160V136H72v48h36v-8a12,12,0,0,1,12-12h32a12,12,0,0,1,12,12v32a12,12,0,0,1-12,12H120a12,12,0,0,1-12-12v-8H72a16,16,0,0,1-16-16V136H8a8,8,0,0,1,0-16H56V72A16,16,0,0,1,72,56h37.17a28,28,0,1,1,0,16H72v48H196V96a4,4,0,0,1,6.22-3.33l48,32A4,4,0,0,1,252,128Z"/></svg>