<svg xmlns="http://www.w3.org/2000/svg" viewBox="0 0 256 256">
  <style>
    .draw-line {
      stroke-dasharray: 2000;
      stroke-dashoffset: 0;
    }
    svg:hover .draw-line {
      animation: phosphor-draw-in 1.5s ease-in-out infinite alternate;
    }
    @keyframes phosphor-draw-in {
      0%   { stroke-dashoffset: 0; }
      100% { stroke-dashoffset: 2000; }
    }
  </style><rect width="256" height="256" fill="none"/><path d="M229.66,197.66l-32,32A8,8,0,0,1,184,224V200H80a8,8,0,0,1-8-8V80H48a8,8,0,0,1-5.66-13.66l32-32a8,8,0,0,1,11.32,0l32,32A8,8,0,0,1,112,80H88V184h96V160a8,8,0,0,1,13.66-5.66l32,32A8,8,0,0,1,229.66,197.66Z"/></svg>