<svg xmlns="http://www.w3.org/2000/svg" viewBox="0 0 256 256">
  <style>
    .draw-line {
      stroke-dasharray: 2000;
      stroke-dashoffset: 0;
    }
    svg:hover .draw-line {
      animation: phosphor-draw-in 1.5s ease-in-out infinite alternate;
    }
    @keyframes phosphor-draw-in {
      0%   { stroke-dashoffset: 2000; }
      100% { stroke-dashoffset: 0; }
    }
  </style><rect width="256" height="256" fill="none"/><rect x="72" y="32" width="112" height="192" rx="24"/><path d="M208,80a8,8,0,0,0-8,8v80a8,8,0,0,0,16,0V88A8,8,0,0,0,208,80Z"/><path d="M240,96a8,8,0,0,0-8,8v48a8,8,0,0,0,16,0V104A8,8,0,0,0,240,96Z"/><path d="M48,80a8,8,0,0,0-8,8v80a8,8,0,0,0,16,0V88A8,8,0,0,0,48,80Z"/><path d="M16,96a8,8,0,0,0-8,8v48a8,8,0,0,0,16,0V104A8,8,0,0,0,16,96Z"/></svg>