<svg xmlns="http://www.w3.org/2000/svg" viewBox="0 0 256 256">
  <style>
    .draw-line {
      stroke-dasharray: 1;
      stroke-dashoffset: 0;
    }
    svg:hover .draw-line {
      animation: phosphor-draw-in 1.5s ease-in-out forwards;
    }
    @keyframes phosphor-draw-in {
      from { stroke-dashoffset: 1; }
      to { stroke-dashoffset: 0; }
    }
  </style><rect width="256" height="256" fill="none"/><path d="M128,24A104,104,0,1,0,232,128,104.11,104.11,0,0,0,128,24ZM72,128a8,8,0,0,1-16,0,72.08,72.08,0,0,1,72-72,8,8,0,0,1,0,16A56.06,56.06,0,0,0,72,128Zm32,0a24,24,0,1,1,24,24A24,24,0,0,1,104,128Zm24,72a8,8,0,0,1,0-16,56.06,56.06,0,0,0,56-56,8,8,0,0,1,16,0A72.08,72.08,0,0,1,128,200Z"/></svg>