<svg xmlns="http://www.w3.org/2000/svg" viewBox="0 0 256 256">
  <style>
    .draw-line {
      stroke-dasharray: 2000;
      stroke-dashoffset: 0;
    }
    svg:hover .draw-line {
      animation: phosphor-draw-in 1.5s ease-in-out infinite alternate;
    }
    @keyframes phosphor-draw-in {
      0%   { stroke-dashoffset: 0; }
      100% { stroke-dashoffset: 2000; }
    }
  </style><rect width="256" height="256" fill="none"/><path d="M183.05,56H72A72,72,0,0,0,.08,131.4c1.69,36.69,31.76,66.79,68.45,68.52,15.84.72,32-5.9,49.38-20.3a15.87,15.87,0,0,1,20.24,0C148.72,188.39,165,200,184,200a72,72,0,0,0,72-72.95C255.49,87.87,222.76,56,183.05,56ZM176,104H80a8,8,0,0,1,0-16h96a8,8,0,0,1,0,16Z"/></svg>