<svg xmlns="http://www.w3.org/2000/svg" viewBox="0 0 256 256">
  <style>
    .draw-line {
      stroke-dasharray: 2000;
      stroke-dashoffset: 0;
    }
    svg:hover .draw-line {
      animation: phosphor-draw-in 1.5s ease-in-out infinite alternate;
    }
    @keyframes phosphor-draw-in {
      0%   { stroke-dashoffset: 2000; }
      100% { stroke-dashoffset: 0; }
    }
  </style><rect width="256" height="256" fill="none"/><path d="M235.33,116.72,139.28,20.66a16,16,0,0,0-22.56,0l-96,96.06a16,16,0,0,0,0,22.56l96.05,96.06h0a16,16,0,0,0,22.56,0l96.05-96.06a16,16,0,0,0,0-22.56ZM120,80a8,8,0,0,1,16,0v56a8,8,0,0,1-16,0Zm8,104a12,12,0,1,1,12-12A12,12,0,0,1,128,184Z"/></svg>