<svg xmlns="http://www.w3.org/2000/svg" viewBox="0 0 256 256">
  <style>
    .draw-line {
      stroke-dasharray: 2000;
      stroke-dashoffset: 0;
    }
    svg:hover .draw-line {
      animation: phosphor-draw-in 1.5s ease-in-out infinite alternate;
    }
    @keyframes phosphor-draw-in {
      0%   { stroke-dashoffset: 0; }
      100% { stroke-dashoffset: 2000; }
    }
  </style><rect width="256" height="256" fill="none"/><path d="M216,40H40A16,16,0,0,0,24,56V200a16,16,0,0,0,16,16H216a16,16,0,0,0,16-16V56A16,16,0,0,0,216,40ZM72,152a8,8,0,0,1-16,0V104a8,8,0,0,1,16,0Zm32,32a8,8,0,0,1-16,0V72a8,8,0,0,1,16,0Zm32-16a8,8,0,0,1-16,0V88a8,8,0,0,1,16,0Zm32-16a8,8,0,0,1-16,0V104a8,8,0,0,1,16,0Zm32,8a8,8,0,0,1-16,0V96a8,8,0,0,1,16,0Z"/></svg>