<svg xmlns="http://www.w3.org/2000/svg" viewBox="0 0 256 256">
  <style>
    .draw-line {
      stroke-dasharray: 1;
      stroke-dashoffset: 0;
    }
    svg:hover .draw-line {
      animation: phosphor-draw-in 1.5s ease-in-out infinite;
    }
    @keyframes phosphor-draw-in {
      0%   { stroke-dashoffset: 1; }
      100% { stroke-dashoffset: 0; }
    }
  </style><rect width="256" height="256" fill="none"/><path d="M216,40H40A16,16,0,0,0,24,56V200a16,16,0,0,0,16,16H216a16,16,0,0,0,16-16V56A16,16,0,0,0,216,40Zm-9.85,93.12-40,48A8,8,0,0,1,160,184h-.43a8,8,0,0,1-6.23-3.55l-58-87.09L62.15,133.12a8,8,0,0,1-12.3-10.24l40-48a8,8,0,0,1,12.81.68l58.05,87.09,33.14-39.77a8,8,0,1,1,12.3,10.24Z"/></svg>