<svg xmlns="http://www.w3.org/2000/svg" viewBox="0 0 256 256">
  <style>
    .draw-line {
      stroke-dasharray: 1;
      stroke-dashoffset: 0;
    }
    svg:hover .draw-line {
      animation: phosphor-draw-in 1.5s ease-in-out forwards;
    }
    @keyframes phosphor-draw-in {
      from { stroke-dashoffset: 1; }
      to { stroke-dashoffset: 0; }
    }
  </style><rect width="256" height="256" fill="none"/><path d="M247.89,80.91a15.93,15.93,0,0,0-6.17-10.81A186.67,186.67,0,0,0,128,32,186.67,186.67,0,0,0,14.28,70.1,15.93,15.93,0,0,0,8.11,80.91,15.65,15.65,0,0,0,11.65,92.8l104,125.43A15.93,15.93,0,0,0,128,224h0a15.93,15.93,0,0,0,12.31-5.77h0l104-125.43A15.65,15.65,0,0,0,247.89,80.91Zm-77.52,76a75.89,75.89,0,0,0-84.74,0L24.09,82.74A170.76,170.76,0,0,1,128,48,170.76,170.76,0,0,1,231.91,82.74Z"/></svg>