<svg xmlns="http://www.w3.org/2000/svg" viewBox="0 0 256 256">
  <style>
    .draw-line {
      stroke-dasharray: 2000;
      stroke-dashoffset: 0;
    }
    svg:hover .draw-line {
      animation: phosphor-draw-in 1.5s ease-in-out infinite alternate;
    }
    @keyframes phosphor-draw-in {
      0%   { stroke-dashoffset: 2000; }
      100% { stroke-dashoffset: 0; }
    }
  </style><rect width="256" height="256" fill="none"/><path d="M140,80a12,12,0,1,1-12-12A12,12,0,0,1,140,80Zm92,48A104,104,0,1,1,128,24,104.11,104.11,0,0,1,232,128Zm-92,48a12,12,0,1,0-12,12A12,12,0,0,0,140,176Zm32-92a44.05,44.05,0,0,0-44-44A88,88,0,0,0,81.09,202.42,52,52,0,0,1,128,128,44.05,44.05,0,0,0,172,84Z"/></svg>