<svg xmlns="http://www.w3.org/2000/svg" viewBox="0 0 256 256">
  <style>
    .draw-line {
      stroke-dasharray: 1;
      stroke-dashoffset: 0;
    }
    svg:hover .draw-line {
      animation: phosphor-draw-in 1.5s ease-in-out infinite;
    }
    @keyframes phosphor-draw-in {
      0%   { stroke-dashoffset: 1; }
      100% { stroke-dashoffset: 0; }
    }
  </style><rect width="256" height="256" fill="none"/><line x1="152" y1="120" x2="112" y2="120" fill="none" stroke="currentColor" stroke-linecap="round" stroke-linejoin="round" stroke-width="16" class="draw-line" pathLength="1" style="animation-delay: 0s"/><line x1="152" y1="88" x2="112" y2="88" fill="none" stroke="currentColor" stroke-linecap="round" stroke-linejoin="round" stroke-width="16" class="draw-line" pathLength="1" style="animation-delay: 0.3s"/><path d="M240,168v32a8,8,0,0,1-8,8H205.89a8.08,8.08,0,0,1-3.58-.84l-12.62-6.32a8.08,8.08,0,0,0-3.58-.84H169.89a8.08,8.08,0,0,0-3.58.84l-12.62,6.32a8.08,8.08,0,0,1-3.58.84H121.89a8.08,8.08,0,0,1-3.58-.84l-12.62-6.32a8.08,8.08,0,0,0-3.58-.84H85.89a8.08,8.08,0,0,0-3.58.84l-12.62,6.32a8.08,8.08,0,0,1-3.58.84H40a8,8,0,0,1-8-8V168c9.22-32.06,12-88.65,0-120H144a8,8,0,0,1,8,8v64h40A48,48,0,0,1,240,168Z" fill="none" stroke="currentColor" stroke-linecap="round" stroke-linejoin="round" stroke-width="16" class="draw-line" pathLength="1" style="animation-delay: 0.6s"/><line x1="32" y1="168" x2="240" y2="168" fill="none" stroke="currentColor" stroke-linecap="round" stroke-linejoin="round" stroke-width="16" class="draw-line" pathLength="1" style="animation-delay: 0.9s"/></svg>