<svg xmlns="http://www.w3.org/2000/svg" viewBox="0 0 256 256">
  <style>
    .draw-line {
      stroke-dasharray: 1;
      stroke-dashoffset: 1;
      animation: phosphor-draw-in 1.5s ease-in-out forwards;
    }
    @keyframes phosphor-draw-in {
      to { stroke-dashoffset: 0; }
    }
  </style><rect width="256" height="256" fill="none"/><polyline points="112 168 128 128 96 128 112 88" fill="none" stroke="currentColor" stroke-linecap="round" stroke-linejoin="round" stroke-width="16" class="draw-line" pathLength="1" style="animation-delay: 0s"/><path d="M56,216V56A16,16,0,0,1,72,40h80a16,16,0,0,1,16,16V216" fill="none" stroke="currentColor" stroke-linecap="round" stroke-linejoin="round" stroke-width="16" class="draw-line" pathLength="1" style="animation-delay: 0.3s"/><line x1="32" y1="216" x2="192" y2="216" fill="none" stroke="currentColor" stroke-linecap="round" stroke-linejoin="round" stroke-width="16" class="draw-line" pathLength="1" style="animation-delay: 0.6s"/><path d="M168,112h24a16,16,0,0,1,16,16v40a16,16,0,0,0,16,16h0a16,16,0,0,0,16-16V86.63a16,16,0,0,0-4.69-11.32L216,56" fill="none" stroke="currentColor" stroke-linecap="round" stroke-linejoin="round" stroke-width="16" class="draw-line" pathLength="1" style="animation-delay: 0.9s"/></svg>