<svg xmlns="http://www.w3.org/2000/svg" viewBox="0 0 256 256">
  <style>
    .draw-line {
      stroke-dasharray: 2000;
      stroke-dashoffset: 0;
    }
    svg:hover .draw-line {
      animation: phosphor-draw-in 1.5s ease-in-out infinite alternate;
    }
    @keyframes phosphor-draw-in {
      0%   { stroke-dashoffset: 0; }
      100% { stroke-dashoffset: 2000; }
    }
  </style><rect width="256" height="256" fill="none"/><path d="M48,208H16a8,8,0,0,1-8-8V160a8,8,0,0,1,8-8H48" fill="none" stroke="currentColor" stroke-linecap="round" stroke-linejoin="round" stroke-width="16" class="draw-line" pathLength="1" style="animation-delay: 0s"/><path d="M112,160h32l67-15.41a16.61,16.61,0,0,1,21,16h0a16.59,16.59,0,0,1-9.18,14.85L184,192l-64,16H48V152l25-25a24,24,0,0,1,17-7H140a20,20,0,0,1,20,20h0a20,20,0,0,1-20,20Z" fill="none" stroke="currentColor" stroke-linecap="round" stroke-linejoin="round" stroke-width="16" class="draw-line" pathLength="1" style="animation-delay: 0.3s"/><path d="M96.73,120C87,107.72,80,94.56,80,80c0-21.69,17.67-40,39.46-40A39.12,39.12,0,0,1,156,64a39.12,39.12,0,0,1,36.54-24C214.33,40,232,58.31,232,80c0,29.23-28.18,55.07-50.22,71.32" fill="none" stroke="currentColor" stroke-linecap="round" stroke-linejoin="round" stroke-width="16" class="draw-line" pathLength="1" style="animation-delay: 0.6s"/></svg>