<svg xmlns="http://www.w3.org/2000/svg" viewBox="0 0 256 256">
  <style>
    .draw-line {
      stroke-dasharray: 2000;
      stroke-dashoffset: 0;
    }
    svg:hover .draw-line {
      animation: phosphor-draw-in 1.5s ease-in-out infinite;
    }
    @keyframes phosphor-draw-in {
      0%   { stroke-dashoffset: 2000; }
      100% { stroke-dashoffset: 0; }
    }
  </style><rect width="256" height="256" fill="none"/><path d="M128,192a24,24,0,0,1,24-24h46.21a24,24,0,0,0,23.4-18.65A96.48,96.48,0,0,0,224,127.17c-.45-52.82-44.16-95.7-97-95.17a96,96,0,0,0-95,96c0,41.81,26.73,73.44,64,86.61A24,24,0,0,0,128,192Z" fill="none" stroke="currentColor" stroke-linecap="round" stroke-linejoin="round" stroke-width="16" class="draw-line" pathLength="1" style="animation-delay: 0s"/><circle cx="128" cy="76" r="12"/><circle cx="84" cy="100" r="12"/><circle cx="84" cy="156" r="12"/><circle cx="172" cy="100" r="12"/></svg>