<svg xmlns="http://www.w3.org/2000/svg" viewBox="0 0 256 256">
  <style>
    .draw-line {
      stroke-dasharray: 1;
      stroke-dashoffset: 0;
    }
    svg:hover .draw-line {
      animation: phosphor-draw-in 1.5s ease-in-out infinite;
    }
    @keyframes phosphor-draw-in {
      0%   { stroke-dashoffset: 1; }
      100% { stroke-dashoffset: 0; }
    }
  </style><rect width="256" height="256" fill="none"/><path d="M88,40,46.63,81.37a22.62,22.62,0,0,0,0,32h0a22.62,22.62,0,0,0,32,0l66.74-66.74a22.62,22.62,0,0,1,32,0h0a22.62,22.62,0,0,1,0,32L78.63,177.37a22.62,22.62,0,0,0,0,32h0a22.62,22.62,0,0,0,32,0l66.74-66.74a22.62,22.62,0,0,1,32,0h0a22.62,22.62,0,0,1,0,32L200,184a22.62,22.62,0,0,0,0,32h0" fill="none" stroke="currentColor" stroke-linecap="round" stroke-linejoin="round" stroke-width="16" class="draw-line" pathLength="1" style="animation-delay: 0s"/></svg>