<svg xmlns="http://www.w3.org/2000/svg" viewBox="0 0 256 256">
  <style>
    .draw-line {
      stroke-dasharray: 1;
      stroke-dashoffset: 0;
    }
    svg:hover .draw-line {
      animation: phosphor-draw-in 1.5s ease-in-out infinite;
    }
    @keyframes phosphor-draw-in {
      0%   { stroke-dashoffset: 1; }
      100% { stroke-dashoffset: 0; }
    }
  </style><rect width="256" height="256" fill="none"/><path d="M80,160H208a8,8,0,0,0,8-8V48a8,8,0,0,0-8-8H96a8,8,0,0,0-8,8v8" fill="none" stroke="currentColor" stroke-linecap="round" stroke-linejoin="round" stroke-width="16" class="draw-line" pathLength="1" style="animation-delay: 0s"/><polyline points="104 136 80 160 104 184" fill="none" stroke="currentColor" stroke-linecap="round" stroke-linejoin="round" stroke-width="16" class="draw-line" pathLength="1" style="animation-delay: 0.3s"/><path d="M176,96H48a8,8,0,0,0-8,8V208a8,8,0,0,0,8,8H160a8,8,0,0,0,8-8v-8" fill="none" stroke="currentColor" stroke-linecap="round" stroke-linejoin="round" stroke-width="16" class="draw-line" pathLength="1" style="animation-delay: 0.6s"/><polyline points="152 120 176 96 152 72" fill="none" stroke="currentColor" stroke-linecap="round" stroke-linejoin="round" stroke-width="16" class="draw-line" pathLength="1" style="animation-delay: 0.9s"/></svg>