<svg xmlns="http://www.w3.org/2000/svg" viewBox="0 0 256 256">
  <style>
    .draw-line {
      stroke-dasharray: 2000;
      stroke-dashoffset: 0;
    }
    svg:hover .draw-line {
      animation: phosphor-draw-in 1.5s ease-in-out infinite alternate;
    }
    @keyframes phosphor-draw-in {
      0%   { stroke-dashoffset: 2000; }
      100% { stroke-dashoffset: 0; }
    }
  </style><rect width="256" height="256" fill="none"/><line x1="88" y1="64" x2="168" y2="96" fill="none" stroke="currentColor" stroke-linecap="round" stroke-linejoin="round" stroke-width="16" class="draw-line" pathLength="1" style="animation-delay: 0s"/><line x1="168" y1="64" x2="88" y2="96" fill="none" stroke="currentColor" stroke-linecap="round" stroke-linejoin="round" stroke-width="16" class="draw-line" pathLength="1" style="animation-delay: 0.3s"/><path d="M40,79.76C39.93,151.18,63.48,208,84,222.54a8,8,0,0,0,12.52-6C98,196.31,104,160,128,160s30,36.31,31.51,56.53a8,8,0,0,0,12.52,6c20.49-14.55,44-71.36,44-142.78A47.94,47.94,0,0,0,168,32H88A47.94,47.94,0,0,0,40,79.76Z" fill="none" stroke="currentColor" stroke-linecap="round" stroke-linejoin="round" stroke-width="16" class="draw-line" pathLength="1" style="animation-delay: 0.6s"/></svg>