<svg xmlns="http://www.w3.org/2000/svg" viewBox="0 0 256 256">
  <style>
    .draw-line {
      stroke-dasharray: 1;
      stroke-dashoffset: 0;
    }
    svg:hover .draw-line {
      animation: phosphor-draw-in 1.5s ease-in-out forwards;
    }
    @keyframes phosphor-draw-in {
      from { stroke-dashoffset: 1; }
      to { stroke-dashoffset: 0; }
    }
  </style><rect width="256" height="256" fill="none"/><circle cx="192" cy="192" r="24" fill="none" stroke="currentColor" stroke-linecap="round" stroke-linejoin="round" stroke-width="8" class="draw-line" pathLength="1" style="animation-delay: 0s"/><circle cx="80" cy="192" r="24" fill="none" stroke="currentColor" stroke-linecap="round" stroke-linejoin="round" stroke-width="8" class="draw-line" pathLength="1" style="animation-delay: 0.3s"/><line x1="168" y1="192" x2="104" y2="192" fill="none" stroke="currentColor" stroke-linecap="round" stroke-linejoin="round" stroke-width="8" class="draw-line" pathLength="1" style="animation-delay: 0.6s"/><path d="M56,192H32a8,8,0,0,1-8-8V72a8,8,0,0,1,8-8H184V169.37" fill="none" stroke="currentColor" stroke-linecap="round" stroke-linejoin="round" stroke-width="8" class="draw-line" pathLength="1" style="animation-delay: 0.9s"/><line x1="88" y1="120" x2="136" y2="120" fill="none" stroke="currentColor" stroke-linecap="round" stroke-linejoin="round" stroke-width="8" class="draw-line" pathLength="1" style="animation-delay: 1.2s"/><line x1="112" y1="96" x2="112" y2="144" fill="none" stroke="currentColor" stroke-linecap="round" stroke-linejoin="round" stroke-width="8" class="draw-line" pathLength="1" style="animation-delay: 1.5s"/><line x1="184" y1="120" x2="248" y2="120" fill="none" stroke="currentColor" stroke-linecap="round" stroke-linejoin="round" stroke-width="8" class="draw-line" pathLength="1" style="animation-delay: 1.8s"/><path d="M184,80h42.58A8,8,0,0,1,234,85l14,35v64a8,8,0,0,1-8,8H216" fill="none" stroke="currentColor" stroke-linecap="round" stroke-linejoin="round" stroke-width="8" class="draw-line" pathLength="1" style="animation-delay: 2.1s"/></svg>