<svg xmlns="http://www.w3.org/2000/svg" viewBox="0 0 256 256">
  <style>
    .draw-line {
      stroke-dasharray: 1;
      stroke-dashoffset: 0;
    }
    svg:hover .draw-line {
      animation: phosphor-draw-in 1.5s ease-in-out forwards;
    }
    @keyframes phosphor-draw-in {
      from { stroke-dashoffset: 1; }
      to { stroke-dashoffset: 0; }
    }
  </style><rect width="256" height="256" fill="none"/><path d="M48,112H232a0,0,0,0,1,0,0v0a72,72,0,0,1-72,72H120a72,72,0,0,1-72-72v0A0,0,0,0,1,48,112Z" fill="none" stroke="currentColor" stroke-linecap="round" stroke-linejoin="round" stroke-width="8" class="draw-line" pathLength="1" style="animation-delay: 0s"/><path d="M144,112V48a8,8,0,0,1,8-8h8a72,72,0,0,1,72,72h0" fill="none" stroke="currentColor" stroke-linecap="round" stroke-linejoin="round" stroke-width="8" class="draw-line" pathLength="1" style="animation-delay: 0.3s"/><path d="M16,80a32,32,0,0,1,32,32" fill="none" stroke="currentColor" stroke-linecap="round" stroke-linejoin="round" stroke-width="8" class="draw-line" pathLength="1" style="animation-delay: 0.6s"/><circle cx="88" cy="224" r="12"/><circle cx="192" cy="224" r="12"/><line x1="144" y1="112" x2="209.43" y2="59.65" fill="none" stroke="currentColor" stroke-linecap="round" stroke-linejoin="round" stroke-width="8" class="draw-line" pathLength="1" style="animation-delay: 0.9s"/></svg>