<svg xmlns="http://www.w3.org/2000/svg" viewBox="0 0 256 256">
  <style>
    .draw-line {
      stroke-dasharray: 2000;
      stroke-dashoffset: 0;
    }
    svg:hover .draw-line {
      animation: phosphor-draw-in 1.5s ease-in-out infinite;
    }
    @keyframes phosphor-draw-in {
      0%   { stroke-dashoffset: 2000; }
      100% { stroke-dashoffset: 0; }
    }
  </style><rect width="256" height="256" fill="none"/><path d="M180,48h0a28,28,0,0,1,28,28v0a28,28,0,0,1-28,28H152a0,0,0,0,1,0,0V76a28,28,0,0,1,28-28Z" fill="none" stroke="currentColor" stroke-linecap="round" stroke-linejoin="round" stroke-width="8" class="draw-line" pathLength="1" style="animation-delay: 0s"/><path d="M48,48H76a28,28,0,0,1,28,28v0a28,28,0,0,1-28,28h0A28,28,0,0,1,48,76V48A0,0,0,0,1,48,48Z" transform="translate(152 152) rotate(180)" fill="none" stroke="currentColor" stroke-linecap="round" stroke-linejoin="round" stroke-width="8" class="draw-line" pathLength="1" style="animation-delay: 0.3s"/><path d="M152,152h28a28,28,0,0,1,28,28v0a28,28,0,0,1-28,28h0a28,28,0,0,1-28-28V152A0,0,0,0,1,152,152Z" fill="none" stroke="currentColor" stroke-linecap="round" stroke-linejoin="round" stroke-width="8" class="draw-line" pathLength="1" style="animation-delay: 0.6s"/><path d="M76,152h0a28,28,0,0,1,28,28v0a28,28,0,0,1-28,28H48a0,0,0,0,1,0,0V180A28,28,0,0,1,76,152Z" transform="translate(152 360) rotate(-180)" fill="none" stroke="currentColor" stroke-linecap="round" stroke-linejoin="round" stroke-width="8" class="draw-line" pathLength="1" style="animation-delay: 0.9s"/><rect x="104" y="104" width="48" height="48" fill="none" stroke="currentColor" stroke-linecap="round" stroke-linejoin="round" stroke-width="8" class="draw-line" pathLength="1" style="animation-delay: 1.2s"/></svg>