<svg xmlns="http://www.w3.org/2000/svg" viewBox="0 0 256 256">
  <style>
    .draw-line {
      stroke-dasharray: 2000;
      stroke-dashoffset: 0;
    }
    svg:hover .draw-line {
      animation: phosphor-draw-in 1.5s ease-in-out infinite alternate;
    }
    @keyframes phosphor-draw-in {
      0%   { stroke-dashoffset: 0; }
      100% { stroke-dashoffset: 2000; }
    }
  </style><rect width="256" height="256" fill="none"/><path d="M144,40V216a8,8,0,0,1-8,8H72a8,8,0,0,1-8-8V168a8,8,0,0,1,8-8H216a8,8,0,0,0,8-8V104a8,8,0,0,0-8-8H72a8,8,0,0,1-8-8V40a8,8,0,0,1,8-8h64A8,8,0,0,1,144,40Z" fill="none" stroke="currentColor" stroke-linecap="round" stroke-linejoin="round" stroke-width="8" class="draw-line" pathLength="1" style="animation-delay: 0s"/></svg>