<svg xmlns="http://www.w3.org/2000/svg" viewBox="0 0 256 256">
  <style>
    .draw-line {
      stroke-dasharray: 2000;
      stroke-dashoffset: 0;
    }
    svg:hover .draw-line {
      animation: phosphor-draw-in 1.5s ease-in-out infinite alternate;
    }
    @keyframes phosphor-draw-in {
      0%   { stroke-dashoffset: 0; }
      100% { stroke-dashoffset: 2000; }
    }
  </style><rect width="256" height="256" fill="none"/><path d="M128,104a65.47,65.47,0,0,1,17.84-45.25,58.87,58.87,0,0,1,86.16,0Z" fill="none" stroke="currentColor" stroke-linecap="round" stroke-linejoin="round" stroke-width="8" class="draw-line" pathLength="1" style="animation-delay: 0s"/><path d="M128,104.52a64.26,64.26,0,0,1,87.42,23.26A63,63,0,0,1,221.81,176Z" fill="none" stroke="currentColor" stroke-linecap="round" stroke-linejoin="round" stroke-width="8" class="draw-line" pathLength="1" style="animation-delay: 0.3s"/><path d="M128,104a65.47,65.47,0,0,0-17.84-45.25,58.87,58.87,0,0,0-86.16,0Z" fill="none" stroke="currentColor" stroke-linecap="round" stroke-linejoin="round" stroke-width="8" class="draw-line" pathLength="1" style="animation-delay: 0.6s"/><path d="M128,104.52a64.26,64.26,0,0,0-87.42,23.26A63,63,0,0,0,34.19,176Z" fill="none" stroke="currentColor" stroke-linecap="round" stroke-linejoin="round" stroke-width="8" class="draw-line" pathLength="1" style="animation-delay: 0.9s"/><line x1="128" y1="104.52" x2="128" y2="224" fill="none" stroke="currentColor" stroke-linecap="round" stroke-linejoin="round" stroke-width="8" class="draw-line" pathLength="1" style="animation-delay: 1.2s"/></svg>